SplineFontDB: 3.2
FontName: D-DIN-PRO-Condensed-Medium-Italic
FullName: D-DIN-PRO-Condensed-Medium-Italic
FamilyName: D-DIN-PRO-Condensed
Weight: Medium
Copyright: Copyright (c) CyberFei. All rights reserved
Version: 1.1.0
ItalicAngle: -13
UnderlinePosition: -150
UnderlineWidth: 50
Ascent: 831
Descent: 169
InvalidEm: 0
sfntRevision: 0x00010000
LayerCount: 2
Layer: 0 0 "Back" 1
Layer: 1 0 "Fore" 0
XUID: [1021 868 -1451673819 12131]
StyleMap: 0x0040
FSType: 4
OS2Version: 3
OS2_WeightWidthSlopeOnly: 0
OS2_UseTypoMetrics: 0
CreationTime: 1462909513
ModificationTime: 1778060080
PfmFamily: 17
TTFWeight: 500
TTFWidth: 3
LineGap: 86
VLineGap: 0
Panose: 2 11 5 6 3 2 2 3 2 4
OS2TypoAscent: 831
OS2TypoAOffset: 0
OS2TypoDescent: -169
OS2TypoDOffset: 0
OS2TypoLinegap: 86
OS2WinAscent: 902
OS2WinAOffset: 0
OS2WinDescent: 184
OS2WinDOffset: 0
HheadAscent: 831
HheadAOffset: 0
HheadDescent: -169
HheadDOffset: 0
OS2SubXSize: 650
OS2SubYSize: 600
OS2SubXOff: 0
OS2SubYOff: 75
OS2SupXSize: 650
OS2SupYSize: 600
OS2SupXOff: 0
OS2SupYOff: 350
OS2StrikeYSize: 50
OS2StrikeYPos: 310
OS2CapHeight: 690
OS2XHeight: 517
OS2Vendor: 'MONO'
OS2CodePages: 00000001.00000000
OS2UnicodeRanges: 8000006f.4000000a.00000000.00000000
Lookup: 1 0 0 "'rtla' Right to Left Alternates lookup 0" { "'rtla' Right to Left Alternates lookup 0 subtable"  } ['rtla' ('DFLT' <'dflt' > ) ]
Lookup: 1 0 0 "'sups' Superscript lookup 1" { "'sups' Superscript lookup 1 subtable" ("superior") } ['sups' ('DFLT' <'dflt' > ) ]
Lookup: 4 0 0 "'frac' Diagonal Fractions lookup 2" { "'frac' Diagonal Fractions lookup 2 subtable"  } ['frac' ('DFLT' <'dflt' > ) ]
Lookup: 4 0 0 "'dlig' Discretionary Ligatures in Latin lookup 3" { "'dlig' Discretionary Ligatures in Latin lookup 3 subtable"  } ['dlig' ('latn' <'dflt' > ) ]
Lookup: 4 0 1 "'liga' Standard Ligatures in Latin lookup 4" { "'liga' Standard Ligatures in Latin lookup 4 subtable"  } ['liga' ('latn' <'dflt' > ) ]

StartChar: .notdef
Encoding: 65536 -1 0
Width: 596
GlyphClass: 1
Flags: MW
HStem: 0.275391 50.6992<78.582 381.808 78.582 420.802> 639.875 50.7002<214.54 517.766 214.54 214.54>
VStem: 99.6875 50.7002 453.613 50.6992
LayerCount: 2
Fore
SplineSet
175.544921875 690.575195312 m 1
 580.169921875 690.575195312 l 1
 420.801757812 0.275390625 l 1
 16.1767578125 0.275390625 l 1
 175.544921875 690.575195312 l 1
78.58203125 50.974609375 m 1
 381.807617188 50.974609375 l 1
 517.765625 639.875 l 1
 214.540039062 639.875 l 1
 78.58203125 50.974609375 l 1
EndSplineSet
EndChar

StartChar: exclam
Encoding: 33 33 3
Width: 209
GlyphClass: 2
Flags: MW
HStem: 0.275391 112.125<5.0127 72.7275 -20.873 98.6133> 670.575 20G<134.343 236.266 236.266 236.266>
VStem: 62.6377 93.6006 72.6328 72.6172
LayerCount: 2
Fore
SplineSet
236.265625 690.575195312 m 1xd0
 105.858398438 191.375 l 1
 33.2412109375 191.375 l 1
 134.342773438 690.575195312 l 1
 236.265625 690.575195312 l 1xd0
5.0126953125 112.400390625 m 1xe0
 98.61328125 112.400390625 l 1
 72.7275390625 0.275390625 l 1
 -20.873046875 0.275390625 l 1
 5.0126953125 112.400390625 l 1xe0
EndSplineSet
EndChar

StartChar: quotedbl
Encoding: 34 34 4
Width: 283
GlyphClass: 2
Flags: MW
HStem: 446.825 243.75<117.045 144.621 60.7705 200.896 187.521 187.521 187.521 200.896 243.795 271.371>
VStem: 41.1875 83.8506 167.938 83.8506
LayerCount: 2
Fore
SplineSet
117.044921875 690.575195312 m 1
 200.895507812 690.575195312 l 1
 144.62109375 446.825195312 l 1
 60.7705078125 446.825195312 l 1
 117.044921875 690.575195312 l 1
243.794921875 690.575195312 m 1
 327.645507812 690.575195312 l 1
 271.37109375 446.825195312 l 1
 187.520507812 446.825195312 l 1
 243.794921875 690.575195312 l 1
EndSplineSet
EndChar

StartChar: numbersign
Encoding: 35 35 5
Width: 461
GlyphClass: 2
Flags: MW
HStem: 0.275391 21G<-19.9619 61.0742 -19.9619 -19.9619 158.463 239.499 158.463 158.463> 217.7 76.0498<4.95605 54.6094 -12.6016 79.9824 161.993 233.034 4.95605 135.646 340.418 396.898> 415.625 76.0498<71.125 121.756 53.5674 148.07 71.125 203.767 229.146 300.181 407.571 462.093> 670.575 20G<215.44 297.491 297.491 297.491 393.865 475.916 475.916 475.916>
LayerCount: 2
Fore
SplineSet
479.650390625 491.674804688 m 1
 462.092773438 415.625 l 1
 382.19140625 415.625 l 1
 340.41796875 293.75 l 1
 414.456054688 293.75 l 1
 396.8984375 217.700195312 l 1
 314.0703125 217.700195312 l 1
 239.499023438 0.275390625 l 1
 158.462890625 0.275390625 l 1
 233.034179688 217.700195312 l 1
 135.645507812 217.700195312 l 1
 61.07421875 0.275390625 l 1
 -19.9619140625 0.275390625 l 1
 54.609375 217.700195312 l 1
 -12.6015625 217.700195312 l 1
 4.9560546875 293.75 l 1
 79.982421875 293.75 l 1
 121.755859375 415.625 l 1
 53.5673828125 415.625 l 1
 71.125 491.674804688 l 1
 148.0703125 491.674804688 l 1
 215.440429688 690.575195312 l 1
 297.491210938 690.575195312 l 1
 229.145507812 491.674804688 l 1
 326.495117188 491.674804688 l 1
 393.865234375 690.575195312 l 1
 475.916015625 690.575195312 l 1
 407.571289062 491.674804688 l 1
 479.650390625 491.674804688 l 1
258.407226562 293.75 m 1
 300.180664062 415.625 l 1
 203.766601562 415.625 l 1
 161.993164062 293.75 l 1
 258.407226562 293.75 l 1
EndSplineSet
EndChar

StartChar: dollar
Encoding: 36 36 6
Width: 373
GlyphClass: 2
Flags: MW
VStem: 28.5127 82.876 156.238 69.2256 263.488 82.875
LayerCount: 2
Fore
SplineSet
230.170898438 382.393554688 m 1
 310.53515625 342.825195312 328.21875 283.40625 309.22265625 201.125 c 0
 301.610351562 168.154296875 271.712890625 50.19140625 148.341796875 27.9462890625 c 1
 125.74609375 -69.9267578125 l 1
 56.5205078125 -69.9267578125 l 1
 78.7705078125 26.4521484375 l 1
 12.1376953125 34.6923828125 -34.3125 78.642578125 -11.0986328125 198.836914062 c 2
 -9.3388671875 207.948242188 l 1
 75.3642578125 207.948242188 l 1
 70.2763671875 179.225585938 60.59765625 124.57421875 96.9990234375 105.40625 c 1
 145.25390625 314.421875 l 1
 140.354492188 316.909179688 l 2
 64.9462890625 352.403320312 36.9189453125 398.412109375 57.32421875 486.797851562 c 0
 69.03515625 537.5234375 90.3271484375 578.408203125 122.017578125 608.405273438 c 0
 151.447265625 636.263671875 186.09765625 653.251953125 224.857421875 659.220703125 c 1
 246.276367188 751.999023438 l 1
 315.500976562 751.999023438 l 1
 293.782226562 657.924804688 l 1
 361.09375 643.359375 385.021484375 584.049804688 368.45703125 487.328125 c 2
 366.862304688 478.024414062 l 1
 288.62109375 478.024414062 l 1
 293.928710938 505.048828125 303.669921875 554.654296875 274.5625 574.672851562 c 1
 230.170898438 382.393554688 l 1
206.421875 579.3671875 m 1
 193.291992188 574.77734375 156.869140625 558.998046875 142.451171875 496.547851562 c 0
 132.88671875 455.116210938 140.57421875 430.923828125 167.739257812 411.81640625 c 1
 206.421875 579.3671875 l 1
224.321289062 192.349609375 m 0
 235.087890625 238.982421875 227.024414062 261.638671875 206.455078125 279.6640625 c 1
 166.525390625 106.708984375 l 1
 194.256835938 119.134765625 213.643554688 146.09765625 224.321289062 192.349609375 c 0
140.37109375 681.799804688 m 1024
EndSplineSet
EndChar

StartChar: percent
Encoding: 37 37 7
Width: 685
GlyphClass: 2
Flags: MW
HStem: -7.52441 78<477.305 488.368 477.305 508.953> 0.275391 21G<100.223 180.301 100.223 100.223> 257.675 78<132.929 143.992 132.929 164.578> 354.201 78<542.616 554.075> 619.401 77.999<198.235 209.701>
VStem: 33.3887 84.8271 170.864 84.8232 438.99 84.8271 576.467 84.8232
LayerCount: 2
Fore
SplineSet
120.453125 257.674804688 m 0x3f80
 32.2177734375 257.674804688 23.591796875 319.563476562 39.9169921875 390.275390625 c 2
 80.6591796875 566.75 l 2
 91.95703125 615.688476562 121.692382812 697.400390625 221.971679688 697.400390625 c 0
 308.795898438 697.400390625 319.497070312 638.390625 302.958007812 566.75 c 2
 262.215820312 390.275390625 l 2
 245.895507812 319.5859375 208.702148438 257.674804688 120.453125 257.674804688 c 0x3f80
507.69921875 690.575195312 m 1
 587.776367188 690.575195312 l 1
 180.30078125 0.275390625 l 1
 100.22265625 0.275390625 l 1x7f80
 507.69921875 690.575195312 l 1
138.461914062 335.674804688 m 0
 149.521484375 335.674804688 164.788085938 335.682617188 177.392578125 390.276367188 c 2
 218.134765625 566.750976562 l 2
 230.220703125 619.099609375 215.435546875 619.401367188 203.965820312 619.401367188 c 0
 192.504882812 619.401367188 177.57421875 619.110351562 165.486328125 566.75 c 2
 124.744140625 390.275390625 l 2
 112.140625 335.6875 127.395507812 335.674804688 138.461914062 335.674804688 c 0
464.828125 -7.5244140625 m 0xbf80
 376.59375 -7.5244140625 367.966796875 54.3642578125 384.291992188 125.076171875 c 2
 425.034179688 301.55078125 l 2
 436.333007812 350.489257812 466.067382812 432.201171875 566.346679688 432.201171875 c 0
 653.171875 432.201171875 663.874023438 373.192382812 647.333984375 301.55078125 c 2
 606.591796875 125.076171875 l 2
 590.272460938 54.3876953125 553.077148438 -7.5244140625 464.828125 -7.5244140625 c 0xbf80
482.837890625 70.4755859375 m 0
 493.897460938 70.4755859375 509.165039062 70.482421875 521.768554688 125.075195312 c 2
 562.510742188 301.549804688 l 2
 574.596679688 353.900390625 559.80859375 354.201171875 548.340820312 354.201171875 c 0
 536.890625 354.201171875 521.953125 353.923828125 509.861328125 301.55078125 c 2
 469.119140625 125.076171875 l 2
 456.516601562 70.48828125 471.771484375 70.4755859375 482.837890625 70.4755859375 c 0
EndSplineSet
EndChar

StartChar: ampersand
Encoding: 38 38 8
Width: 518
GlyphClass: 2
Flags: MW
HStem: -9.47559 84.8252<130.685 153.386> -0.699219 83.8496<333.449 411.66 392.16 392.303> 622.326 77.998<291.214 317.18>
VStem: 49.9609 88.7227 92.8613 88.7227 285.909 87.751
LayerCount: 2
Fore
SplineSet
418.6796875 556.999023438 m 0xac
 403.749023438 492.328125 359.0625 439.033203125 274.239257812 365.682617188 c 1
 323.318359375 228.061523438 l 1
 392.168945312 310.928710938 l 1
 449.501953125 267.229492188 l 1
 351.580078125 150.3359375 l 1
 366.478515625 108.064453125 l 2
 374.586914062 85.380859375 381.684570312 83.150390625 392.16015625 83.150390625 c 2
 411.66015625 83.150390625 l 1
 392.302734375 -0.69921875 l 1
 351.348632812 -0.69921875 l 2x6c
 315.548828125 -0.69921875 301.026367188 11.6796875 288.615234375 47.4912109375 c 2
 280.876953125 68.1181640625 l 1
 241.681640625 27.7421875 190.473632812 -9.4755859375 116.297851562 -9.4755859375 c 0
 70.19921875 -9.4755859375 35.96484375 5.3271484375 15.3583984375 35.291015625 c 0
 -5.162109375 65.1298828125 -9.4677734375 104.584960938 1.5654296875 152.374023438 c 0xb4
 16.5537109375 217.297851562 60.3974609375 278.266601562 169.890625 375.624023438 c 0
 169.485351562 376.657226562 145.372070312 440.458984375 137.067382812 482.875 c 0
 132.119140625 508.147460938 132.3125 532.880859375 137.880859375 557 c 0
 147.609375 599.139648438 168.803710938 634.185546875 201.443359375 660.703125 c 0
 233.96875 687.127929688 271.059570312 700.32421875 311.368164062 700.32421875 c 0
 352.284179688 700.32421875 383.489257812 687.155273438 403.518554688 660.661132812 c 0
 423.572265625 634.1328125 428.401367188 599.109375 418.6796875 556.999023438 c 0xac
294.334960938 622.326171875 m 0
 258.491210938 622.326171875 235.369140625 594.967773438 227.053710938 558.950195312 c 0
 219.817382812 527.607421875 229.2421875 491.619140625 246.508789062 443.271484375 c 1
 302.620117188 495.235351562 322.990234375 522.616210938 331.37890625 558.951171875 c 0
 336.41015625 580.7421875 340.024414062 622.326171875 294.334960938 622.326171875 c 0
197.829101562 299.389648438 m 1
 129.258789062 237.631835938 101.010742188 198.819335938 91.1884765625 156.275390625 c 0
 84.9033203125 129.053710938 86.9794921875 109.330078125 95.9580078125 95.826171875 c 0
 104.977539062 82.2626953125 119.639648438 75.349609375 141.73046875 75.349609375 c 0xb4
 179.287109375 75.349609375 211.62890625 98.7470703125 252.751953125 144.823242188 c 1
 197.829101562 299.389648438 l 1
EndSplineSet
EndChar

StartChar: quotesingle
Encoding: 39 39 9
Width: 156
GlyphClass: 2
Flags: MW
HStem: 446.825 243.75<117.045 144.621 60.7705 200.896>
VStem: 41.1875 83.8506
LayerCount: 2
Fore
SplineSet
117.044921875 690.575195312 m 1
 200.895507812 690.575195312 l 1
 144.62109375 446.825195312 l 1
 60.7705078125 446.825195312 l 1
 117.044921875 690.575195312 l 1
EndSplineSet
EndChar

StartChar: parenleft
Encoding: 40 40 10
Width: 263
GlyphClass: 2
Flags: MW
VStem: 49.9629 84.8262
LayerCount: 2
Fore
SplineSet
42.3095703125 328.848632812 m 0
 71.8203125 456.67578125 131.576171875 595.791015625 237.9765625 739.32421875 c 1
 314.37890625 739.32421875 l 1
 278.23828125 685.805664062 173.862304688 531.24609375 127.135742188 328.848632812 c 0
 106.806640625 240.795898438 86.6708984375 93.666015625 122.208007812 -69.2626953125 c 2
 124.903320312 -81.625 l 1
 48.419921875 -81.625 l 1
 36.0888671875 -36.669921875 -6.140625 118.990234375 42.3095703125 328.848632812 c 0
EndSplineSet
Substitution2: "'rtla' Right to Left Alternates lookup 0 subtable" parenright
EndChar

StartChar: parenright
Encoding: 41 41 11
Width: 263
GlyphClass: 2
Flags: MW
VStem: 137.713 84.8262
LayerCount: 2
Fore
SplineSet
130.059570312 328.850585938 m 0
 151.607421875 422.18359375 169.404296875 565.8125 134.981445312 726.994140625 c 2
 132.34765625 739.326171875 l 1
 208.75 739.326171875 l 1
 221.280273438 694.50390625 263.754882812 540.525390625 214.885742188 328.850585938 c 0
 179.734375 176.59375 108.129882812 39.140625 19.244140625 -81.6240234375 c 1
 -57.240234375 -81.6240234375 l 1
 -22.1533203125 -30.0146484375 82.8759765625 124.475585938 130.059570312 328.850585938 c 0
EndSplineSet
Substitution2: "'rtla' Right to Left Alternates lookup 0 subtable" parenleft
EndChar

StartChar: asterisk
Encoding: 42 42 12
Width: 350
GlyphClass: 2
Flags: MW
HStem: 399.05 291.525<155.042 288.646 155.042 288.646>
VStem: 146.488 66.2998
LayerCount: 2
Fore
SplineSet
221.341796875 399.049804688 m 1
 155.041992188 399.049804688 l 1
 176.739257812 493.030273438 l 1
 99.1259765625 453.39453125 l 1
 80.05078125 506.548828125 l 1
 159.99609375 547.25 l 1
 98.9169921875 587.903320312 l 1
 142.615234375 642.12890625 l 1
 201.999023438 602.4453125 l 1
 222.345703125 690.575195312 l 1
 288.645507812 690.575195312 l 1
 268.07421875 601.469726562 l 1
 345.8515625 641.190429688 l 1
 363.62109375 587.8671875 l 1
 283.936523438 547.298828125 l 1
 346.00390625 506.590820312 l 1
 302.348632812 453.39453125 l 1
 243.0390625 493.030273438 l 1
 221.341796875 399.049804688 l 1
EndSplineSet
EndChar

StartChar: plus
Encoding: 43 43 13
Width: 420
GlyphClass: 2
Flags: MW
HStem: 237.2 81.8994<30.3086 145.95 11.4004 164.858 245.783 361.426 30.3086 226.875>
VStem: 174.763 80.9248
LayerCount: 2
Fore
SplineSet
245.783203125 319.099609375 m 1
 380.333984375 319.099609375 l 1
 361.42578125 237.200195312 l 1
 226.875 237.200195312 l 1
 196.037109375 103.625 l 1
 115.112304688 103.625 l 1
 145.950195312 237.200195312 l 1
 11.400390625 237.200195312 l 1
 30.30859375 319.099609375 l 1
 164.858398438 319.099609375 l 1
 195.696289062 452.674804688 l 1
 276.62109375 452.674804688 l 1
 245.783203125 319.099609375 l 1
EndSplineSet
EndChar

StartChar: comma
Encoding: 44 44 14
Width: 156
GlyphClass: 2
Flags: MW
HStem: -147.654 256.154<-76.4756 66.5127>
VStem: 41.1875 83.8506
LayerCount: 2
Fore
SplineSet
-17.337890625 108.5 m 1
 66.5126953125 108.5 l 1
 24.1708984375 -74.90234375 l 1
 -76.4755859375 -147.654296875 l 1
 -17.337890625 108.5 l 1
EndSplineSet
EndChar

StartChar: hyphen
Encoding: 45 45 15
Width: 376
GlyphClass: 2
Flags: MW
HStem: 307.4 80.9248<56.041 323.032 37.3574 341.716>
VStem: 49.9629 285.675
LayerCount: 2
Fore
SplineSet
56.041015625 388.325195312 m 1
 341.715820312 388.325195312 l 1
 323.032226562 307.400390625 l 1
 37.357421875 307.400390625 l 1
 56.041015625 388.325195312 l 1
EndSplineSet
EndChar

StartChar: period
Encoding: 46 46 16
Width: 165
GlyphClass: 2
Flags: MW
HStem: 0.275391 104.324<-18.2383 51.2773 -42.3232 75.3623>
VStem: 41.1875 93.6006
LayerCount: 2
Fore
SplineSet
-18.23828125 104.599609375 m 1
 75.3623046875 104.599609375 l 1
 51.27734375 0.275390625 l 1
 -42.3232421875 0.275390625 l 1
 -18.23828125 104.599609375 l 1
EndSplineSet
EndChar

StartChar: slash
Encoding: 47 47 17
Width: 299
GlyphClass: 2
Flags: MW
HStem: 670.575 20G<255.034 336.266 336.266 336.266>
VStem: 48.167 212.241
LayerCount: 2
Fore
SplineSet
255.034179688 690.575195312 m 1
 336.265625 690.575195312 l 1
 43.6376953125 -9.474609375 l 1
 -37.5947265625 -9.474609375 l 1
 255.034179688 690.575195312 l 1
EndSplineSet
EndChar

StartChar: zero
Encoding: 48 48 18
Width: 403
GlyphClass: 2
Flags: MW
HStem: -8.5 80.9248<127.093 153.08 127.093 192.79> 618.423 80.9268<253.148 279.134>
VStem: 51.9131 88.7246 272.264 88.7246
LayerCount: 2
Fore
SplineSet
121.400390625 -8.5 m 0
 38.783203125 -8.5 -24.0322265625 33.0458984375 9.5947265625 178.700195312 c 2
 86.802734375 513.125 l 2
 101.09375 575.0234375 141.427734375 699.349609375 284.8203125 699.349609375 c 0
 366.864257812 699.349609375 429.33984375 658.063476562 395.877929688 513.125 c 2
 318.669921875 178.700195312 l 2
 304.427734375 117.009765625 264.1796875 -8.5 121.400390625 -8.5 c 0
232.420898438 189.423828125 m 2
 304.452148438 501.423828125 l 2
 314.970703125 546.985351562 316.546875 578.237304688 311.016601562 594.592773438 c 0
 305.771484375 610.10546875 292.129882812 618.422851562 266.138671875 618.422851562 c 0
 240.157226562 618.422851562 222.4375 610.096679688 209.690429688 594.495117188 c 0
 196.346679688 578.165039062 183.341796875 546.97265625 172.826171875 501.423828125 c 2
 100.794921875 189.423828125 l 2
 90.279296875 143.874023438 88.8818359375 112.682617188 94.6845703125 96.353515625 c 0
 100.227539062 80.751953125 114.102539062 72.4248046875 140.083984375 72.4248046875 c 0
 166.075195312 72.4248046875 183.557617188 80.7431640625 195.96484375 96.2548828125 c 0
 209.047851562 112.611328125 221.90234375 143.862304688 232.420898438 189.423828125 c 2
EndSplineSet
EndChar

StartChar: one
Encoding: 49 49 19
Width: 278
GlyphClass: 2
Flags: MW
HStem: 0.275391 21G<55.1768 138.052 55.1768 55.1768> 670.575 20G<220.292 297.42 297.42 297.42>
VStem: 138.688 82.875
LayerCount: 2
Fore
SplineSet
71.765625 502.892578125 m 1
 96.0478515625 608.068359375 l 1
 220.291992188 690.575195312 l 1
 297.419921875 690.575195312 l 1
 138.051757812 0.275390625 l 1
 55.1767578125 0.275390625 l 1
 189.22265625 580.892578125 l 1
 71.765625 502.892578125 l 1
EndSplineSet
Substitution2: "'sups' Superscript lookup 1 subtable" uni00B9
EndChar

StartChar: two
Encoding: 50 50 20
Width: 393
GlyphClass: 2
Flags: MW
HStem: 0.275391 80.9248<87.9053 268.702> 618.428 80.9238<255.692 268.278>
VStem: 47.0381 87.75 266.413 88.7246
LayerCount: 2
Fore
SplineSet
257.364257812 618.427734375 m 0
 237.725585938 618.427734375 192.1484375 610.45703125 175.755859375 539.452148438 c 2
 164.7265625 491.676757812 l 1
 76.9765625 491.676757812 l 1
 89.58203125 546.27734375 l 2
 100.188476562 592.219726562 122.560546875 629.885742188 156.895507812 657.780273438 c 0
 191.264648438 685.703125 232.413085938 699.3515625 278.971679688 699.3515625 c 0
 325.530273438 699.3515625 360.375976562 685.703125 381.852539062 657.780273438 c 0
 403.286132812 629.913085938 408.37109375 592.579101562 397.90625 547.250976562 c 2
 389.578125 511.17578125 l 2
 378.435546875 462.913085938 359.2265625 422.645507812 308.345703125 358.61328125 c 2
 87.9052734375 81.2001953125 l 1
 287.384765625 81.2001953125 l 1
 268.702148438 0.275390625 l 1
 -36.47265625 0.275390625 l 1
 -20.859375 67.90234375 l 1
 -19.2744140625 69.8984375 l 1
 -19.2744140625 69.8984375 243.2578125 400.42578125 243.36328125 400.555664062 c 0
 281.43359375 447.151367188 293.743164062 480.377929688 300.853515625 511.177734375 c 2
 307.15625 538.477539062 l 2
 324.70703125 614.5 279.19140625 618.427734375 257.364257812 618.427734375 c 0
EndSplineSet
Substitution2: "'sups' Superscript lookup 1 subtable" uni00B2
EndChar

StartChar: three
Encoding: 51 51 21
Width: 405
GlyphClass: 2
Flags: MW
HStem: -8.5 80.9238<103.196 142.67> 318.124 80.9248<171.616 189.983 152.933 208.667> 618.424 80.9238<258.372 289.483>
VStem: 47.0381 87.75 274.213 88.7246
LayerCount: 2
Fore
SplineSet
298.993164062 362.033203125 m 1
 331.92578125 339.865234375 350.267578125 307.120117188 331.874023438 227.450195312 c 2
 315.442382812 156.275390625 l 2
 303.546875 104.749023438 280.625976562 63.7109375 245.90625 34.650390625 c 0
 211.129882812 5.5419921875 167.83984375 -8.5 117.500976562 -8.5 c 0
 68.57421875 -8.5 32.580078125 4.298828125 11.3076171875 31.041015625 c 0
 -9.931640625 57.7421875 -14.5673828125 95.1572265625 -3.833984375 141.649414062 c 2
 8.0966796875 193.32421875 l 1
 95.8466796875 193.32421875 l 1
 85.2666015625 147.499023438 l 2
 81.76171875 132.319335938 69.232421875 72.423828125 137.159179688 72.423828125 c 0
 152.7109375 72.423828125 207.5390625 73.2041015625 226.041992188 153.348632812 c 2
 243.374023438 228.423828125 l 2
 250.62890625 259.845703125 249.41796875 282.296875 241.486328125 296.627929688 c 0
 233.858398438 310.4140625 217.673828125 318.124023438 189.983398438 318.124023438 c 2
 152.932617188 318.124023438 l 1
 171.616210938 399.048828125 l 1
 208.666992188 399.048828125 l 2
 235.759765625 399.048828125 254.748046875 406.481445312 267.881835938 419.532226562 c 0
 281.653320312 433.21484375 292.693359375 454.71484375 299.650390625 484.848632812 c 2
 311.805664062 537.499023438 l 2
 321.193359375 578.1640625 316.728515625 618.423828125 262.23828125 618.423828125 c 0
 234.1484375 618.423828125 193.247070312 606.768554688 178.60546875 543.348632812 c 2
 167.576171875 495.57421875 l 1
 79.826171875 495.57421875 l 1
 91.0810546875 544.32421875 l 2
 102.102539062 592.063476562 124.20703125 630.540039062 157.93359375 658.224609375 c 0
 191.765625 685.99609375 233.873046875 699.34765625 282.87109375 699.34765625 c 0
 331.219726562 699.34765625 366.711914062 686.15625 387.469726562 658.7109375 c 0
 408.181640625 631.327148438 412.37109375 593.008789062 401.35546875 545.297851562 c 2
 388.075195312 487.7734375 l 2
 371.68359375 416.775390625 339.790039062 383.413085938 298.993164062 362.033203125 c 1
EndSplineSet
Substitution2: "'sups' Superscript lookup 1 subtable" uni00B3
EndChar

StartChar: four
Encoding: 52 52 22
Width: 416
GlyphClass: 2
Flags: MW
HStem: 0.275391 21G<157.552 246.277 157.552 157.552> 135.8 80.9248<92.5977 188.84 296.249 337.04 92.5977 277.565> 670.575 20G<255.779 345.318 345.318 345.318>
VStem: 241.062 88.7256
LayerCount: 2
Fore
SplineSet
296.249023438 216.724609375 m 1
 355.723632812 216.724609375 l 1
 337.040039062 135.799804688 l 1
 277.565429688 135.799804688 l 1
 246.27734375 0.275390625 l 1
 157.551757812 0.275390625 l 1
 188.83984375 135.799804688 l 1
 -15.91015625 135.799804688 l 1
 1.044921875 209.237304688 l 1
 255.779296875 690.575195312 l 1
 345.318359375 690.575195312 l 1
 92.59765625 216.724609375 l 1
 207.5234375 216.724609375 l 1
 248.265625 393.200195312 l 1
 336.991210938 393.200195312 l 1
 296.249023438 216.724609375 l 1
EndSplineSet
EndChar

StartChar: five
Encoding: 53 53 23
Width: 399
GlyphClass: 2
Flags: MW
HStem: -8.5 80.9248<120.23 153.063 120.23 187.599> 368.825 80.9248<221.254 221.856> 606.725 83.8506<200.062 406.763 200.062 200.062>
VStem: 51.9131 84.8252 59.7139 83.8496 267.388 88.7256
LayerCount: 2
Fore
SplineSet
117.500976562 -8.5 m 0xec
 86.0283203125 -8.5 -32.794921875 -4.9091796875 3.2919921875 151.400390625 c 2
 9.3701171875 177.724609375 l 1
 94.1953125 177.724609375 l 1
 88.3427734375 152.375 l 2xf4
 72.3037109375 82.9052734375 105.251953125 72.4248046875 135.208984375 72.4248046875 c 0
 170.916992188 72.4248046875 203.950195312 87.2216796875 220.79296875 160.174804688 c 2
 248.705078125 281.075195312 l 2
 265.884765625 355.489257812 239.098632812 368.825195312 204.614257812 368.825195312 c 0
 175.446289062 368.825195312 150.846679688 355.305664062 128.319335938 325.720703125 c 2
 124.762695312 321.049804688 l 1
 50.259765625 321.049804688 l 1
 135.571289062 690.575195312 l 1
 426.12109375 690.575195312 l 1
 406.762695312 606.724609375 l 1
 200.0625 606.724609375 l 1
 158.798828125 427.991210938 l 1
 179.653320312 440.66015625 205.561523438 449.75 236.946289062 449.75 c 0
 310.088867188 449.75 368.000976562 413.490234375 337.655273438 282.049804688 c 2
 310.193359375 163.099609375 l 2
 296.510742188 103.831054688 257.697265625 -8.5 117.500976562 -8.5 c 0xec
EndSplineSet
EndChar

StartChar: six
Encoding: 54 54 24
Width: 396
GlyphClass: 2
Flags: MW
HStem: -8.5 80.9238<109.437 140.541> 339.574 79.9512<219.388 225.839> 670.575 20G<277.937 368.079 368.079 368.079>
VStem: 47.0361 88.7256 269.338 88.7236
LayerCount: 2
Fore
SplineSet
228.017578125 419.525390625 m 0
 313.833007812 419.525390625 358.388671875 363.418945312 335.551757812 264.5 c 2
 310.116210938 154.325195312 l 2
 298.78125 105.227539062 275.620117188 65.1845703125 240.276367188 35.6220703125 c 0
 204.9921875 6.109375 163.580078125 -8.5 117.500976562 -8.5 c 0
 70.16796875 -8.5 34.9833984375 6.240234375 13.6923828125 36.1865234375 c 0
 -7.5693359375 66.0908203125 -11.9326171875 106.577148438 -0.458984375 156.274414062 c 2
 22.0498046875 253.774414062 l 2
 33.7763671875 304.567382812 47.3134765625 336.263671875 87.1298828125 397.569335938 c 2
 277.936523438 690.575195312 l 1
 368.079101562 690.575195312 l 1
 189.838867188 414.340820312 l 1
 197.73046875 416.532226562 210.758789062 419.525390625 228.017578125 419.525390625 c 0
136.182617188 72.423828125 m 0
 164.345703125 72.423828125 205.395507812 85.03515625 221.166992188 153.348632812 c 2
 245.477539062 258.649414062 l 2
 253.418945312 293.045898438 253.818359375 339.57421875 197.860351562 339.57421875 c 0
 171.71484375 339.57421875 128.146484375 329.012695312 112.801757812 262.548828125 c 2
 87.81640625 154.32421875 l 2
 78.21875 112.754882812 82.69140625 72.423828125 136.182617188 72.423828125 c 0
EndSplineSet
EndChar

StartChar: seven
Encoding: 55 55 25
Width: 362
GlyphClass: 2
Flags: MW
HStem: 0.275391 21G<-16.085 73.4229 -16.085 -16.085> 609.65 80.9248<107.295 306.926 88.6123 416.37>
VStem: 31.4375 309.075
LayerCount: 2
Fore
SplineSet
416.370117188 690.575195312 m 1
 399.416992188 617.140625 l 1
 73.4228515625 0.275390625 l 1
 -16.0849609375 0.275390625 l 1
 306.92578125 609.650390625 l 1
 88.6123046875 609.650390625 l 1
 107.294921875 690.575195312 l 1
 416.370117188 690.575195312 l 1
EndSplineSet
EndChar

StartChar: eight
Encoding: 56 56 26
Width: 403
GlyphClass: 2
Flags: MW
HStem: -8.5 77.999<125.729 144.396> 322.999 77.0273<186.511 213.25> 621.35 78.001<261.463 276.913>
VStem: 51.9121 82.877 278.113 82.874
LayerCount: 2
Fore
SplineSet
120.42578125 -8.5 m 0
 25.73828125 -8.5 -19.5078125 52.646484375 4.8671875 158.2265625 c 2
 21.974609375 232.327148438 l 2
 35.521484375 291.005859375 65.35546875 335.19921875 111.291015625 362.1484375 c 1
 96.681640625 374.662109375 66.912109375 410.081054688 83.4990234375 481.926757812 c 2
 97.9052734375 544.327148438 l 2
 108.506835938 590.25 130.750976562 628.165039062 164.814453125 656.6875 c 0
 198.915039062 685.240234375 239.081054688 699.350585938 283.845703125 699.350585938 c 0
 329.224609375 699.350585938 363.213867188 685.26953125 384.15234375 656.686523438 c 0
 405.044921875 628.163085938 409.782226562 590.248046875 399.180664062 544.326171875 c 2
 384.774414062 481.92578125 l 2
 378.76953125 455.916992188 359.21875 396.22265625 301.893554688 361.97265625 c 1
 335.208007812 335.005859375 344.567382812 290.877929688 331.049804688 232.326171875 c 2
 313.942382812 158.225585938 l 2
 302.192382812 107.331054688 279.40625 66.234375 244.9609375 36.2666015625 c 0
 210.416015625 6.212890625 168.366210938 -8.5 120.42578125 -8.5 c 0
166.374023438 481.924804688 m 2
 158.172851562 446.3984375 158.28125 400.026367188 214.741210938 400.026367188 c 0
 238.916015625 400.026367188 256.838867188 407.326171875 270.676757812 421.015625 c 0
 285.08203125 435.267578125 295.74609375 455.265625 301.900390625 481.924804688 c 2
 316.306640625 544.325195312 l 2
 322.119140625 569.500976562 320.028320312 588.09765625 311.232421875 601.369140625 c 0
 302.4921875 614.555664062 287.985351562 621.349609375 265.83984375 621.349609375 c 0
 243.740234375 621.349609375 226.318359375 614.448242188 211.758789062 601.030273438 c 0
 196.928710938 587.362304688 186.439453125 568.8359375 180.780273438 544.325195312 c 2
 166.374023438 481.924804688 l 2
138.434570312 69.4990234375 m 0
 170.573242188 69.4990234375 213.182617188 80.7529296875 231.517578125 160.173828125 c 2
 248.400390625 233.298828125 l 2
 266.451171875 311.486328125 229.541015625 322.999023438 196.959960938 322.999023438 c 0
 171.548828125 322.999023438 152.780273438 315.127929688 138.309570312 300.233398438 c 0
 123.217773438 284.701171875 111.8515625 262.647460938 105.076171875 233.298828125 c 2
 88.193359375 160.173828125 l 2
 81.2607421875 130.141601562 82.3955078125 107.758789062 90.2958984375 92.2646484375 c 0
 97.8896484375 77.3701171875 113.0234375 69.4990234375 138.434570312 69.4990234375 c 0
EndSplineSet
EndChar

StartChar: nine
Encoding: 57 57 27
Width: 396
GlyphClass: 2
Flags: MW
HStem: 0.275391 21G<29.3242 119.509 29.3242 29.3242> 271.324 79.9502<172.994 177.657> 618.424 80.9258<257.585 289.586>
VStem: 47.0371 88.7266 269.338 88.7246
LayerCount: 2
Fore
SplineSet
169.428710938 271.32421875 m 0
 83.6123046875 271.32421875 39.0556640625 327.4296875 61.8935546875 426.349609375 c 2
 87.3291015625 536.525390625 l 2
 98.806640625 586.237304688 121.985351562 626.473632812 157.327148438 655.752929688 c 0
 192.577148438 684.956054688 234.250976562 699.349609375 280.919921875 699.349609375 c 0
 328.25 699.349609375 363.30078125 684.608398438 384.270507812 654.624023438 c 0
 405.189453125 624.712890625 409.372070312 584.248046875 397.904296875 534.575195312 c 2
 375.39453125 437.075195312 l 2
 363.66796875 386.280273438 350.129882812 354.58203125 310.31640625 293.280273438 c 2
 119.508789062 0.275390625 l 1
 29.32421875 0.275390625 l 1
 208.576171875 276.610351562 l 1
 199.159179688 274.0390625 185.884765625 271.32421875 169.428710938 271.32421875 c 0
200.561523438 351.274414062 m 0
 228.696289062 351.274414062 269.62890625 363.260742188 284.64453125 428.298828125 c 2
 309.629882812 536.524414062 l 2
 318.309570312 574.120117188 316.934570312 618.423828125 262.23828125 618.423828125 c 0
 230.737304688 618.423828125 191.592773438 603.82421875 176.28125 537.499023438 c 2
 151.970703125 432.19921875 l 2
 143.221679688 394.302734375 145.426757812 351.274414062 200.561523438 351.274414062 c 0
EndSplineSet
EndChar

StartChar: colon
Encoding: 58 58 28
Width: 165
GlyphClass: 2
Flags: MW
HStem: 0.275391 104.324<-18.2383 51.2773 -42.3232 75.3623> 329.825 104.325<57.8447 127.36 33.7598 151.445>
VStem: 41.1875 93.6006
LayerCount: 2
Fore
SplineSet
-18.23828125 104.599609375 m 1
 75.3623046875 104.599609375 l 1
 51.27734375 0.275390625 l 1
 -42.3232421875 0.275390625 l 1
 -18.23828125 104.599609375 l 1
57.8447265625 434.150390625 m 1
 151.4453125 434.150390625 l 1
 127.360351562 329.825195312 l 1
 33.759765625 329.825195312 l 1
 57.8447265625 434.150390625 l 1
EndSplineSet
EndChar

StartChar: semicolon
Encoding: 59 59 29
Width: 165
GlyphClass: 2
Flags: MW
HStem: 329.825 104.325<57.8447 127.36 33.7598 151.445>
VStem: 41.1875 93.6006 48.9883 83.8496
LayerCount: 2
Fore
SplineSet
-9.537109375 108.5 m 1xa0
 74.3125 108.5 l 1
 31.970703125 -74.90234375 l 1
 -68.6748046875 -147.654296875 l 1
 -9.537109375 108.5 l 1xa0
57.8447265625 434.150390625 m 1xc0
 151.4453125 434.150390625 l 1
 127.360351562 329.825195312 l 1
 33.759765625 329.825195312 l 1
 57.8447265625 434.150390625 l 1xc0
EndSplineSet
EndChar

StartChar: less
Encoding: 60 60 30
Width: 420
GlyphClass: 2
Flags: W
LayerCount: 2
Fore
SplineSet
12.2890625 241.049804688 m 1
 29.419921875 315.250976562 l 1
 412.385742188 457.9296875 l 1
 392.921875 373.625 l 1
 134.029296875 278.150390625 l 1
 348.837890625 182.67578125 l 1
 329.375 98.3701171875 l 1
 12.2890625 241.049804688 l 1
EndSplineSet
Substitution2: "'rtla' Right to Left Alternates lookup 0 subtable" greater
EndChar

StartChar: equal
Encoding: 61 61 31
Width: 420
GlyphClass: 2
Flags: MW
HStem: 145.55 81.9004<9.14941 340.267 -9.75879 359.175> 327.875 80.9248<51.0176 382.36 32.335 401.043>
LayerCount: 2
Fore
SplineSet
51.017578125 408.799804688 m 1
 401.04296875 408.799804688 l 1
 382.360351562 327.875 l 1
 32.3349609375 327.875 l 1
 51.017578125 408.799804688 l 1
9.1494140625 227.450195312 m 1
 359.174804688 227.450195312 l 1
 340.266601562 145.549804688 l 1
 -9.7587890625 145.549804688 l 1
 9.1494140625 227.450195312 l 1
EndSplineSet
EndChar

StartChar: greater
Encoding: 62 62 32
Width: 420
GlyphClass: 2
Flags: W
LayerCount: 2
Fore
SplineSet
42.896484375 373.625 m 1
 62.3603515625 457.9296875 l 1
 379.4453125 315.250976562 l 1
 362.314453125 241.049804688 l 1
 -20.650390625 98.3701171875 l 1
 -1.1875 182.67578125 l 1
 257.705078125 278.150390625 l 1
 42.896484375 373.625 l 1
EndSplineSet
Substitution2: "'rtla' Right to Left Alternates lookup 0 subtable" less
EndChar

StartChar: question
Encoding: 63 63 33
Width: 364
GlyphClass: 2
Flags: MW
HStem: 0.273438 112.125<79.1133 146.827 53.2275 172.713> 619.399 80.9258<230.943 256.834>
VStem: 30.4629 88.7246 136.738 93.5996 247.888 88.7256
LayerCount: 2
Fore
SplineSet
64.2275390625 508.25 m 2
 78.599609375 570.50390625 119.201171875 700.325195312 261.646484375 700.325195312 c 0
 310.190429688 700.325195312 345.387695312 685.640625 365.108398438 655.431640625 c 0
 384.666015625 625.474609375 388.045898438 584.78125 376.455078125 534.575195312 c 0
 365.864257812 488.700195312 349.579101562 458.962890625 293.99609375 389.6875 c 2
 243.983398438 329.260742188 l 2
 218.447265625 298.25 209.91796875 281.999023438 201.151367188 244.025390625 c 2
 184.944335938 173.825195312 l 1
 96.2197265625 173.825195312 l 1
 113.551757812 248.900390625 l 2
 124.22265625 295.12109375 137.434570312 318.794921875 176.073242188 366.502929688 c 2
 232.75 434.71875 l 2
 269.483398438 479.262695312 279.901367188 500.665039062 287.729492188 534.57421875 c 0
 305.435546875 611.265625 269.729492188 619.399414062 243.938476562 619.399414062 c 0
 217.948242188 619.399414062 200.463867188 611.081054688 188.056640625 595.569335938 c 0
 174.846679688 579.053710938 162.552734375 549.8359375 152.952148438 508.25 c 2
 150.92578125 499.474609375 l 1
 62.201171875 499.474609375 l 1
 64.2275390625 508.25 l 2
79.11328125 112.3984375 m 1
 172.712890625 112.3984375 l 1
 146.827148438 0.2734375 l 1
 53.2275390625 0.2734375 l 1
 79.11328125 112.3984375 l 1
EndSplineSet
EndChar

StartChar: at
Encoding: 64 64 34
Width: 727
GlyphClass: 2
Flags: MW
HStem: -124.525 77.0254<234.532 309.866> 54.875 76.0498<492.332 502.01> 425.375 78<370 390.969> 615.501 77.0244<387.566 462.829>
VStem: 49.9619 81.9014<362 362.001> 228.387 84.8242 420.46 83.8525 604.738 80.9229
LayerCount: 2
Fore
SplineSet
254.515625 -124.525390625 m 0
 63.9111328125 -124.525390625 -33.2373046875 1.625 15.296875 211.849609375 c 2
 49.9619140625 362 l 2
 95.5927734375 559.647460938 248.205078125 692.525390625 443.14453125 692.525390625 c 0
 633.182617188 692.525390625 731.998046875 562.706054688 687.6875 370.775390625 c 2
 652.796875 219.650390625 l 2
 640.676757812 167.149414062 620.149414062 126.108398438 589.934570312 97.5498046875 c 0
 559.724609375 68.9970703125 522.838867188 54.875 481.180664062 54.875 c 0
 455.83203125 54.875 407.185546875 61.2392578125 389.16796875 107.604492188 c 1
 357.522460938 68.5146484375 320.26171875 54.875 276.431640625 54.875 c 0
 208.368164062 54.875 166.393554688 93.4794921875 193.046875 208.924804688 c 2
 226.135742188 352.25 l 2
 237.020507812 399.3984375 254.103515625 436.500976562 278.620117188 463.029296875 c 0
 303.829101562 490.3046875 337.841796875 503.375 378.025390625 503.375 c 0
 408.565429688 503.375 431.771484375 493.842773438 446.555664062 475.018554688 c 1
 451.30078125 495.575195312 l 1
 535.150390625 495.575195312 l 1
 464.6953125 190.400390625 l 2
 459.90625 169.654296875 461.587890625 155.181640625 468.140625 145.625976562 c 0
 474.907226562 135.759765625 484.948242188 130.924804688 499.71484375 130.924804688 c 0
 519.000976562 130.924804688 532.407226562 137.310546875 542.879882812 149.661132812 c 0
 554.00390625 162.78125 563.592773438 183.778320312 570.298828125 212.826171875 c 2
 606.5390625 369.80078125 l 2
 624.165039062 446.1484375 616.541015625 505.572265625 584.643554688 549.471679688 c 0
 552.801757812 593.296875 500.294921875 615.500976562 425.36328125 615.500976562 c 0
 349.768554688 615.500976562 287.380859375 593.1328125 236.596679688 549.104492188 c 0
 185.716796875 504.991210938 150.580078125 443.073242188 131.86328125 362.000976562 c 2
 97.423828125 212.826171875 l 2
 78.2470703125 129.764648438 84.439453125 66.166015625 114.700195312 20.7568359375 c 0
 144.887695312 -24.54296875 196.765625 -47.5 272.297851562 -47.5 c 0
 364.533203125 -47.5 414.340820312 -20.052734375 457.723632812 5.8427734375 c 1
 483.743164062 -57.7529296875 l 1
 436.022460938 -85.830078125 365.215820312 -124.525390625 254.515625 -124.525390625 c 0
385.5703125 210.875 m 2
 417.758789062 350.299804688 l 2
 423.836914062 376.62890625 423.39453125 395.626953125 417.919921875 407.765625 c 0
 412.819335938 419.078125 401.446289062 425.375 380.491210938 425.375 c 0
 359.5078125 425.375 345.729492188 419.0859375 336.11328125 407.998046875 c 0
 325.522460938 395.784179688 316.670898438 376.986328125 310.735351562 351.275390625 c 2
 278.095703125 209.900390625 l 2
 271.85546875 182.868164062 272.026367188 163.26953125 277.19140625 150.782226562 c 0
 281.9921875 139.173828125 292.798828125 132.875 312.96484375 132.875 c 0
 334.487304688 132.875 348.810546875 139.530273438 359.053710938 151.611328125 c 0
 370.3125 164.889648438 379.489257812 184.537109375 385.5703125 210.875 c 2
EndSplineSet
EndChar

StartChar: A
Encoding: 65 65 35
Width: 460
GlyphClass: 2
Flags: MW
HStem: 0.275391 21G<-76.2354 -76.2354 -76.2354 16.2051 285.249 285.249 285.249 378.665> 171.875 78.9746<136.935 280.219 136.935 281.966 98.7227 280.219> 670.575 20G<271.215 349.951 349.951 349.951>
LayerCount: 2
Fore
SplineSet
-76.2353515625 0.275390625 m 1
 271.21484375 690.575195312 l 1
 349.951171875 690.575195312 l 1
 378.665039062 0.275390625 l 1
 285.249023438 0.275390625 l 1
 281.965820312 171.875 l 1
 98.72265625 171.875 l 1
 16.205078125 0.275390625 l 1
 -76.2353515625 0.275390625 l 1
136.934570312 250.849609375 m 1
 280.21875 250.849609375 l 1
 274.931640625 538.262695312 l 1
 136.934570312 250.849609375 l 1
EndSplineSet
EndChar

StartChar: B
Encoding: 66 66 36
Width: 469
GlyphClass: 2
Flags: MW
HStem: 0.276367 80.9248<83.6104 157.552> 317.151 80.9248<156.767 224.858 138.083 242.567> 609.651 80.9248<205.612 292.388 205.612 205.612>
VStem: 59.7129 88.7246 337.588 88.7246
LayerCount: 2
Fore
SplineSet
315.9453125 690.576171875 m 2
 412.926757812 690.576171875 487.120117188 654.946289062 452.802734375 506.299804688 c 0
 436.610351562 436.163085938 400.331054688 385.939453125 344.581054688 359.0390625 c 1
 393.37109375 334.379882812 406.864257812 277.758789062 387.595703125 194.299804688 c 0
 347.646484375 21.2607421875 232.44921875 0.2763671875 157.551757812 0.2763671875 c 2
 -23.7978515625 0.2763671875 l 1
 135.5703125 690.576171875 l 1
 315.9453125 690.576171875 l 2
242.567382812 398.076171875 m 2
 295.944335938 398.076171875 344.170898438 420.076171875 363.176757812 502.401367188 c 0
 372.556640625 543.028320312 370.545898438 570.326171875 359.874023438 585.650390625 c 0
 349.178710938 601.006835938 327.489257812 609.651367188 292.387695312 609.651367188 c 2
 205.612304688 609.651367188 l 1
 156.766601562 398.076171875 l 1
 242.567382812 398.076171875 l 2
299.997070312 199.17578125 m 0
 322.473632812 296.533203125 276.702148438 317.151367188 224.858398438 317.151367188 c 2
 138.083007812 317.151367188 l 1
 83.6103515625 81.201171875 l 1
 170.385742188 81.201171875 l 2
 207.9453125 81.201171875 235.5078125 91.15625 254.984375 109.279296875 c 0
 274.822265625 127.741210938 290.341796875 157.353515625 299.997070312 199.17578125 c 0
EndSplineSet
EndChar

StartChar: C
Encoding: 67 67 37
Width: 477
GlyphClass: 2
Flags: MW
HStem: -7.52539 81.9004<154.337 186.896> 617.45 81.8994<293.318 319.535>
VStem: 51.9131 88.7256 345.389 86.7754
LayerCount: 2
Fore
SplineSet
104.172851562 204.049804688 m 2
 78.5419921875 93.03125 130.11328125 74.375 178.560546875 74.375 c 0
 210.454101562 74.375 236.651367188 84.26171875 258.780273438 103.673828125 c 0
 280.591796875 122.806640625 297.188476562 153.223632812 307.122070312 196.25 c 2
 311.173828125 213.799804688 l 1
 397.94921875 213.799804688 l 1
 393.672851562 195.275390625 l 2
 378.341796875 128.868164062 349.538085938 77.5986328125 306.176757812 43.2158203125 c 0
 263.41015625 9.306640625 214.140625 -7.525390625 159.65234375 -7.525390625 c 0
 102.545898438 -7.525390625 59.57421875 10.3076171875 32.2607421875 46.263671875 c 0
 4.6708984375 82.5849609375 -0.2529296875 136.04296875 15.6728515625 205.025390625 c 2
 80.5 485.825195312 l 2
 96.5673828125 555.420898438 126.05078125 609.184570312 170.094726562 645.530273438 c 0
 213.703125 681.516601562 264.765625 699.349609375 321.87109375 699.349609375 c 0
 377.005859375 699.349609375 419.099609375 682.360351562 446.78125 648.149414062 c 0
 474.858398438 613.44921875 480.2109375 561.671875 464.7265625 494.599609375 c 2
 460.674804688 477.049804688 l 1
 371.950195312 477.049804688 l 1
 375.551757812 492.650390625 l 2
 385.94921875 537.686523438 383.391601562 569.04296875 370.1796875 588.096679688 c 0
 356.658203125 607.599609375 335.129882812 617.450195312 303.939453125 617.450195312 c 0
 237.088867188 617.450195312 190.88671875 579.646484375 167.650390625 479 c 2
 104.172851562 204.049804688 l 2
EndSplineSet
EndChar

StartChar: D
Encoding: 68 68 38
Width: 476
GlyphClass: 2
Flags: MW
HStem: 0.275391 80.9248<83.6094 159.502> 609.65 80.9248<205.612 300.188 205.612 205.612>
VStem: 59.7129 88.7246 344.413 88.7246
LayerCount: 2
Fore
SplineSet
135.5703125 690.575195312 m 1
 318.870117188 690.575195312 l 2
 375.330078125 690.575195312 417.70703125 672.899414062 444.447265625 637.2421875 c 0
 471.473632812 601.202148438 475.987304688 547.600585938 459.923828125 478.025390625 c 2
 398.698242188 212.825195312 l 2
 382.779296875 143.875 353.536132812 90.4580078125 309.853515625 54.125 c 0
 266.580078125 18.1328125 215.983398438 0.275390625 159.501953125 0.275390625 c 2
 -23.7978515625 0.275390625 l 1
 135.5703125 690.575195312 l 1
369.624023438 471.200195312 m 2
 395.409179688 582.888671875 351.998046875 609.650390625 300.1875 609.650390625 c 2
 205.612304688 609.650390625 l 1
 83.609375 81.2001953125 l 1
 178.184570312 81.2001953125 l 2
 227.634765625 81.2001953125 285.3828125 106.313476562 309.748046875 211.849609375 c 2
 369.624023438 471.200195312 l 2
EndSplineSet
EndChar

StartChar: E
Encoding: 69 69 39
Width: 403
GlyphClass: 2
Flags: MW
HStem: 0.275391 80.9248<82.6348 293.077> 310.325 81.8994<154.44 332.483 135.533 351.391> 609.65 80.9248<204.638 433.763 204.638 204.638>
VStem: 59.7129 87.75
LayerCount: 2
Fore
SplineSet
82.634765625 81.2001953125 m 1
 311.759765625 81.2001953125 l 1
 293.077148438 0.275390625 l 1
 -23.7978515625 0.275390625 l 1
 135.5703125 690.575195312 l 1
 452.4453125 690.575195312 l 1
 433.762695312 609.650390625 l 1
 204.637695312 609.650390625 l 1
 154.440429688 392.224609375 l 1
 351.390625 392.224609375 l 1
 332.483398438 310.325195312 l 1
 135.533203125 310.325195312 l 1
 82.634765625 81.2001953125 l 1
EndSplineSet
EndChar

StartChar: F
Encoding: 70 70 40
Width: 398
GlyphClass: 2
Flags: MW
HStem: 0.275391 21G<-23.7979 64.9268 -23.7979 -23.7979> 307.4 81.8994<135.832 351.69 154.74 332.782> 609.65 80.9248<205.612 433.763 205.612 205.612>
VStem: 59.7129 88.7246
LayerCount: 2
Fore
SplineSet
135.83203125 307.400390625 m 1
 64.9267578125 0.275390625 l 1
 -23.7978515625 0.275390625 l 1
 135.5703125 690.575195312 l 1
 452.4453125 690.575195312 l 1
 433.762695312 609.650390625 l 1
 205.612304688 609.650390625 l 1
 154.740234375 389.299804688 l 1
 351.690429688 389.299804688 l 1
 332.782226562 307.400390625 l 1
 135.83203125 307.400390625 l 1
EndSplineSet
EndChar

StartChar: G
Encoding: 71 71 41
Width: 477
GlyphClass: 2
Flags: MW
HStem: -7.52539 81.9004<153.841 186.906> 285.95 77.0244<234.463 327.83 216.681 434.338> 617.45 81.8994<293.319 318.927>
VStem: 51.9141 88.7236 345.388 88.7256
LayerCount: 2
Fore
SplineSet
177.584960938 74.375 m 0
 253.864257812 74.375 291.325195312 127.830078125 308.247070312 201.125 c 2
 327.830078125 285.950195312 l 1
 216.680664062 285.950195312 l 1
 234.462890625 362.974609375 l 1
 434.337890625 362.974609375 l 1
 397.647460938 204.049804688 l 2
 381.73046875 135.104492188 352.522460938 81.8291015625 308.877929688 45.8076171875 c 0
 265.674804688 10.150390625 215.135742188 -7.525390625 158.676757812 -7.525390625 c 0
 101.571289062 -7.525390625 58.7421875 10.30859375 31.75 46.2939453125 c 0
 4.5029296875 82.6220703125 -0.248046875 136.059570312 15.673828125 205.025390625 c 2
 80.5009765625 485.825195312 l 2
 96.568359375 555.420898438 126.051757812 609.184570312 170.095703125 645.530273438 c 0
 213.704101562 681.516601562 264.766601562 699.349609375 321.87109375 699.349609375 c 0
 377.604492188 699.349609375 419.916992188 682.563476562 447.379882812 648.638671875 c 0
 475.07421875 614.427734375 481.15625 565.764648438 466.977539062 504.349609375 c 2
 462.25 483.875 l 1
 373.524414062 483.875 l 1
 378.251953125 504.349609375 l 2
 386.922851562 541.909179688 383.794921875 569.5 370.326171875 588.53515625 c 0
 356.7734375 607.688476562 334.889648438 617.450195312 302.963867188 617.450195312 c 0
 258.439453125 617.450195312 195.764648438 600.78125 167.649414062 479 c 2
 104.171875 204.049804688 l 2
 78.4326171875 92.55859375 130.096679688 74.375 177.584960938 74.375 c 0
EndSplineSet
EndChar

StartChar: H
Encoding: 72 72 42
Width: 477
GlyphClass: 2
Flags: MW
HStem: 0.275391 21G<-23.7979 64.9268 -23.7979 -23.7979 254.077 342.802 254.077 254.077> 311.3 80.9248<155.415 325.883 136.732 344.565> 670.575 20G<135.57 224.295 224.295 224.295 413.445 502.17 502.17 502.17>
VStem: 59.7129 88.7246 337.588 88.7246
LayerCount: 2
Fore
SplineSet
502.169921875 690.575195312 m 1
 342.801757812 0.275390625 l 1
 254.077148438 0.275390625 l 1
 325.8828125 311.299804688 l 1
 136.732421875 311.299804688 l 1
 64.9267578125 0.275390625 l 1
 -23.7978515625 0.275390625 l 1
 135.5703125 690.575195312 l 1
 224.294921875 690.575195312 l 1
 155.415039062 392.224609375 l 1
 344.565429688 392.224609375 l 1
 413.4453125 690.575195312 l 1
 502.169921875 690.575195312 l 1
EndSplineSet
EndChar

StartChar: I
Encoding: 73 73 43
Width: 209
GlyphClass: 2
Flags: MW
HStem: 0.275391 21G<-17.9482 69.8018 -17.9482 -17.9482> 670.575 20G<141.42 229.17 229.17 229.17>
VStem: 65.5625 87.75
LayerCount: 2
Fore
SplineSet
141.419921875 690.575195312 m 1
 229.169921875 690.575195312 l 1
 69.8017578125 0.275390625 l 1
 -17.9482421875 0.275390625 l 1
 141.419921875 690.575195312 l 1
EndSplineSet
EndChar

StartChar: J
Encoding: 74 74 44
Width: 267
GlyphClass: 2
Flags: MW
HStem: 0.275391 80.9248<-40.2148 -15.998 -58.8975 -3.16406> 670.575 20G<197.971 286.696 286.696 286.696>
VStem: 122.113 88.7256
LayerCount: 2
Fore
SplineSet
160.192382812 142.625 m 2
 147.84765625 89.15625 108.58984375 0.275390625 -15.998046875 0.275390625 c 2
 -58.8974609375 0.275390625 l 1
 -40.21484375 81.2001953125 l 1
 -3.1640625 81.2001953125 l 2
 18.3720703125 81.2001953125 58.5654296875 86.74609375 73.267578125 150.424804688 c 2
 197.970703125 690.575195312 l 1
 286.696289062 690.575195312 l 1
 160.192382812 142.625 l 2
EndSplineSet
EndChar

StartChar: K
Encoding: 75 75 45
Width: 460
GlyphClass: 2
Flags: MW
HStem: 0.275391 21G<-23.7979 64.9268 -23.7979 -23.7979 286.477 383.855 286.477 286.477> 670.575 20G<135.57 224.295 224.295 224.295 425.921 521.446 521.446 521.446>
VStem: 59.7129 88.7246
LayerCount: 2
Fore
SplineSet
286.4765625 0.275390625 m 1
 214.063476562 316.721679688 l 1
 108.044921875 187.041015625 l 1
 64.9267578125 0.275390625 l 1
 -23.7978515625 0.275390625 l 1
 135.5703125 690.575195312 l 1
 224.294921875 690.575195312 l 1
 143.4140625 340.239257812 l 1
 425.920898438 690.575195312 l 1
 521.446289062 690.575195312 l 1
 288.733398438 407.336914062 l 1
 383.85546875 0.275390625 l 1
 286.4765625 0.275390625 l 1
EndSplineSet
EndChar

StartChar: L
Encoding: 76 76 46
Width: 392
GlyphClass: 2
Flags: MW
HStem: 0.275391 80.9248<83.6094 293.077> 670.575 20G<135.57 224.295 224.295 224.295>
VStem: 59.7129 88.7246
LayerCount: 2
Fore
SplineSet
135.5703125 690.575195312 m 1
 224.294921875 690.575195312 l 1
 83.609375 81.2001953125 l 1
 311.759765625 81.2001953125 l 1
 293.077148438 0.275390625 l 1
 -23.7978515625 0.275390625 l 1
 135.5703125 690.575195312 l 1
EndSplineSet
EndChar

StartChar: M
Encoding: 77 77 47
Width: 595
GlyphClass: 2
Flags: MW
HStem: 0.275391 21G<-23.7979 64.9268 -23.7979 -23.7979 371.077 459.802 371.077 371.077> 670.575 20G<135.57 221.507 221.507 221.507 533.207 619.17 619.17 619.17>
VStem: 59.7129 88.7246 454.588 88.7246
LayerCount: 2
Fore
SplineSet
619.169921875 690.575195312 m 1
 459.801757812 0.275390625 l 1
 371.077148438 0.275390625 l 1
 481.470703125 478.440429688 l 1
 283.450195312 156.275390625 l 1
 277.41796875 156.275390625 l 1
 230.618164062 156.275390625 l 1
 224.602539062 156.275390625 l 1
 174.727539062 475.874023438 l 1
 64.9267578125 0.275390625 l 1
 -23.7978515625 0.275390625 l 1
 135.5703125 690.575195312 l 1
 221.506835938 690.575195312 l 1
 285.959960938 290.622070312 l 1
 533.20703125 690.575195312 l 1
 619.169921875 690.575195312 l 1
EndSplineSet
EndChar

StartChar: N
Encoding: 78 78 48
Width: 500
GlyphClass: 2
Flags: MW
HStem: 0.275391 21G<-23.7979 64.9268 -23.7979 -23.7979 280.553 366.202 280.553 280.553> 670.575 20G<135.57 221.225 221.225 221.225 436.846 525.57 525.57 525.57>
VStem: 59.7129 88.7246 360.988 88.7246
LayerCount: 2
Fore
SplineSet
525.5703125 690.575195312 m 1
 366.202148438 0.275390625 l 1
 280.552734375 0.275390625 l 1
 176.72265625 484.518554688 l 1
 64.9267578125 0.275390625 l 1
 -23.7978515625 0.275390625 l 1
 135.5703125 690.575195312 l 1
 221.224609375 690.575195312 l 1
 324.840820312 205.427734375 l 1
 436.845703125 690.575195312 l 1
 525.5703125 690.575195312 l 1
EndSplineSet
EndChar

StartChar: O
Encoding: 79 79 49
Width: 477
GlyphClass: 2
Flags: MW
HStem: -7.52539 81.9014<153.841 185.943> 617.451 81.8994<292.355 328.869>
VStem: 51.9131 88.7246 345.388 88.7256
LayerCount: 2
Fore
SplineSet
15.6728515625 205.026367188 m 2
 80.5009765625 485.826171875 l 2
 96.708984375 556.03125 126.029296875 609.959960938 169.719726562 646.018554688 c 0
 212.951171875 681.698242188 263.814453125 699.350585938 320.896484375 699.350585938 c 0
 377.978515625 699.350585938 420.692382812 681.698242188 447.448242188 646.018554688 c 0
 474.48828125 609.959960938 478.909179688 556.030273438 462.700195312 485.825195312 c 2
 397.873046875 205.025390625 l 2
 381.951171875 136.059570312 352.524414062 82.6220703125 308.501953125 46.2939453125 c 0
 264.921875 10.3310546875 214.184570312 -7.525390625 157.701171875 -7.525390625 c 0
 100.598632812 -7.525390625 57.9111328125 10.3095703125 31.240234375 46.3251953125 c 0
 4.3330078125 82.658203125 -0.2451171875 136.076171875 15.6728515625 205.026367188 c 2
177.584960938 74.3759765625 m 0
 229.805664062 74.3759765625 285.264648438 101.578125 308.921875 204.05078125 c 2
 372.399414062 479.000976562 l 2
 398.184570312 590.689453125 354.774414062 617.451171875 302.963867188 617.451171875 c 0
 245.643554688 617.451171875 193.221679688 589.764648438 167.649414062 479.000976562 c 2
 104.171875 204.05078125 l 2
 78.4326171875 92.5595703125 130.096679688 74.3759765625 177.584960938 74.3759765625 c 0
EndSplineSet
EndChar

StartChar: P
Encoding: 80 80 50
Width: 439
GlyphClass: 2
Flags: MW
HStem: 0.275391 21G<-23.7969 64.9277 -23.7969 -23.7969> 284.975 80.9268<149.339 225.231 130.656 240.014> 609.651 80.9238<205.613 296.288 205.613 205.613>
VStem: 59.7139 88.7246 336.613 87.75
LayerCount: 2
Fore
SplineSet
318.87109375 690.575195312 m 2
 404.583984375 690.575195312 492.935546875 659.020507812 452.950195312 485.825195312 c 0
 435.635742188 410.827148438 388.206054688 284.974609375 225.231445312 284.974609375 c 2
 130.65625 284.974609375 l 1
 64.927734375 0.275390625 l 1
 -23.796875 0.275390625 l 1
 135.571289062 690.575195312 l 1
 318.87109375 690.575195312 l 2
240.013671875 365.901367188 m 2
 306.532226562 365.901367188 345.123046875 398.860351562 365.201171875 485.826171875 c 0
 386.249023438 576.994140625 361.497070312 609.651367188 296.288085938 609.651367188 c 2
 205.61328125 609.651367188 l 1
 149.338867188 365.901367188 l 1
 240.013671875 365.901367188 l 2
EndSplineSet
EndChar

StartChar: Q
Encoding: 81 81 51
Width: 477
GlyphClass: 2
Flags: MW
HStem: -7.52441 81.9004<153.841 163.163> 617.451 81.8994<292.355 328.869>
VStem: 51.9131 88.7246 345.388 88.7256
LayerCount: 2
Fore
SplineSet
397.873046875 205.025390625 m 2
 383.250976562 141.690429688 349.508789062 62.775390625 271.841796875 20.923828125 c 1
 296.259765625 -111.821289062 l 1
 214.540039062 -141.74609375 l 1
 189.723632812 -5.517578125 l 1
 179.299804688 -6.8583984375 168.625 -7.5244140625 157.701171875 -7.5244140625 c 0
 100.598632812 -7.5244140625 57.9111328125 10.310546875 31.240234375 46.326171875 c 0
 4.3330078125 82.6591796875 -0.2451171875 136.076171875 15.6728515625 205.026367188 c 2
 80.5009765625 485.826171875 l 2
 96.708984375 556.03125 126.029296875 609.959960938 169.719726562 646.018554688 c 0
 212.951171875 681.698242188 263.814453125 699.350585938 320.896484375 699.350585938 c 0
 377.978515625 699.350585938 420.692382812 681.698242188 447.448242188 646.018554688 c 0
 474.48828125 609.959960938 478.909179688 556.030273438 462.700195312 485.825195312 c 2
 397.873046875 205.025390625 l 2
177.584960938 74.3759765625 m 0
 229.805664062 74.3759765625 285.264648438 101.578125 308.921875 204.05078125 c 2
 372.399414062 479.000976562 l 2
 398.184570312 590.689453125 354.774414062 617.451171875 302.963867188 617.451171875 c 0
 245.643554688 617.451171875 193.221679688 589.764648438 167.649414062 479.000976562 c 2
 104.171875 204.05078125 l 2
 78.4326171875 92.5595703125 130.096679688 74.3759765625 177.584960938 74.3759765625 c 0
EndSplineSet
EndChar

StartChar: R
Encoding: 82 82 52
Width: 465
GlyphClass: 2
Flags: MW
HStem: 0.275391 21G<-23.7988 64.9258 -23.7988 -23.7988 269.458 364.417 269.458 269.458> 294.725 79.9492<132.904 267.347> 609.65 80.9248<205.611 302.137 205.611 205.611>
VStem: 59.7119 88.7246 335.638 88.7256
LayerCount: 2
Fore
SplineSet
321.793945312 690.575195312 m 2
 430.448242188 690.575195312 488.639648438 640.41015625 454.30078125 491.674804688 c 0
 432.59765625 397.668945312 386.385742188 334.922851562 315.348632812 309.056640625 c 1
 364.416992188 0.275390625 l 1
 269.458007812 0.275390625 l 1
 226.287109375 294.724609375 l 1
 132.904296875 294.724609375 l 1
 64.92578125 0.275390625 l 1
 -23.798828125 0.275390625 l 1
 135.569335938 690.575195312 l 1
 321.793945312 690.575195312 l 2
247.889648438 374.673828125 m 0
 286.803710938 374.673828125 341.258789062 386.349609375 365.575195312 491.674804688 c 0
 375.107421875 532.961914062 374.366210938 562.74609375 365.083984375 581.603515625 c 0
 356.14453125 599.766601562 336.25 609.650390625 302.13671875 609.650390625 c 2
 205.611328125 609.650390625 l 1
 151.362304688 374.674804688 l 1
 183.538085938 374.674804688 215.713867188 374.673828125 247.889648438 374.673828125 c 0
EndSplineSet
EndChar

StartChar: S
Encoding: 83 83 53
Width: 426
GlyphClass: 2
Flags: MW
HStem: -6.5498 80.9248<102.122 156.448> 619.401 80.9248<265.95 317.18>
VStem: 26.5625 86.4053 33.3848 88.7275 310.286 88.7256
LayerCount: 2
Fore
SplineSet
274.163085938 619.401367188 m 0xd8
 251.8984375 619.401367188 181.1171875 617.578125 157.677734375 516.05078125 c 0xd8
 150.639648438 485.56640625 152.666015625 462.784179688 162.5078125 446.611328125 c 0
 172.485351562 430.2109375 193.69140625 414.42578125 226.788085938 400.403320312 c 2
 263.16796875 384.799804688 l 2
 304.875976562 366.859375 334.614257812 343.0078125 351.63671875 312.856445312 c 0
 368.95703125 282.177734375 370.861328125 240.068359375 358.719726562 187.474609375 c 0
 344.724609375 126.85546875 317.890625 78.69921875 277.462890625 44.4482421875 c 0
 236.920898438 10.1005859375 186.170898438 -6.5498046875 126.725585938 -6.5498046875 c 0
 43.990234375 -6.5498046875 -47.0771484375 28.1474609375 -12.421875 193.138671875 c 2
 -10.5400390625 202.099609375 l 1
 76.0517578125 202.099609375 l 1xe8
 65.8896484375 148.048828125 55.91015625 74.375 148.333007812 74.375 c 0
 205.725585938 74.375 250.036132812 101.029296875 269.768554688 186.5 c 0
 277.755859375 221.094726562 275.997070312 245.834960938 266.2890625 261.7890625 c 0
 256.3359375 278.1484375 234.051757812 294.956054688 198.719726562 310.950195312 c 2
 163.33984375 326.541992188 l 2
 122.3359375 344.465820312 93.1318359375 367.620117188 76.4423828125 396.4609375 c 0
 59.5068359375 425.727539062 57.0771484375 464.625 68.0498046875 512.151367188 c 0
 81.0400390625 568.416992188 107.706054688 614.438476562 148.333007812 648.842773438 c 0
 189.083007812 683.350585938 238.08203125 700.326171875 293.818359375 700.326171875 c 0
 346.91015625 700.326171875 386.479492188 684.53515625 410.86328125 652.3828125 c 0
 447.07421875 604.635742188 433.91015625 534.557617188 427.686523438 501.42578125 c 1
 342.96875 501.42578125 l 1
 350.690429688 546.057617188 360.197265625 619.401367188 274.163085938 619.401367188 c 0xd8
EndSplineSet
EndChar

StartChar: T
Encoding: 84 84 54
Width: 369
GlyphClass: 2
Flags: MW
HStem: 0.275391 21G<62.002 149.752 62.002 62.002> 609.65 80.9248<82.9199 202.688 64.2373 447.57 290.438 290.438 290.438 428.888>
VStem: 145.513 87.75
LayerCount: 2
Fore
SplineSet
202.6875 609.650390625 m 1
 64.2373046875 609.650390625 l 1
 82.919921875 690.575195312 l 1
 447.5703125 690.575195312 l 1
 428.887695312 609.650390625 l 1
 290.4375 609.650390625 l 1
 149.751953125 0.275390625 l 1
 62.001953125 0.275390625 l 1
 202.6875 609.650390625 l 1
EndSplineSet
EndChar

StartChar: U
Encoding: 85 85 55
Width: 478
GlyphClass: 2
Flags: MW
HStem: -7.52539 81.9004<162.277 185.631> 670.575 20G<135.569 224.294 224.294 224.294 415.395 504.119 504.119 504.119>
VStem: 59.7119 88.7246 339.537 88.7246
LayerCount: 2
Fore
SplineSet
158.676757812 -7.525390625 m 0
 50.6923828125 -7.525390625 -7.9521484375 68.9150390625 17.84375 180.650390625 c 2
 135.569335938 690.575195312 l 1
 224.293945312 690.575195312 l 1
 107.46875 184.549804688 l 2
 98.9267578125 147.551757812 101.6171875 120.537109375 113.9765625 102.196289062 c 0
 126.380859375 83.7890625 146.970703125 74.375 177.583984375 74.375 c 0
 237.8125 74.375 282.182617188 113.571289062 298.569335938 184.549804688 c 2
 415.39453125 690.575195312 l 1
 504.119140625 690.575195312 l 1
 386.393554688 180.650390625 l 2
 373.522460938 124.899414062 345.950195312 78.978515625 303.627929688 44.3154296875 c 0
 261.36328125 9.6982421875 212.584960938 -7.525390625 158.676757812 -7.525390625 c 0
EndSplineSet
EndChar

StartChar: V
Encoding: 86 86 56
Width: 423
GlyphClass: 2
Flags: MW
HStem: 0.275391 21G<92.1553 174.208 92.1553 92.1553> 670.575 20G<83.4512 177.747 177.747 177.747 406.356 500.649 500.649 500.649>
LayerCount: 2
Fore
SplineSet
83.451171875 690.575195312 m 1
 177.747070312 690.575195312 l 1
 170.419921875 161.7421875 l 1
 406.356445312 690.575195312 l 1
 500.649414062 690.575195312 l 1
 174.208007812 0.275390625 l 1
 92.1552734375 0.275390625 l 1
 83.451171875 690.575195312 l 1
EndSplineSet
EndChar

StartChar: W
Encoding: 87 87 57
Width: 650
GlyphClass: 2
Flags: MW
HStem: 0.275391 21G<60.6367 151.237 60.6367 60.6367 342.305 432.913 342.305 342.305> 670.575 20G<83.9453 176.113 176.113 176.113 353.364 461.813 461.813 461.813 638.077 726.34 726.34 726.34>
VStem: 8.08789 92.168 562.22 88.2627
LayerCount: 2
Fore
SplineSet
342.3046875 0.275390625 m 1
 367.990234375 527.295898438 l 1
 151.237304688 0.275390625 l 1
 60.63671875 0.275390625 l 1
 83.9453125 690.575195312 l 1
 176.11328125 690.575195312 l 1
 145.608398438 168.716796875 l 1
 353.364257812 690.575195312 l 1
 461.813476562 690.575195312 l 1
 429.525390625 168.9765625 l 1
 638.077148438 690.575195312 l 1
 726.33984375 690.575195312 l 1
 432.913085938 0.275390625 l 1
 342.3046875 0.275390625 l 1
EndSplineSet
EndChar

StartChar: X
Encoding: 88 88 58
Width: 416
GlyphClass: 2
Flags: MW
HStem: 0.275391 21G<-78.1797 -78.1797 -78.1797 21.0947 236.465 236.465 236.465 336.753> 670.575 20G<93.9229 193.158 193.158 193.158 384.09 483.421 483.421 483.421>
LayerCount: 2
Fore
SplineSet
-78.1796875 0.275390625 m 1
 161.368164062 358.119140625 l 1
 93.9228515625 690.575195312 l 1
 193.158203125 690.575195312 l 1
 234.654296875 452.828125 l 1
 384.08984375 690.575195312 l 1
 483.420898438 690.575195312 l 1
 261.673828125 359.083007812 l 1
 336.752929688 0.275390625 l 1
 236.46484375 0.275390625 l 1
 190.274414062 264.635742188 l 1
 21.0947265625 0.275390625 l 1
 -78.1796875 0.275390625 l 1
EndSplineSet
EndChar

StartChar: Y
Encoding: 89 89 59
Width: 393
GlyphClass: 2
Flags: MW
HStem: 0.275391 21G<73.7021 161.452 73.7021 73.7021> 670.575 20G<81.96 178.915 178.915 178.915 374.976 471.931 471.931 471.931>
VStem: 157.213 87.75
LayerCount: 2
Fore
SplineSet
471.930664062 690.575195312 m 1
 227.712890625 287.280273438 l 1
 161.452148438 0.275390625 l 1
 73.7021484375 0.275390625 l 1
 139.962890625 287.280273438 l 1
 81.9599609375 690.575195312 l 1
 178.915039062 690.575195312 l 1
 210.106445312 401.065429688 l 1
 374.975585938 690.575195312 l 1
 471.930664062 690.575195312 l 1
EndSplineSet
EndChar

StartChar: Z
Encoding: 90 90 60
Width: 386
GlyphClass: 2
Flags: MW
HStem: 0.275391 80.9248<57.1631 284.302> 609.65 80.9248<117.045 325.682 98.3623 436.846>
LayerCount: 2
Fore
SplineSet
302.984375 81.2001953125 m 1
 284.301757812 0.275390625 l 1
 -53.0478515625 0.275390625 l 1
 -35.9599609375 74.291015625 l 1
 325.681640625 609.650390625 l 1
 98.3623046875 609.650390625 l 1
 117.044921875 690.575195312 l 1
 436.845703125 690.575195312 l 1
 419.756835938 616.552734375 l 1
 57.1630859375 81.2001953125 l 1
 302.984375 81.2001953125 l 1
EndSplineSet
EndChar

StartChar: bracketleft
Encoding: 91 91 61
Width: 257
GlyphClass: 2
Flags: MW
HStem: -81.625 80.9248<60.8018 114.269> 658.4 80.9248<212.968 285.117 212.968 212.968>
VStem: 59.7129 84.8252 59.7129 156.975
LayerCount: 2
Fore
SplineSet
146.825195312 739.325195312 m 1xd0
 303.799804688 739.325195312 l 1
 285.1171875 658.400390625 l 1xd0
 212.967773438 658.400390625 l 1
 60.8017578125 -0.7001953125 l 1xe0
 132.951171875 -0.7001953125 l 1
 114.268554688 -81.625 l 1
 -42.7060546875 -81.625 l 1
 146.825195312 739.325195312 l 1xd0
EndSplineSet
Substitution2: "'rtla' Right to Left Alternates lookup 0 subtable" bracketright
EndChar

StartChar: backslash
Encoding: 92 92 62
Width: 299
GlyphClass: 2
Flags: MW
HStem: 670.575 20G<124.024 205.257 205.257 205.257>
VStem: 48.167 212.241
LayerCount: 2
Fore
SplineSet
124.024414062 690.575195312 m 1
 205.256835938 690.575195312 l 1
 174.646484375 -9.474609375 l 1
 93.4150390625 -9.474609375 l 1
 124.024414062 690.575195312 l 1
EndSplineSet
EndChar

StartChar: bracketright
Encoding: 93 93 63
Width: 256
GlyphClass: 2
Flags: MW
HStem: -81.625 80.9248<-33.7734 37.4014 -33.7734 103.544 -52.4561 37.4014> 658.4 80.9248<137.075 189.567 118.393 293.075>
VStem: 49.9629 156 121.138 84.8252
LayerCount: 2
Fore
SplineSet
189.567382812 658.400390625 m 1xd0
 118.392578125 658.400390625 l 1
 137.075195312 739.325195312 l 1
 293.075195312 739.325195312 l 1
 103.543945312 -81.625 l 1
 -52.4560546875 -81.625 l 1
 -33.7734375 -0.7001953125 l 1xe0
 37.4013671875 -0.7001953125 l 1
 189.567382812 658.400390625 l 1xd0
EndSplineSet
Substitution2: "'rtla' Right to Left Alternates lookup 0 subtable" bracketleft
EndChar

StartChar: asciicircum
Encoding: 94 94 64
Width: 420
GlyphClass: 2
Flags: MW
HStem: 670.575 20G<252.157 328.044 328.044 328.044>
LayerCount: 2
Fore
SplineSet
252.157226562 690.575195312 m 1
 328.043945312 690.575195312 l 1
 376.231445312 273.275390625 l 1
 293.252929688 273.275390625 l 1
 261.961914062 566.717773438 l 1
 94.2626953125 273.275390625 l 1
 12.3056640625 273.275390625 l 1
 252.157226562 690.575195312 l 1
EndSplineSet
EndChar

StartChar: underscore
Encoding: 95 95 65
Width: 416
GlyphClass: 2
Flags: MW
HStem: -101.125 66.2998<-90.4014 317.442 -105.708 332.749>
LayerCount: 2
Fore
SplineSet
-90.4013671875 -34.8251953125 m 1
 332.749023438 -34.8251953125 l 1
 317.442382812 -101.125 l 1
 -105.708007812 -101.125 l 1
 -90.4013671875 -34.8251953125 l 1
EndSplineSet
EndChar

StartChar: grave
Encoding: 96 96 66
Width: 499
GlyphClass: 2
Flags: MW
HStem: 561.875 143.325<314.336 321.92 226.321 389.936 314.336 314.336>
VStem: 147.087 196.704
LayerCount: 2
Fore
SplineSet
226.321289062 705.200195312 m 1
 321.919921875 705.200195312 l 1
 389.935546875 561.875 l 1
 314.3359375 561.875 l 1
 226.321289062 705.200195312 l 1
EndSplineSet
EndChar

StartChar: a
Encoding: 97 97 67
Width: 401
GlyphClass: 2
Flags: MW
HStem: -7.52539 75.0742<109.41 111.581> 0.275391 21G<187.777 268.702 187.777 187.777> 238.174 67.2764<153.549 255.307 186.081 239.775> 453.65 76.0498<216.225 238.923>
VStem: 40.2119 83.8506 52.8867 79.9502 268.363 83.8496
LayerCount: 2
Fore
SplineSet
220.295898438 453.650390625 m 0xba
 192.795898438 453.650390625 151.725585938 443.817382812 138.915039062 388.325195312 c 2
 135.087890625 371.75 l 1
 55.1376953125 371.75 l 1
 59.189453125 389.299804688 l 2
 69.0634765625 432.068359375 90.3818359375 466.9375 123.276367188 492.234375 c 0
 156.004882812 517.405273438 194.595703125 529.700195312 237.854492188 529.700195312 c 0
 286.22265625 529.700195312 321.56640625 516.325195312 341.9140625 488.494140625 c 0
 362.16796875 460.793945312 366.149414062 422.366210938 355.138671875 374.674804688 c 2
 268.702148438 0.275390625 l 1
 187.77734375 0.275390625 l 1x76
 194.657226562 30.0751953125 l 1
 165.32421875 5.12109375 130.786132812 -7.525390625 92.3759765625 -7.525390625 c 0
 48.8955078125 -7.525390625 17.361328125 6.482421875 -0.056640625 35.1005859375 c 0
 -17.345703125 63.5068359375 -19.6669921875 102.637695312 -8.4091796875 151.400390625 c 0
 2.4755859375 198.546875 24.7236328125 236.717773438 58.7548828125 264.366210938 c 0
 92.9501953125 292.1484375 135.83984375 305.450195312 186.081054688 305.450195312 c 2
 255.306640625 305.450195312 l 1
 271.963867188 377.599609375 l 2
 286.150390625 439.046875 257.55078125 453.650390625 220.295898438 453.650390625 c 0xba
125.30859375 67.548828125 m 0xba
 153.595703125 67.548828125 202.984375 78.814453125 220.192382812 153.348632812 c 2
 239.775390625 238.173828125 l 1
 177.375 238.173828125 l 2
 129.72265625 238.173828125 90.8798828125 218.271484375 75.6669921875 152.374023438 c 0
 58.685546875 78.822265625 93.51171875 67.548828125 125.30859375 67.548828125 c 0xba
EndSplineSet
EndChar

StartChar: b
Encoding: 98 98 68
Width: 412
GlyphClass: 2
Flags: MW
HStem: -7.52539 77.0254<127.209 165.956> 0.275391 21G<-24.7734 59.0762 -24.7734 -24.7734> 452.675 77.0254<250.475 250.684> 670.575 20G<134.595 218.444 218.444 218.444>
VStem: 58.7373 83.8496 287.861 83.8516
LayerCount: 2
Fore
SplineSet
268.080078125 529.700195312 m 0x7c
 310.543945312 529.700195312 342.147460938 514.493164062 361.244140625 484.237304688 c 0
 380.5546875 453.643554688 382.400390625 408.291992188 368.787109375 349.325195312 c 2
 328.043945312 172.849609375 l 2
 314.430664062 113.8828125 291.64453125 68.53125 258.208007812 37.9375 c 0
 225.178710938 7.7177734375 186.885742188 -7.525390625 145.026367188 -7.525390625 c 0xbc
 109.391601562 -7.525390625 82.615234375 4.794921875 65.67578125 28.86328125 c 1
 61.1015625 9.0498046875 l 1
 59.076171875 0.275390625 l 1
 -24.7734375 0.275390625 l 1
 134.594726562 690.575195312 l 1
 218.444335938 690.575195312 l 1
 172.491210938 491.528320312 l 1
 200.6015625 516.6875 232.870117188 529.700195312 268.080078125 529.700195312 c 0x7c
150.131835938 69.5 m 0
 196.345703125 69.5 227.25390625 99.48046875 245.993164062 180.650390625 c 2
 283.134765625 341.525390625 l 2
 307.237304688 445.926757812 262.7734375 452.674804688 238.594726562 452.674804688 c 0
 198.361328125 452.674804688 157.721679688 427.55859375 137.633789062 340.549804688 c 2
 100.493164062 179.674804688 l 2
 86.7919921875 120.330078125 92.0185546875 69.5 150.131835938 69.5 c 0
EndSplineSet
EndChar

StartChar: c
Encoding: 99 99 69
Width: 409
GlyphClass: 2
Flags: MW
HStem: -7.52539 77.0254<114.548 150.744> 452.676 77.0244<224.666 248.887>
VStem: 49.9629 83.8496 284.938 83.8506
LayerCount: 2
Fore
SplineSet
143.30859375 69.5 m 0
 176.61328125 69.5 220.133789062 81.302734375 238.79296875 162.125 c 2
 243.969726562 184.549804688 l 1
 327.8203125 184.549804688 l 1
 322.868164062 163.099609375 l 2
 310.109375 107.833007812 286.875 64.83203125 251.98046875 35.625 c 0
 217.302734375 6.5986328125 174.986328125 -7.525390625 126.500976562 -7.525390625 c 0
 76.1064453125 -7.525390625 39.072265625 6.890625 17.2724609375 36.5966796875 c 0
 -4.7353515625 66.587890625 -7.6337890625 112.51953125 6.2939453125 172.849609375 c 2
 47.037109375 349.325195312 l 2
 60.96484375 409.655273438 85.072265625 455.587890625 120.927734375 485.578125 c 0
 156.413085938 515.2578125 199.77734375 529.700195312 249.553710938 529.700195312 c 0
 314.458984375 529.700195312 401.688476562 504.508789062 368.337890625 360.05078125 c 2
 363.161132812 337.625976562 l 1
 279.310546875 337.625976562 l 1
 284.487304688 360.05078125 l 2
 303.270507812 441.408203125 265.02734375 452.67578125 232.747070312 452.67578125 c 0
 206.032226562 452.67578125 185.532226562 444.44140625 169.208007812 428.66015625 c 0
 153.104492188 413.092773438 138.956054688 384.279296875 129.0859375 341.526367188 c 2
 91.9453125 180.651367188 l 2
 75.3515625 108.779296875 85.787109375 69.5 143.30859375 69.5 c 0
EndSplineSet
EndChar

StartChar: d
Encoding: 100 100 70
Width: 412
GlyphClass: 2
Flags: MW
HStem: -7.52539 77.0254<113.378 123.844> 0.275391 21G<195.577 279.427 195.577 195.577> 452.675 77.0254<212.854 238.82> 670.575 20G<354.945 438.795 438.795 438.795>
VStem: 49.9629 83.8496 279.088 83.8496
LayerCount: 2
Fore
SplineSet
6.2939453125 172.849609375 m 2xbc
 47.037109375 349.325195312 l 2
 60.650390625 408.291992188 83.435546875 453.643554688 116.873046875 484.237304688 c 0
 149.901367188 514.45703125 188.1953125 529.700195312 230.0546875 529.700195312 c 0
 265.764648438 529.700195312 292.365234375 516.694335938 308.98046875 491.479492188 c 1
 354.9453125 690.575195312 l 1
 438.794921875 690.575195312 l 1
 279.426757812 0.275390625 l 1
 195.577148438 0.275390625 l 1x7c
 202.176757812 28.8623046875 l 1
 174.125 4.794921875 141.661132812 -7.525390625 106.026367188 -7.525390625 c 0
 64.1669921875 -7.525390625 32.9111328125 7.7177734375 13.8369140625 37.9375 c 0
 -5.474609375 68.53125 -7.3193359375 113.8828125 6.2939453125 172.849609375 c 2xbc
136.483398438 69.5 m 0xbc
 176.920898438 69.5 217.305664062 94.390625 236.995117188 179.674804688 c 2
 274.135742188 340.549804688 l 2
 298.043945312 444.108398438 252.693359375 452.674804688 224.946289062 452.674804688 c 0
 200.760742188 452.674804688 153.186523438 445.919921875 129.0859375 341.525390625 c 2
 91.9443359375 180.650390625 l 2
 73.205078125 99.4794921875 90.2734375 69.5 136.483398438 69.5 c 0xbc
EndSplineSet
EndChar

StartChar: e
Encoding: 101 101 71
Width: 408
GlyphClass: 2
Flags: MW
HStem: -7.52539 75.0752<112.517 149.754> 232.325 68.249<119.631 270.756 119.631 337.875 103.875 270.756> 452.674 77.0264<222.271 259.217>
VStem: 49.9629 83.8496 284.938 82.875
LayerCount: 2
Fore
SplineSet
125.526367188 -7.525390625 m 0
 39.673828125 -7.525390625 -25.6845703125 34.3359375 8.0947265625 180.650390625 c 2
 45.685546875 343.474609375 l 2
 59.4755859375 403.202148438 83.6083984375 449.7421875 119.311523438 481.869140625 c 0
 154.8984375 513.891601562 197.912109375 529.700195312 246.629882812 529.700195312 c 0
 295.3515625 529.700195312 331.337890625 513.896484375 352.784179688 481.94921875 c 0
 374.346679688 449.830078125 377.333007812 403.236328125 363.53515625 343.474609375 c 2
 337.875 232.325195312 l 1
 103.875 232.325195312 l 1
 92.1689453125 181.624023438 l 2
 77.9013671875 119.8203125 80.224609375 67.5498046875 144.80859375 67.5498046875 c 0
 175.543945312 67.5498046875 218.409179688 78.0537109375 237.142578125 159.200195312 c 2
 240.069335938 171.875 l 1
 322.944335938 171.875 l 1
 320.243164062 160.174804688 l 2
 307.77734375 106.182617188 284.87109375 63.99609375 250.407226562 35.138671875 c 0
 216.100585938 6.4130859375 173.982421875 -7.525390625 125.526367188 -7.525390625 c 0
229.821289062 452.673828125 m 0
 175.711914062 452.673828125 146.077148438 415.124023438 129.084960938 341.524414062 c 2
 119.630859375 300.57421875 l 1
 270.755859375 300.57421875 l 1
 280.66015625 343.473632812 l 2
 295.762695312 408.887695312 288.61328125 452.673828125 229.821289062 452.673828125 c 0
EndSplineSet
EndChar

StartChar: f
Encoding: 102 102 72
Width: 291
GlyphClass: 2
Flags: MW
HStem: 0.275391 21G<16.1777 100.028 16.1777 16.1777> 452.675 69.2256<76.1543 120.622 60.1719 136.604 220.455 291.247 76.1543 204.473> 620.375 70.2002<290.244 346.171 312.046 329.964>
VStem: 99.6885 83.8506
LayerCount: 2
Fore
SplineSet
143.131835938 550.174804688 m 2
 164.536132812 642.88671875 225.772460938 690.575195312 312.045898438 690.575195312 c 2
 346.170898438 690.575195312 l 1
 329.963867188 620.375 l 1
 301.689453125 620.375 l 2
 278.798828125 620.375 263.115234375 615.009765625 253.215820312 606.564453125 c 0
 243.151367188 597.975585938 234.46484375 582.583984375 229.008789062 558.950195312 c 2
 220.455078125 521.900390625 l 1
 307.229492188 521.900390625 l 1
 291.247070312 452.674804688 l 1
 204.47265625 452.674804688 l 1
 100.028320312 0.275390625 l 1
 16.177734375 0.275390625 l 1
 120.622070312 452.674804688 l 1
 60.171875 452.674804688 l 1
 76.154296875 521.900390625 l 1
 136.604492188 521.900390625 l 1
 143.131835938 550.174804688 l 2
EndSplineSet
EndChar

StartChar: g
Encoding: 103 103 73
Width: 412
GlyphClass: 2
Flags: MW
HStem: -157.675 75.0752<92.4097 111.92> 31.4746 77.0254<121.759 132.977> 452.675 77.0254<209.125 238.944> 501.9 20G<316.004 399.854 399.854 399.854>
VStem: 49.9629 83.8496 279.088 83.8496
LayerCount: 2
Fore
SplineSet
103.3203125 -82.599609375 m 0xdc
 137.447265625 -82.599609375 179.033203125 -71.3837890625 199.853515625 18.7998046875 c 2
 210.9609375 66.9091796875 l 1
 183.330078125 43.423828125 150.922851562 31.474609375 115.030273438 31.474609375 c 0
 73.1708984375 31.474609375 41.9150390625 46.7177734375 22.8408203125 76.9375 c 0
 3.54296875 107.509765625 1.6044921875 152.537109375 15.0732421875 210.875 c 2
 47.26171875 350.299804688 l 2
 60.73046875 408.637695312 83.458984375 453.665039062 116.873046875 484.237304688 c 0
 149.901367188 514.45703125 188.1953125 529.700195312 230.0546875 529.700195312 c 0xec
 266.044921875 529.700195312 292.704101562 516.844726562 309.065429688 491.845703125 c 1
 316.00390625 521.900390625 l 1
 399.853515625 521.900390625 l 1
 285.0546875 24.650390625 l 2
 272.447265625 -29.955078125 249.716796875 -74.30859375 216.126953125 -107.49609375 c 0
 181.956054688 -141.2578125 137.854492188 -157.674804688 85.986328125 -157.674804688 c 0
 40.3173828125 -157.674804688 6.2998046875 -145.861328125 -14.4375 -121.190429688 c 0
 -45.2138671875 -84.5771484375 -35.984375 -37.9873046875 -30.916015625 -12.400390625 c 1
 49.7861328125 -12.400390625 l 1
 46.7431640625 -30.271484375 43.5009765625 -49.3134765625 57.560546875 -65.931640625 c 0
 66.75 -76.7919921875 81.4990234375 -82.599609375 103.3203125 -82.599609375 c 0xdc
145.48828125 108.5 m 0
 185.943359375 108.5 226.314453125 133.411132812 245.999023438 218.674804688 c 2
 274.361328125 341.525390625 l 2
 298.010742188 443.96484375 252.94140625 452.674804688 224.946289062 452.674804688 c 0
 165.110351562 452.674804688 141.678710938 396.07421875 129.310546875 342.5 c 2
 100.723632812 218.674804688 l 2
 82.4228515625 139.408203125 98.0302734375 108.5 145.48828125 108.5 c 0
EndSplineSet
EndChar

StartChar: h
Encoding: 104 104 74
Width: 416
GlyphClass: 2
Flags: MW
HStem: 0.275391 21G<-24.7725 59.0771 -24.7725 -24.7725 199.478 199.478 199.478 283.328> 452.675 77.0254<217.625 291.133> 670.575 20G<134.596 218.445 218.445 218.445>
VStem: 58.7383 83.8496 282.988 83.8506
LayerCount: 2
Fore
SplineSet
233.721679688 452.674804688 m 0
 201.529296875 452.674804688 159.403320312 434.834960938 144.614257812 370.775390625 c 2
 59.0771484375 0.275390625 l 1
 -24.7724609375 0.275390625 l 1
 134.595703125 690.575195312 l 1
 218.4453125 690.575195312 l 1
 173.083007812 494.08984375 l 1
 188.509765625 506.58984375 223.342773438 529.700195312 270.030273438 529.700195312 c 0
 312.235351562 529.700195312 343.127929688 516.005859375 360.686523438 488.1328125 c 0
 378.1796875 460.360351562 380.651367188 421.828125 369.540039062 373.700195312 c 2
 283.328125 0.275390625 l 1
 199.477539062 0.275390625 l 1
 285.014648438 370.775390625 l 2
 291.451171875 398.655273438 289.271484375 418.654296875 280.034179688 432.124023438 c 0
 270.684570312 445.756835938 255.807617188 452.674804688 233.721679688 452.674804688 c 0
EndSplineSet
EndChar

StartChar: i
Encoding: 105 105 75
Width: 205
GlyphClass: 2
Flags: MW
HStem: 0.275391 21G<-18.9229 64.9268 -18.9229 -18.9229> 501.9 20G<101.504 185.354 185.354 185.354> 584.3 105.3<140.221 200.735 115.91 225.046>
VStem: 64.5879 83.8496
LayerCount: 2
Fore
SplineSet
101.50390625 521.900390625 m 1
 185.353515625 521.900390625 l 1
 64.9267578125 0.275390625 l 1
 -18.9228515625 0.275390625 l 1
 101.50390625 521.900390625 l 1
140.220703125 689.599609375 m 1
 225.045898438 689.599609375 l 1
 200.735351562 584.299804688 l 1
 115.91015625 584.299804688 l 1
 140.220703125 689.599609375 l 1
EndSplineSet
EndChar

StartChar: j
Encoding: 106 106 76
Width: 201
GlyphClass: 2
Flags: MW
HStem: -147.925 77.0244<-123.105 -115.538 -140.888 -99.7051> 501.9 20G<97.6045 182.43 182.43 182.43> 584.3 105.3<136.32 196.835 112.01 221.146>
VStem: 60.6885 84.8252
LayerCount: 2
Fore
SplineSet
136.3203125 689.599609375 m 1
 221.145507812 689.599609375 l 1
 196.834960938 584.299804688 l 1
 112.009765625 584.299804688 l 1
 136.3203125 689.599609375 l 1
60.65234375 -5.5751953125 m 2
 48.30859375 -59.04296875 9.05078125 -147.924804688 -115.538085938 -147.924804688 c 2
 -140.887695312 -147.924804688 l 1
 -123.10546875 -70.900390625 l 1
 -99.705078125 -70.900390625 l 2
 -68.556640625 -70.900390625 -36.564453125 -59.248046875 -23.498046875 -2.650390625 c 2
 97.6044921875 521.900390625 l 1
 182.4296875 521.900390625 l 1
 60.65234375 -5.5751953125 l 2
EndSplineSet
EndChar

StartChar: k
Encoding: 107 107 77
Width: 409
GlyphClass: 2
Flags: MW
HStem: 0.275391 21G<-24.7725 59.0771 -24.7725 -24.7725 228.979 324.667 228.979 228.979> 501.9 20G<334.614 429.153 429.153 429.153> 670.575 20G<134.596 218.445 218.445 218.445>
VStem: 58.7383 83.8496
LayerCount: 2
Fore
SplineSet
228.978515625 0.275390625 m 1
 172.671875 240.923828125 l 1
 94.919921875 155.526367188 l 1
 59.0771484375 0.275390625 l 1
 -24.7724609375 0.275390625 l 1
 134.595703125 690.575195312 l 1
 218.4453125 690.575195312 l 1
 123.822265625 280.715820312 l 1
 334.614257812 521.900390625 l 1
 429.153320312 521.900390625 l 1
 243.060546875 318.361328125 l 1
 324.666992188 0.275390625 l 1
 228.978515625 0.275390625 l 1
EndSplineSet
EndChar

StartChar: l
Encoding: 108 108 78
Width: 239
GlyphClass: 2
Flags: MW
HStem: 0.275391 77.0244<91.6348 161.686 138.285 143.903> 670.575 20G<134.596 219.421 219.421 219.421>
VStem: 58.7383 84.8252
LayerCount: 2
Fore
SplineSet
118.552734375 0.275390625 m 2
 64.716796875 0.275390625 -20.4765625 18.884765625 8.091796875 142.625 c 2
 134.595703125 690.575195312 l 1
 219.420898438 690.575195312 l 1
 93.591796875 145.549804688 l 2
 80.5263671875 88.9560546875 107.131835938 77.2998046875 138.28515625 77.2998046875 c 2
 161.685546875 77.2998046875 l 1
 143.903320312 0.275390625 l 1
 118.552734375 0.275390625 l 2
EndSplineSet
EndChar

StartChar: m
Encoding: 109 109 79
Width: 641
GlyphClass: 2
Flags: MW
HStem: 0.274414 21G<199.478 283.328 199.478 199.478 422.753 507.578 422.753 422.753> 452.674 77.0254<214.34 282.89 460.336 469.631> 501.9 20G<95.6543 178.529 178.529 178.529>
VStem: 58.7383 84.8242 282.988 83.8506 506.264 84.8252
LayerCount: 2
Fore
SplineSet
233.721679688 452.673828125 m 0xdc
 194.958007812 452.673828125 158.6171875 427.208007812 145.588867188 370.775390625 c 2
 60.0517578125 0.275390625 l 1
 -24.7724609375 0.275390625 l 1
 95.654296875 521.900390625 l 1
 178.529296875 521.900390625 l 1xbc
 171.854492188 492.987304688 l 1
 190.23046875 508.232421875 224.23828125 529.69921875 270.030273438 529.69921875 c 0
 295.749023438 529.69921875 343.36328125 522.580078125 366.505859375 473.5859375 c 1
 387.37890625 495.1015625 430.291015625 529.69921875 490.380859375 529.69921875 c 0
 535.022460938 529.69921875 567.2890625 516.145507812 584.936523438 488.131835938 c 0
 602.4296875 460.359375 604.901367188 421.827148438 593.790039062 373.69921875 c 2
 507.578125 0.2744140625 l 1
 422.752929688 0.2744140625 l 1
 508.2890625 370.774414062 l 2
 514.734375 398.690429688 512.696289062 418.737304688 503.745117188 432.198242188 c 0
 494.688476562 445.819335938 480.315429688 452.673828125 458.947265625 452.673828125 c 0
 436.9140625 452.673828125 418.63671875 445.634765625 402.540039062 431.62890625 c 0
 386.541015625 417.708007812 375.194335938 398.190429688 369.08984375 371.749023438 c 2
 283.328125 0.2744140625 l 1
 199.477539062 0.2744140625 l 1
 285.013671875 370.774414062 l 2
 291.288085938 397.951171875 289.127929688 417.833984375 279.875 431.702148438 c 0
 270.577148438 445.641601562 255.7578125 452.673828125 233.721679688 452.673828125 c 0xdc
EndSplineSet
EndChar

StartChar: n
Encoding: 110 110 80
Width: 416
GlyphClass: 2
Flags: MW
HStem: 0.274414 21G<199.478 283.328 199.478 199.478> 452.674 77.0254<223.066 291.148> 501.9 20G<95.6543 177.555 177.555 177.555>
VStem: 58.7383 83.8496 282.988 83.8506
LayerCount: 2
Fore
SplineSet
170.857421875 492.890625 m 1xb8
 187.775390625 506.83984375 222.715820312 529.69921875 270.030273438 529.69921875 c 0
 312.265625 529.69921875 343.133789062 515.8125 360.599609375 487.602539062 c 0
 377.966796875 459.551757812 380.5078125 421.208007812 369.540039062 373.69921875 c 2
 283.328125 0.2744140625 l 1
 199.477539062 0.2744140625 l 1
 285.013671875 370.774414062 l 2
 291.450195312 398.654296875 289.270507812 418.653320312 280.034179688 432.123046875 c 0
 270.684570312 445.755859375 255.807617188 452.673828125 233.721679688 452.673828125 c 0xd8
 212.41015625 452.673828125 194.44921875 445.69140625 178.2890625 431.62890625 c 0
 162.340820312 417.751953125 150.87890625 397.913085938 144.614257812 370.775390625 c 2
 59.0771484375 0.275390625 l 1
 -24.7724609375 0.275390625 l 1
 95.654296875 521.900390625 l 1
 177.5546875 521.900390625 l 1
 170.857421875 492.890625 l 1xb8
EndSplineSet
EndChar

StartChar: o
Encoding: 111 111 81
Width: 409
GlyphClass: 2
Flags: MW
HStem: -7.52539 77.0254<112.854 149.807> 452.676 77.0244<224.666 257.856>
VStem: 49.9629 83.8496 284.938 83.8496
LayerCount: 2
Fore
SplineSet
6.2939453125 172.849609375 m 2
 47.037109375 349.325195312 l 2
 60.96484375 409.655273438 85.072265625 455.587890625 120.927734375 485.578125 c 0
 156.413085938 515.2578125 199.77734375 529.700195312 249.553710938 529.700195312 c 0
 298.1171875 529.700195312 333.981445312 515.016601562 355.3125 485.013671875 c 0
 376.842773438 454.73046875 379.641601562 409.016601562 365.861328125 349.325195312 c 2
 325.118164062 172.849609375 l 2
 311.337890625 113.158203125 287.430664062 67.4443359375 251.916992188 37.1611328125 c 0
 216.732421875 7.158203125 174.088867188 -7.525390625 125.525390625 -7.525390625 c 0
 75.7490234375 -7.525390625 39.052734375 6.91796875 17.2724609375 36.5966796875 c 0
 -4.7353515625 66.587890625 -7.6337890625 112.51953125 6.2939453125 172.849609375 c 2
142.333984375 69.5 m 0
 196.444335938 69.5 226.078125 107.052734375 243.0703125 180.651367188 c 2
 280.2109375 341.526367188 l 2
 297.200195312 415.114257812 284.9140625 452.67578125 230.797851562 452.67578125 c 0
 171.841796875 452.67578125 144.662109375 408.994140625 129.0859375 341.526367188 c 2
 91.9453125 180.651367188 l 2
 76.369140625 113.1875 83.3740234375 69.5 142.333984375 69.5 c 0
EndSplineSet
EndChar

StartChar: p
Encoding: 112 112 82
Width: 412
GlyphClass: 2
Flags: MW
HStem: -7.52539 77.0254<127.221 165.956> 452.675 77.0254<250.475 250.684> 501.9 20G<95.6543 179.503 179.503 179.503>
VStem: 58.7383 83.8496 287.861 83.8516
LayerCount: 2
Fore
SplineSet
95.654296875 521.900390625 m 1xb8
 179.502929688 521.900390625 l 1xb8
 172.491210938 491.528320312 l 1
 200.6015625 516.6875 232.870117188 529.700195312 268.080078125 529.700195312 c 0xd8
 310.543945312 529.700195312 342.147460938 514.493164062 361.244140625 484.237304688 c 0
 380.5546875 453.643554688 382.400390625 408.291992188 368.787109375 349.325195312 c 2
 328.043945312 172.849609375 l 2
 314.430664062 113.8828125 291.64453125 68.53125 258.208007812 37.9375 c 0
 225.178710938 7.7177734375 186.885742188 -7.525390625 145.026367188 -7.525390625 c 0
 109.415039062 -7.525390625 82.58203125 4.56640625 65.53515625 28.25 c 1
 24.8623046875 -147.924804688 l 1
 -58.9873046875 -147.924804688 l 1
 95.654296875 521.900390625 l 1xb8
150.131835938 69.5 m 0
 196.345703125 69.5 227.25390625 99.48046875 245.993164062 180.650390625 c 2
 283.134765625 341.525390625 l 2
 307.237304688 445.926757812 262.7734375 452.674804688 238.594726562 452.674804688 c 0xd8
 198.361328125 452.674804688 157.721679688 427.55859375 137.633789062 340.549804688 c 2
 100.493164062 179.674804688 l 2
 86.7919921875 120.330078125 92.0185546875 69.5 150.131835938 69.5 c 0
EndSplineSet
EndChar

StartChar: q
Encoding: 113 113 83
Width: 412
GlyphClass: 2
Flags: MW
HStem: -7.52539 77.0254<113.387 123.831> 452.675 77.0254<212.852 238.818> 501.9 20G<316.004 399.854 399.854 399.854>
VStem: 49.9619 83.8486 279.088 83.8496
LayerCount: 2
Fore
SplineSet
308.9921875 491.528320312 m 1xd8
 316.00390625 521.900390625 l 1
 399.853515625 521.900390625 l 1xb8
 245.211914062 -147.924804688 l 1
 161.362304688 -147.924804688 l 1
 202.03515625 28.25 l 1
 174.052734375 4.56640625 141.635742188 -7.525390625 106.025390625 -7.525390625 c 0
 64.166015625 -7.525390625 32.91015625 7.7177734375 13.8359375 37.9375 c 0
 -5.4755859375 68.53125 -7.3203125 113.8828125 6.29296875 172.849609375 c 2
 47.0361328125 349.325195312 l 2
 60.6494140625 408.291992188 83.4345703125 453.643554688 116.872070312 484.237304688 c 0
 149.939453125 514.493164062 188.564453125 529.700195312 231.028320312 529.700195312 c 0
 266.23828125 529.700195312 292.498046875 516.6875 308.9921875 491.528320312 c 1xd8
136.482421875 69.5 m 0
 176.9375 69.5 217.30859375 94.4111328125 236.993164062 179.674804688 c 2
 274.133789062 340.549804688 l 2
 298.041992188 444.108398438 252.692382812 452.674804688 224.944335938 452.674804688 c 0xd8
 200.758789062 452.674804688 153.184570312 445.919921875 129.083984375 341.525390625 c 2
 91.9423828125 180.650390625 l 2
 73.1953125 99.4482421875 90.2919921875 69.5 136.482421875 69.5 c 0
EndSplineSet
EndChar

StartChar: r
Encoding: 114 114 84
Width: 293
GlyphClass: 2
Flags: MW
HStem: 0.275391 21G<-24.7725 59.0771 -24.7725 -24.7725> 452.675 77.0254<249.928 255.919> 501.9 20G<95.6543 177.554 177.554 177.554>
VStem: 58.7383 83.8496
LayerCount: 2
Fore
SplineSet
170.323242188 490.583984375 m 1xb0
 188.716796875 506.747070312 223.975585938 529.700195312 275.879882812 529.700195312 c 0
 297.443359375 529.700195312 307.491210938 527.034179688 319.384765625 523.877929688 c 1
 300.135742188 440.499023438 l 1
 280.868164062 447.45703125 266.416992188 452.674804688 245.421875 452.674804688 c 0xd0
 220.692382812 452.674804688 199.68359375 445.041992188 181.041015625 429.896484375 c 0
 162.614257812 414.92578125 150.073242188 394.423828125 143.712890625 366.875 c 2
 59.0771484375 0.275390625 l 1
 -24.7724609375 0.275390625 l 1
 95.654296875 521.900390625 l 1
 177.553710938 521.900390625 l 1
 170.323242188 490.583984375 l 1xb0
EndSplineSet
EndChar

StartChar: s
Encoding: 115 115 85
Width: 383
GlyphClass: 2
Flags: MW
HStem: -7.52539 76.0508<96.0532 142.32 96.0532 160.38> 454.626 75.0752<214.923 250.579>
VStem: 40.2158 78.9746 45.0908 83.8486 273.24 83.8486
LayerCount: 2
Fore
SplineSet
307.1171875 145.549804688 m 0xd8
 284.6796875 48.359375 209.858398438 -7.525390625 110.901367188 -7.525390625 c 0
 63.7470703125 -7.525390625 28.4091796875 5.912109375 6.505859375 33.4814453125 c 0
 -15.40234375 61.056640625 -20.5927734375 98.609375 -9.98046875 144.575195312 c 2
 -6.6044921875 159.200195312 l 1
 72.3701171875 159.200195312 l 1
 68.994140625 144.575195312 l 2xe8
 62.4296875 116.141601562 61.6943359375 68.525390625 130.412109375 68.525390625 c 0
 154.227539062 68.525390625 173.653320312 74.69921875 189.700195312 86.3515625 c 0
 205.112304688 97.5419921875 216.204101562 114.950195312 222.143554688 140.674804688 c 0
 226.775390625 160.73828125 225.325195312 175.388671875 219.005859375 185.727539062 c 0
 212.483398438 196.399414062 198.704101562 207.280273438 177.01953125 217.392578125 c 0
 176.984375 217.408203125 119.73046875 243.713867188 119.73046875 243.713867188 c 2
 59.3388671875 271.368164062 35.07421875 318.614257812 50.04296875 383.450195312 c 0
 60.087890625 426.958007812 82.3740234375 462.909179688 116.802734375 489.748046875 c 0
 151.2265625 516.583007812 191.989257812 529.701171875 237.857421875 529.701171875 c 0
 283.745117188 529.701171875 318.159179688 516.397460938 339.469726562 489.14453125 c 0
 360.758789062 461.916992188 365.831054688 425.206054688 355.516601562 380.526367188 c 2
 350.564453125 359.076171875 l 1
 271.58984375 359.076171875 l 1
 274.965820312 373.701171875 l 2
 283.129882812 409.063476562 281.607421875 454.625976562 219.549804688 454.625976562 c 0
 199.87109375 454.625976562 148.94140625 448.637695312 135.017578125 388.326171875 c 0
 125.91796875 348.911132812 145.568359375 330.215820312 174.440429688 316.483398438 c 0
 174.521484375 316.4453125 231.736328125 290.159179688 231.736328125 290.159179688 c 2
 263.63671875 275.513671875 286.606445312 257.659179688 300.076171875 236.072265625 c 0
 313.948242188 213.83984375 315.829101562 183.284179688 307.1171875 145.549804688 c 0xd8
EndSplineSet
EndChar

StartChar: t
Encoding: 116 116 86
Width: 298
GlyphClass: 2
Flags: MW
HStem: 0.275391 76.0498<129.229 198.51 176.085 180.952> 452.675 69.2256<64.4541 112.821 48.4717 128.804 64.4541 196.672 212.654 293.196>
VStem: 91.8877 83.8506
LayerCount: 2
Fore
SplineSet
155.602539062 0.275390625 m 2
 102.856445312 0.275390625 11.44140625 13.5498046875 41.015625 141.650390625 c 2
 112.821289062 452.674804688 l 1
 48.4716796875 452.674804688 l 1
 64.4541015625 521.900390625 l 1
 128.803710938 521.900390625 l 1
 152.391601562 624.069335938 l 1
 245.06640625 662.294921875 l 1
 212.654296875 521.900390625 l 1
 309.178710938 521.900390625 l 1
 293.196289062 452.674804688 l 1
 196.671875 452.674804688 l 1
 125.541992188 144.575195312 l 2
 114.3046875 95.90234375 131.96875 76.3251953125 176.084960938 76.3251953125 c 2
 198.509765625 76.3251953125 l 1
 180.952148438 0.275390625 l 1
 155.602539062 0.275390625 l 2
EndSplineSet
EndChar

StartChar: u
Encoding: 117 117 87
Width: 416
GlyphClass: 2
Flags: MW
HStem: -7.52539 77.0254<131.369 172.173 131.369 179.25> 501.9 20G<95.6543 179.505 179.505 179.505 319.904 403.754 403.754 403.754>
VStem: 58.7383 83.8506 282.988 83.8496
LayerCount: 2
Fore
SplineSet
127.4765625 -7.525390625 m 0
 23.6279296875 -7.525390625 -13.2333984375 50.255859375 13.0439453125 164.075195312 c 2
 95.654296875 521.900390625 l 1
 179.504882812 521.900390625 l 1
 107.249023438 208.924804688 l 2
 95.0703125 156.172851562 92.08984375 119.11328125 97.0283203125 98.583984375 c 0
 101.622070312 79.4921875 116.50390625 69.5 146.234375 69.5 c 0
 198.111328125 69.5 221.400390625 95.234375 247.6484375 208.924804688 c 2
 319.904296875 521.900390625 l 1
 403.75390625 521.900390625 l 1
 321.143554688 164.075195312 l 2
 294.7890625 49.9208984375 231.024414062 -7.525390625 127.4765625 -7.525390625 c 0
EndSplineSet
EndChar

StartChar: v
Encoding: 118 118 88
Width: 372
GlyphClass: 2
Flags: MW
HStem: 0.275391 21G<66.9355 146.757 66.9355 66.9355> 501.9 20G<50.1455 140.618 140.618 140.618 314.898 405.409 405.409 405.409>
LayerCount: 2
Fore
SplineSet
50.1455078125 521.900390625 m 1
 140.618164062 521.900390625 l 1
 142.943359375 152.569335938 l 1
 314.8984375 521.900390625 l 1
 405.409179688 521.900390625 l 1
 146.756835938 0.275390625 l 1
 66.935546875 0.275390625 l 1
 50.1455078125 521.900390625 l 1
EndSplineSet
EndChar

StartChar: w
Encoding: 119 119 89
Width: 574
GlyphClass: 2
Flags: MW
HStem: 0.275391 21G<48.1641 126.53 48.1641 48.1641 288.059 365.389 288.059 288.059> 501.9 20G<50.5449 140.934 140.934 140.934 291.423 362.002 362.002 362.002 514.475 605.88 605.88 605.88>
LayerCount: 2
Fore
SplineSet
50.544921875 521.900390625 m 1
 140.93359375 521.900390625 l 1
 126.717773438 159.478515625 l 1
 291.422851562 521.900390625 l 1
 362.001953125 521.900390625 l 1
 361.142578125 158.99609375 l 1
 514.474609375 521.900390625 l 1
 605.879882812 521.900390625 l 1
 365.388671875 0.275390625 l 1
 288.05859375 0.275390625 l 1
 287.403320312 351.1484375 l 1
 126.530273438 0.275390625 l 1
 48.1640625 0.275390625 l 1
 50.544921875 521.900390625 l 1
EndSplineSet
EndChar

StartChar: x
Encoding: 120 120 90
Width: 351
GlyphClass: 2
Flags: MW
HStem: 0.275391 21G<-72.5605 16.9883 -72.5605 -72.5605 175.32 265.797 175.32 175.32> 501.9 20G<56.6113 147.092 147.092 147.092 285.895 376.642 376.642 376.642>
LayerCount: 2
Fore
SplineSet
175.3203125 0.275390625 m 1
 135.579101562 174.986328125 l 1
 16.98828125 0.275390625 l 1
 -72.560546875 0.275390625 l 1
 113.947265625 271.315429688 l 1
 56.611328125 521.900390625 l 1
 147.091796875 521.900390625 l 1
 182.712890625 367.775390625 l 1
 285.89453125 521.900390625 l 1
 376.641601562 521.900390625 l 1
 203.393554688 275.171875 l 1
 265.796875 0.275390625 l 1
 175.3203125 0.275390625 l 1
EndSplineSet
EndChar

StartChar: y
Encoding: 121 121 91
Width: 372
GlyphClass: 2
Flags: MW
HStem: -149.875 77.0254<-55.3047 -54.5625 -73.0879 -29.9551> 501.9 20G<50.1279 140.545 140.545 140.545 314.938 405.429 405.429 405.429>
LayerCount: 2
Fore
SplineSet
-54.5625 -149.875 m 2
 -73.087890625 -149.875 l 1
 -55.3046875 -72.849609375 l 1
 -29.955078125 -72.849609375 l 2
 21.30859375 -72.849609375 44.421875 -53.0732421875 61.4033203125 -16.1181640625 c 2
 67.8505859375 -2.7119140625 l 1
 50.1279296875 521.900390625 l 1
 140.544921875 521.900390625 l 1
 146.6953125 164.981445312 l 1
 314.9375 521.900390625 l 1
 405.428710938 521.900390625 l 1
 125.336914062 -40.9248046875 l 2
 92.6298828125 -107.743164062 44.6484375 -149.875 -54.5625 -149.875 c 2
EndSplineSet
EndChar

StartChar: z
Encoding: 122 122 92
Width: 377
GlyphClass: 2
Flags: MW
HStem: 0.275391 78<78.8193 253.103> 443.9 78<68.8711 373.529 86.8789 261.161>
VStem: 49.9629 286.65
LayerCount: 2
Fore
SplineSet
68.87109375 443.900390625 m 1
 86.87890625 521.900390625 l 1
 373.529296875 521.900390625 l 1
 357.0546875 450.541015625 l 1
 78.8193359375 78.275390625 l 1
 271.110351562 78.275390625 l 1
 253.102539062 0.275390625 l 1
 -33.5478515625 0.275390625 l 1
 -17.0732421875 71.6337890625 l 1
 261.161132812 443.900390625 l 1
 68.87109375 443.900390625 l 1
EndSplineSet
EndChar

StartChar: braceleft
Encoding: 123 123 93
Width: 310
GlyphClass: 2
Flags: MW
HStem: -81.625 80.9248<84.041 185.603 152.452 166.92> 292.032 78.5068<33.8086 51.9336> 658.399 80.9248<295.941 356.451 309.651 337.768>
VStem: 114.312 87.751
LayerCount: 2
Fore
SplineSet
120.120117188 -81.625 m 2
 47.9619140625 -81.625 21.0478515625 -41.9736328125 39.3544921875 37.3212890625 c 2
 83.0234375 226.470703125 l 2
 88.8203125 251.581054688 87.8330078125 268.107421875 82.552734375 276.94140625 c 0
 74.1904296875 290.93359375 51.6201171875 291.547851562 33.80859375 292.032226562 c 1
 51.93359375 370.5390625 l 1
 69.96875 371.0234375 92.822265625 371.637695312 107.645507812 385.629882812 c 0
 116.90234375 394.3671875 125.754882812 411.564453125 131.870117188 438.048828125 c 2
 173.962890625 620.374023438 l 2
 187.755859375 680.1171875 221.654296875 739.32421875 309.651367188 739.32421875 c 2
 356.451171875 739.32421875 l 1
 337.767578125 658.399414062 l 1
 304.6171875 658.399414062 l 2
 287.264648438 658.399414062 269.178710938 652.709960938 261.489257812 619.399414062 c 2
 223.22265625 453.649414062 l 2
 205.416992188 376.525390625 185.854492188 349.567382812 150.255859375 331.369140625 c 1
 177.76171875 311.341796875 184.176757812 284.524414062 166.723632812 208.924804688 c 2
 127.331054688 38.2998046875 l 2
 119.641601562 4.9912109375 135.096679688 -0.7001953125 152.452148438 -0.7001953125 c 2
 185.602539062 -0.7001953125 l 1
 166.919921875 -81.625 l 1
 120.120117188 -81.625 l 2
EndSplineSet
Substitution2: "'rtla' Right to Left Alternates lookup 0 subtable" braceright
EndChar

StartChar: bar
Encoding: 124 124 94
Width: 270
GlyphClass: 2
Flags: MW
VStem: 98.7129 81.9004
LayerCount: 2
Fore
SplineSet
185.825195312 739.325195312 m 1
 267.725585938 739.325195312 l 1
 78.4189453125 -80.650390625 l 1
 -3.4814453125 -80.650390625 l 1
 185.825195312 739.325195312 l 1
EndSplineSet
EndChar

StartChar: braceright
Encoding: 125 125 95
Width: 310
GlyphClass: 2
Flags: MW
HStem: -81.625 80.9238<-33.7734 -5.65625 -52.4561 -1.59863> 292.035 78.5078<253.188 271.312> 658.402 80.9248<137.076 150.567 118.393 183.876>
VStem: 116.263 88.7256
LayerCount: 2
Fore
SplineSet
-1.5986328125 -0.701171875 m 2
 15.763671875 -0.701171875 33.8427734375 5.0009765625 41.53125 38.3017578125 c 2
 80.9228515625 208.926757812 l 2
 98.6123046875 285.548828125 117.622070312 311.708984375 154.4765625 331.370117188 c 1
 127.032226562 349.232421875 119.373046875 375.473632812 137.421875 453.65234375 c 2
 175.688476562 619.40234375 l 2
 183.37890625 652.7109375 167.922851562 658.40234375 150.567382812 658.40234375 c 2
 118.392578125 658.40234375 l 1
 137.076171875 739.327148438 l 1
 183.875976562 739.327148438 l 2
 256.037109375 739.327148438 282.946289062 699.672851562 264.639648438 620.376953125 c 2
 222.545898438 438.051757812 l 2
 216.431640625 411.567382812 217.344726562 394.369140625 222.567382812 385.631835938 c 0
 230.928710938 371.63671875 253.497070312 371.025390625 271.3125 370.54296875 c 1
 253.1875 292.03515625 l 1
 235.151367188 291.55078125 212.297851562 290.936523438 197.474609375 276.9453125 c 0
 188.115234375 268.111328125 179.497070312 251.584960938 173.700195312 226.474609375 c 2
 130.03125 37.3251953125 l 2
 116.23828125 -22.41796875 82.3408203125 -81.625 -5.65625 -81.625 c 2
 -52.4560546875 -81.625 l 1
 -33.7734375 -0.701171875 l 1
 -1.5986328125 -0.701171875 l 2
EndSplineSet
Substitution2: "'rtla' Right to Left Alternates lookup 0 subtable" braceleft
EndChar

StartChar: asciitilde
Encoding: 126 126 96
Width: 420
GlyphClass: 2
Flags: MW
HStem: 210.875 83.8486<255.979 265.935 255.979 282.394> 260.598 84.8262<117.5 134.468>
LayerCount: 2
Fore
SplineSet
129.90234375 260.59765625 m 0x40
 105.096679688 260.59765625 89.0693359375 242.754882812 58.7119140625 204.491210938 c 1
 1.017578125 245.541015625 l 1
 23.154296875 276.7578125 71.84765625 345.423828125 145.586914062 345.423828125 c 0x40
 168.795898438 345.423828125 185.869140625 340.444335938 219.293945312 314.790039062 c 0
 243.637695312 296.795898438 251.328125 294.723632812 260.629882812 294.723632812 c 0
 271.239257812 294.723632812 280.092773438 297.661132812 288.166015625 303.375 c 0
 299.649414062 311.50390625 313.350585938 327.8984375 331.958984375 351.868164062 c 1
 389.693359375 310.791015625 l 1
 365.654296875 276.399414062 319.614257812 210.875 245.172851562 210.875 c 0x80
 223.5390625 210.875 205.350585938 215.083984375 171.130859375 240.616210938 c 0
 153.416992188 254.573242188 139.034179688 260.59765625 129.90234375 260.59765625 c 0x40
EndSplineSet
EndChar

StartChar: exclamdown
Encoding: 161 161 98
Width: 209
GlyphClass: 2
Flags: MW
HStem: 409.775 112.125<103.454 171.168 77.5684 197.054>
VStem: 60.3691 107.906 66.5381 93.5996 77.5703 72.4932
LayerCount: 2
Fore
SplineSet
103.454101562 521.900390625 m 1xa0
 197.053710938 521.900390625 l 1
 171.16796875 409.775390625 l 1
 77.568359375 409.775390625 l 1
 103.454101562 521.900390625 l 1xa0
143.760742188 334.700195312 m 1x90
 50.5498046875 -147.924804688 l 1
 -57.3564453125 -147.924804688 l 1xc0
 71.267578125 334.700195312 l 1
 143.760742188 334.700195312 l 1x90
EndSplineSet
EndChar

StartChar: cent
Encoding: 162 162 99
Width: 409
GlyphClass: 2
Flags: MW
VStem: 49.9629 83.8496 178.663 69.2246 284.938 83.8506
LayerCount: 2
Fore
SplineSet
285.86328125 526.48828125 m 1
 337.6796875 516.9609375 396.211914062 480.787109375 368.337890625 360.049804688 c 2
 363.161132812 337.625 l 1
 279.310546875 337.625 l 1
 284.486328125 360.047851562 l 2
 295.475585938 407.645507812 288.590820312 434.17578125 267.10546875 445.239257812 c 1
 182.170898438 77.34765625 l 1
 209.08203125 89.3037109375 228.122070312 115.904296875 238.791992188 162.123046875 c 2
 243.969726562 184.547851562 l 1
 327.8203125 184.547851562 l 1
 322.868164062 163.09765625 l 2
 311.479492188 113.76953125 291.557617188 74.267578125 262.141601562 45.529296875 c 0
 234.747070312 18.765625 201.416015625 2.1630859375 163.318359375 -4.3115234375 c 1
 141.8671875 -97.224609375 l 1
 72.642578125 -97.224609375 l 1
 93.8271484375 -5.466796875 l 1
 25.283203125 5.2568359375 -21.7529296875 51.36328125 6.2939453125 172.849609375 c 2
 47.037109375 349.325195312 l 2
 59.7529296875 404.405273438 81.0634765625 447.495117188 112.229492188 477.66015625 c 0
 141.267578125 505.765625 176.599609375 522.434570312 216.93359375 527.768554688 c 1
 236.962890625 614.525390625 l 1
 306.1875 614.525390625 l 1
 285.86328125 526.48828125 l 1
198.419921875 447.575195312 m 1
 159.129882812 432.7578125 139.956054688 388.609375 129.084960938 341.522460938 c 2
 91.9443359375 180.647460938 l 2
 81.0634765625 133.517578125 79.87890625 89.404296875 112.309570312 74.5927734375 c 1
 198.419921875 447.575195312 l 1
EndSplineSet
EndChar

StartChar: sterling
Encoding: 163 163 100
Width: 384
GlyphClass: 2
Flags: MW
HStem: 0.276367 81.8984<86.0195 283.327> 295.7 80.9248<29.9395 70.7324 11.2568 89.415 29.9395 160.432 179.114 274.506> 619.4 80.9248<274.764 297.821>
VStem: 86.0391 89.6992 273.238 85.7998
LayerCount: 2
Fore
SplineSet
130.944335938 167.974609375 m 2
 120.287109375 121.815429688 101.690429688 97.4306640625 86.01953125 82.1748046875 c 1
 302.235351562 82.1748046875 l 1
 283.327148438 0.2763671875 l 1
 -40.3720703125 0.2763671875 l 1
 -21.7646484375 80.8740234375 l 1
 0.9658203125 90.6953125 25.8896484375 101.46484375 41.4697265625 168.950195312 c 2
 70.732421875 295.700195312 l 1
 11.2568359375 295.700195312 l 1
 29.939453125 376.625 l 1
 89.4150390625 376.625 l 1
 126.78125 538.474609375 l 2
 139.155273438 592.0703125 179.2890625 700.325195312 301.62109375 700.325195312 c 0
 345.09375 700.325195312 376.37109375 686.313476562 393.137695312 657.599609375 c 0
 409.743164062 629.1640625 411.623046875 589.76953125 400.23046875 540.424804688 c 2
 398.205078125 531.650390625 l 1
 312.405273438 531.650390625 l 1
 314.430664062 540.424804688 l 2
 329.76171875 606.831054688 310.752929688 619.400390625 284.888671875 619.400390625 c 0
 264.638671875 619.400390625 233.806640625 613.520507812 220.08203125 554.075195312 c 2
 179.114257812 376.625 l 1
 293.188476562 376.625 l 1
 274.505859375 295.700195312 l 1
 160.431640625 295.700195312 l 1
 130.944335938 167.974609375 l 2
EndSplineSet
EndChar

StartChar: currency
Encoding: 164 164 101
Width: 581
GlyphClass: 2
Flags: MW
HStem: 124.1 84.8252<242.156 259.592> 445.85 84.8252<313.273 330.888>
VStem: 91.8877 86.7744 410.712 86.7764
LayerCount: 2
Fore
SplineSet
84.009765625 327.875 m 0
 93.6337890625 369.564453125 112.53125 406.201171875 140.715820312 437.137695312 c 1
 89.2255859375 505.370117188 l 1
 164.502929688 566.528320312 l 1
 215.392578125 499.07421875 l 1
 253.33203125 520.119140625 292.916992188 530.674804688 333.62890625 530.674804688 c 0
 373.772460938 530.674804688 408.166015625 520.095703125 436.340820312 499.045898438 c 1
 519.345703125 566.482421875 l 1
 566.383789062 505.325195312 l 1
 483.37890625 437.888671875 l 1
 496.801757812 404.854492188 498.877929688 368.017578125 489.610351562 327.875 c 0
 480.104492188 286.704101562 461.407226562 249.845703125 433.569335938 217.844726562 c 1
 485.376953125 150.486328125 l 1
 409.970703125 88.2314453125 l 1
 357.9921875 155.811523438 l 1
 318.987304688 134.73828125 279.419921875 124.099609375 239.763671875 124.099609375 c 0
 199.55078125 124.099609375 164.848632812 134.711914062 136.090820312 155.799804688 c 1
 53.1865234375 89.2529296875 l 1
 6.525390625 151.506835938 l 1
 89.2255859375 217.890625 l 1
 76.181640625 249.881835938 74.5087890625 286.724609375 84.009765625 327.875 c 0
402.833984375 327.875 m 0
 410.77734375 362.28515625 406.18359375 390.026367188 389.286132812 412.388671875 c 0
 372.385742188 434.755859375 347.731445312 445.849609375 314.044921875 445.849609375 c 0
 279.6640625 445.849609375 249.756835938 434.7265625 222.918945312 412.432617188 c 0
 196.008789062 390.079101562 178.735351562 362.317382812 170.784179688 327.875 c 0
 162.671875 292.740234375 167.086914062 264.663085938 183.650390625 242.342773438 c 0
 200.194335938 220.047851562 224.965820312 208.924804688 259.346679688 208.924804688 c 0
 293 208.924804688 322.7890625 220.151367188 350.098632812 242.831054688 c 0
 377.438476562 265.534179688 394.889648438 293.465820312 402.833984375 327.875 c 0
EndSplineSet
EndChar

StartChar: yen
Encoding: 165 165 102
Width: 390
GlyphClass: 2
Flags: MW
HStem: 0.275391 21G<71.752 160.478 71.752 71.752> 143.6 75.0752<4.19922 104.841 -13.1338 122.174 210.899 311.541 4.19922 193.566> 266.45 76.0498<32.7861 132.209 32.7861 133.203 15.2285 132.209 258.037 339.903> 670.575 20G<80.9434 180.896 180.896 180.896 372 470.021 470.021 470.021>
VStem: 155.263 88.7256
LayerCount: 2
Fore
SplineSet
193.56640625 143.599609375 m 1
 160.477539062 0.275390625 l 1
 71.751953125 0.275390625 l 1
 104.840820312 143.599609375 l 1
 -13.1337890625 143.599609375 l 1
 4.19921875 218.674804688 l 1
 122.173828125 218.674804688 l 1
 133.203125 266.450195312 l 1
 15.228515625 266.450195312 l 1
 32.7861328125 342.5 l 1
 132.208984375 342.5 l 1
 80.943359375 690.575195312 l 1
 180.896484375 690.575195312 l 1
 210.409179688 402.548828125 l 1
 372 690.575195312 l 1
 470.021484375 690.575195312 l 1
 258.037109375 342.5 l 1
 357.4609375 342.5 l 1
 339.903320312 266.450195312 l 1
 221.928710938 266.450195312 l 1
 210.899414062 218.674804688 l 1
 328.874023438 218.674804688 l 1
 311.541015625 143.599609375 l 1
 193.56640625 143.599609375 l 1
EndSplineSet
EndChar

StartChar: brokenbar
Encoding: 166 166 103
Width: 270
GlyphClass: 2
Flags: MW
VStem: 98.7129 81.9004
LayerCount: 2
Fore
SplineSet
185.825195312 739.325195312 m 1
 267.725585938 739.325195312 l 1
 184.440429688 378.575195312 l 1
 102.540039062 378.575195312 l 1
 185.825195312 739.325195312 l 1
80.2548828125 282.049804688 m 1
 162.155273438 282.049804688 l 1
 78.4189453125 -80.650390625 l 1
 -3.4814453125 -80.650390625 l 1
 80.2548828125 282.049804688 l 1
EndSplineSet
EndChar

StartChar: section
Encoding: 167 167 104
Width: 428
GlyphClass: 2
Flags: MW
HStem: -163.525 79.9502<102.553 126.009 102.553 168.742> 634.025 80.9248<273.096 295.87>
VStem: 59.7109 87.75 72.3867 84.8252 76.2861 88.7256 277.137 88.7256 289.81 87.752
LayerCount: 2
Fore
SplineSet
280.325195312 -8.5 m 0xc4
 273.484375 -38.1328125 242.123046875 -163.525390625 95.3603515625 -163.525390625 c 0
 45.2001953125 -163.525390625 10.376953125 -150.095703125 -6.0537109375 -121.225585938 c 0
 -22.1767578125 -92.8955078125 -22.9912109375 -51.1279296875 -10.44921875 3.2001953125 c 2
 -8.4228515625 11.974609375 l 1
 76.40234375 11.974609375 l 1
 74.3759765625 3.2001953125 l 2xd4
 66.74609375 -29.8515625 66.71484375 -52.5498046875 72.2431640625 -65.0302734375 c 0
 77.412109375 -76.6962890625 90.3134765625 -83.5751953125 114.79296875 -83.5751953125 c 0
 137.225585938 -83.5751953125 152.879882812 -77.2255859375 164.036132812 -66.0517578125 c 0
 175.80078125 -54.267578125 185.250976562 -36.0029296875 191.149414062 -10.451171875 c 0
 202.237304688 37.576171875 193.666015625 55.8203125 174.33984375 69.28125 c 0
 162.690429688 77.39453125 143.875 85.546875 118.1328125 93.2255859375 c 0
 77.921875 105.319335938 51.1064453125 126.444335938 39.5146484375 157.081054688 c 0
 28.087890625 187.283203125 28.642578125 227.427734375 40.126953125 277.173828125 c 0xe4
 57.6396484375 353.030273438 94.05859375 406.03125 149.596679688 431.787109375 c 1
 132.458984375 443.634765625 101.48828125 471.162109375 122.430664062 561.875 c 0
 129.665039062 593.2109375 161.700195312 714.950195312 302.071289062 714.950195312 c 0
 351.073242188 714.950195312 385.03125 700.881835938 400.807617188 671.010742188 c 0
 416.197265625 641.874023438 417.140625 601.0078125 405.1796875 549.200195312 c 2
 403.153320312 540.424804688 l 1
 318.328125 540.424804688 l 1
 320.354492188 549.200195312 l 2
 327.533203125 580.293945312 327.974609375 602.376953125 323.220703125 615.40625 c 0
 318.916015625 627.204101562 307.376953125 634.025390625 284.36328125 634.025390625 c 0
 261.829101562 634.025390625 246.888671875 627.767578125 236.931640625 617.232421875 c 0
 226.12890625 605.801757812 217.08203125 587.540039062 211.15625 561.875 c 0
 204.232421875 531.881835938 206.483398438 511.544921875 215.651367188 499.270507812 c 0
 225.116210938 486.598632812 247.159179688 473.952148438 282.34375 463.083007812 c 0
 322.698242188 451.645507812 349.361328125 430.81640625 360.288085938 400.065429688 c 0
 371.03515625 369.821289062 369.893554688 328.787109375 357.978515625 277.174804688 c 0xca
 340.6953125 202.313476562 305.255859375 150.1953125 251.328125 125.399414062 c 1
 268.829101562 113.46875 302.024414062 85.4873046875 280.325195312 -8.5 c 0xc4
270.225585938 277.173828125 m 0xe2
 278.885742188 314.682617188 279.095703125 341.836914062 272.37109375 358.80859375 c 0
 265.986328125 374.921875 251.193359375 383.44921875 224.563476562 383.44921875 c 0
 197.266601562 383.44921875 177.990234375 374.739257812 163.772460938 358.288085938 c 0
 148.77734375 340.936523438 136.375976562 313.985351562 127.876953125 277.173828125 c 0
 119.532226562 241.028320312 119.602539062 214.59765625 126.633789062 197.579101562 c 0
 133.297851562 181.450195312 148.596679688 172.848632812 175.942382812 172.848632812 c 0
 201.841796875 172.848632812 220.489257812 181.314453125 234.71875 197.579101562 c 0
 249.609375 214.596679688 261.880859375 241.02734375 270.225585938 277.173828125 c 0xe2
172.541015625 681.798828125 m 1024
EndSplineSet
EndChar

StartChar: dieresis
Encoding: 168 168 105
Width: 499
GlyphClass: 2
Flags: MW
HStem: 564.8 101.4<205.019 272.283 181.608 295.693 205.019 329.809 353.219 420.483>
VStem: 134.788 90.6748 282.988 90.6748
LayerCount: 2
Fore
SplineSet
205.018554688 666.200195312 m 1
 295.693359375 666.200195312 l 1
 272.283203125 564.799804688 l 1
 181.608398438 564.799804688 l 1
 205.018554688 666.200195312 l 1
353.21875 666.200195312 m 1
 443.893554688 666.200195312 l 1
 420.483398438 564.799804688 l 1
 329.80859375 564.799804688 l 1
 353.21875 666.200195312 l 1
EndSplineSet
EndChar

StartChar: copyright
Encoding: 169 169 106
Width: 739
GlyphClass: 2
Flags: MW
HStem: -9.47461 65.3232<262.294 343.997 262.294 388.756> 141.649 63.375<322.46 343.131> 479 63.374<385.078 414.01> 625.249 65.3271<416.71 475.46>
VStem: 51.9131 71.1738 252.762 69.2256 427.287 69.2246 625.212 70.2012
LayerCount: 2
Fore
SplineSet
287.901367188 -9.474609375 m 0
 85.59765625 -9.474609375 -2.193359375 127.639648438 46.9609375 340.55078125 c 0
 67.44921875 429.295898438 122.352539062 572.71875 268.037109375 647.939453125 c 0
 323.278320312 676.461914062 383.899414062 690.576171875 449.520507812 690.576171875 c 0
 659.490234375 690.576171875 737.774414062 545.486328125 690.4609375 340.549804688 c 0
 640.653320312 124.80859375 489.610351562 -9.474609375 287.901367188 -9.474609375 c 0
620.259765625 340.548828125 m 0
 641.403320312 432.134765625 635.446289062 501.9609375 603.788085938 551.231445312 c 0
 572.233398438 600.340820312 516.482421875 625.249023438 434.4375 625.249023438 c 0
 352.405273438 625.249023438 285.309570312 600.193359375 231.333984375 550.788085938 c 0
 177.127929688 501.171875 139.127929688 431.481445312 118.134765625 340.548828125 c 0
 96.990234375 248.962890625 102.947265625 179.13671875 134.60546875 129.8671875 c 0
 166.171875 80.740234375 221.606445312 55.8486328125 302.981445312 55.8486328125 c 0
 385.01171875 55.8486328125 452.287109375 80.9052734375 506.598632812 130.333984375 c 0
 561.118164062 179.952148438 599.268554688 249.62890625 620.259765625 340.548828125 c 0
324.740234375 141.649414062 m 0
 262.16796875 141.649414062 208.4296875 169.975585938 233.627929688 279.124023438 c 2
 262.890625 405.874023438 l 2
 272.725585938 448.47265625 302.41015625 542.374023438 417.254882812 542.374023438 c 0
 466.52734375 542.374023438 533.794921875 523.489257812 508.44140625 413.674804688 c 2
 503.939453125 394.174804688 l 1
 434.71484375 394.174804688 l 1
 438.9921875 412.700195312 l 2
 452.87890625 472.8515625 424.420898438 479 403.598632812 479 c 0
 366.557617188 479 344.051757812 457.571289062 330.765625 400.024414062 c 2
 304.204101562 284.973632812 l 2
 290.506835938 225.64453125 304.573242188 205.024414062 340.346679688 205.024414062 c 0
 361.170898438 205.024414062 392.465820312 211.173828125 406.352539062 271.32421875 c 2
 410.854492188 290.82421875 l 1
 480.079101562 290.82421875 l 1
 475.577148438 271.32421875 l 2
 465.961914062 229.673828125 448.137695312 196.866210938 420.96484375 174.49609375 c 0
 394.068359375 152.353515625 361.521484375 141.649414062 324.740234375 141.649414062 c 0
EndSplineSet
EndChar

StartChar: ordfeminine
Encoding: 170 170 107
Width: 297
GlyphClass: 2
Flags: MW
HStem: 414.65 73.124<126.553 180.573> 553.099 62.4014<182.776 237.188 205.014 222.781> 674.975 72.1504<223.877 230.169>
VStem: 36.3125 80.9258 45.0879 76.0498 178.663 80.9248
LayerCount: 2
Fore
SplineSet
221.668945312 674.974609375 m 0xf4
 207.358398438 674.974609375 192.154296875 669.606445312 187.31640625 648.650390625 c 2
 184.165039062 635 l 1
 108.115234375 635 l 1
 110.81640625 646.700195312 l 2xec
 117.9765625 677.713867188 133.325195312 703.075195312 157.16796875 720.961914062 c 0
 180.706054688 738.62109375 208.454101562 747.125 239.30078125 747.125 c 0
 272.744140625 747.125 297.881835938 737.797851562 312.93359375 718.228515625 c 0
 327.955078125 698.698242188 331.096679688 671.73828125 323.515625 638.899414062 c 2
 272.868164062 419.524414062 l 1
 194.868164062 419.524414062 l 1
 198.010742188 433.134765625 l 1
 183.401367188 422.450195312 167.248046875 414.650390625 141.092773438 414.650390625 c 0
 112.013671875 414.650390625 90.41796875 423.685546875 78.490234375 442.559570312 c 0
 66.705078125 461.211914062 65.11328125 486.748046875 72.328125 518 c 0
 79.2236328125 547.868164062 94.703125 572.463867188 118.7578125 589.9375 c 0
 142.69921875 607.328125 171.76953125 615.5 205.013671875 615.5 c 2
 237.188476562 615.5 l 1
 243.715820312 643.775390625 l 2
 249.51953125 668.911132812 238.669921875 674.974609375 221.668945312 674.974609375 c 0xf4
174.549804688 487.774414062 m 0
 186.596679688 487.774414062 208.768554688 492.401367188 216.25390625 524.82421875 c 2
 222.78125 553.098632812 l 1
 199.380859375 553.098632812 l 2
 166.170898438 553.098632812 157.84765625 537.897460938 153.704101562 519.94921875 c 0xf4
 147.3359375 492.365234375 159.942382812 487.774414062 174.549804688 487.774414062 c 0
252.734375 834.874023438 m 1024
EndSplineSet
EndChar

StartChar: guillemotleft
Encoding: 171 171 108
Width: 422
GlyphClass: 2
Flags: W
LayerCount: 2
Fore
SplineSet
236.888671875 466.392578125 m 1
 213.9921875 367.215820312 l 1
 92.7880859375 266.450195312 l 1
 167.46484375 165.684570312 l 1
 144.568359375 66.5068359375 l 1
 -4.84375 266.450195312 l 1
 236.888671875 466.392578125 l 1
396.80859375 466.479492188 m 1
 373.897460938 367.240234375 l 1
 253.60546875 266.450195312 l 1
 327.358398438 165.66015625 l 1
 304.447265625 66.4208984375 l 1
 156.064453125 266.450195312 l 1
 396.80859375 466.479492188 l 1
EndSplineSet
EndChar

StartChar: logicalnot
Encoding: 172 172 109
Width: 420
GlyphClass: 2
Flags: MW
HStem: 257.675 77.0254<35.8604 280.353 18.0781 381.985>
VStem: 304.438 83.8506
LayerCount: 2
Fore
SplineSet
280.352539062 257.674804688 m 1
 18.078125 257.674804688 l 1
 35.8603515625 334.700195312 l 1
 381.985351562 334.700195312 l 1
 339.666992188 151.400390625 l 1
 255.81640625 151.400390625 l 1
 280.352539062 257.674804688 l 1
EndSplineSet
EndChar

StartChar: uni00AD
Encoding: 173 173 110
Width: 376
GlyphClass: 2
Flags: MW
HStem: 307.4 80.9248<56.041 323.032 37.3574 341.716>
VStem: 49.9629 285.675
LayerCount: 2
Fore
SplineSet
56.041015625 388.325195312 m 1
 341.715820312 388.325195312 l 1
 323.032226562 307.400390625 l 1
 37.357421875 307.400390625 l 1
 56.041015625 388.325195312 l 1
EndSplineSet
EndChar

StartChar: registered
Encoding: 174 174 111
Width: 471
GlyphClass: 2
Flags: MW
HStem: 299.6 48.749<216.094 252.975> 559.924 48.75<274.081 287.731 274.081 274.081> 640.849 48.751<288.747 324.959>
VStem: 59.7129 51.6729 175.737 52.6494 261.537 52.6494 368.787 51.6758
LayerCount: 2
Fore
SplineSet
90.55078125 495.575195312 m 0
 103.98046875 553.7421875 131.095703125 601.193359375 172.262695312 636.592773438 c 0
 213.438476562 672 261.7734375 689.599609375 315.720703125 689.599609375 c 0
 370.90234375 689.599609375 411.506835938 672.046875 435.723632812 636.524414062 c 0
 459.864257812 601.115234375 464.720703125 553.703125 451.30078125 495.575195312 c 0
 437.731445312 436.798828125 410.709960938 388.897460938 369.813476562 353.16015625 c 0
 328.84765625 317.361328125 280.268554688 299.599609375 225.681640625 299.599609375 c 0
 171.094726562 299.599609375 130.715820312 317.361328125 106.279296875 353.16015625 c 0
 81.8857421875 388.897460938 76.9814453125 436.798828125 90.55078125 495.575195312 c 0
399.625 495.57421875 m 0
 410.39453125 542.220703125 406.786132812 577.555664062 390.052734375 602.833984375 c 0
 373.36328125 628.045898438 345.454101562 640.848632812 304.463867188 640.848632812 c 0
 262.809570312 640.848632812 228.848632812 627.880859375 200.813476562 602.428710938 c 0
 172.569335938 576.787109375 152.840820312 541.5625 142.223632812 495.57421875 c 0
 131.13671875 447.551757812 134.489257812 411.54296875 150.88671875 386.3203125 c 0
 167.229492188 361.182617188 195.252929688 348.348632812 236.935546875 348.348632812 c 0
 278.561523438 348.348632812 312.536132812 361.451171875 340.65625 387.217773438 c 0
 368.98828125 413.178710938 388.852539062 448.913085938 399.625 495.57421875 c 0
301.911132812 608.673828125 m 2
 322.741210938 608.673828125 370.040039062 603.926757812 355.154296875 539.44921875 c 0
 349.431640625 514.6640625 336.102539062 494.7734375 315.576171875 482.196289062 c 1
 329.024414062 384.423828125 l 1
 316.438476562 384.423828125 l 1
 272.223632812 384.423828125 l 1
 261.58203125 469.249023438 l 1
 253.147460938 469.249023438 l 1
 233.563476562 384.423828125 l 1
 180.9140625 384.423828125 l 1
 232.686523438 608.673828125 l 1
 301.911132812 608.673828125 l 2
278.27734375 518.973632812 m 2
 287.631835938 518.973632812 292.639648438 521.205078125 294.7109375 522.991210938 c 0
 296.930664062 524.90625 300.385742188 530.2734375 302.729492188 540.423828125 c 0
 304.91015625 549.87109375 303.827148438 554.556640625 302.595703125 556.158203125 c 0
 301.364257812 557.758789062 297.177734375 559.923828125 287.731445312 559.923828125 c 2
 274.081054688 559.923828125 l 1
 264.626953125 518.973632812 l 1
 278.27734375 518.973632812 l 2
EndSplineSet
EndChar

StartChar: macron
Encoding: 175 175 112
Width: 499
GlyphClass: 2
Flags: MW
HStem: 576.5 77.0254<200.142 425.135 182.359 442.917>
VStem: 132.838 242.775
LayerCount: 2
Fore
SplineSet
200.141601562 653.525390625 m 1
 442.916992188 653.525390625 l 1
 425.134765625 576.5 l 1
 182.359375 576.5 l 1
 200.141601562 653.525390625 l 1
EndSplineSet
EndChar

StartChar: degree
Encoding: 176 176 113
Width: 354
GlyphClass: 2
Flags: MW
HStem: 441.95 66.2998<206.288 218.281> 634.025 66.2988<241.444 253.425>
VStem: 51.9131 69.2246 242.038 69.2246
LayerCount: 2
Fore
SplineSet
100.083984375 570.649414062 m 0
 108.510742188 607.153320312 128.182617188 638.411132812 158.620117188 663.140625 c 0
 189.057617188 687.869140625 223.192382812 700.32421875 259.696289062 700.32421875 c 0
 296.200195312 700.32421875 324.58203125 687.869140625 343.602539062 663.140625 c 0
 362.622070312 638.411132812 367.860351562 607.153320312 359.43359375 570.649414062 c 0
 351.005859375 534.145507812 331.360351562 503.020507812 300.954101562 478.602539062 c 0
 270.584960938 454.212890625 236.516601562 441.950195312 200.045898438 441.950195312 c 0
 163.575195312 441.950195312 135.168945312 454.212890625 116.061523438 478.602539062 c 0
 96.9306640625 503.020507812 91.65625 534.145507812 100.083984375 570.649414062 c 0
290.208984375 570.650390625 m 0
 294.573242188 589.555664062 292.268554688 604.34765625 283.663085938 616.275390625 c 0
 275.090820312 628.157226562 262.459960938 634.025390625 244.389648438 634.025390625 c 0
 226.318359375 634.025390625 210.979492188 628.157226562 196.920898438 616.275390625 c 0
 182.807617188 604.34765625 173.672851562 589.555664062 169.30859375 570.650390625 c 0
 164.942382812 551.740234375 167.291992188 537.162109375 175.911132812 525.587890625 c 0
 184.532226562 514.009765625 197.22265625 508.25 215.352539062 508.25 c 0
 233.482421875 508.25 248.830078125 514.009765625 262.799804688 525.587890625 c 0
 276.762695312 537.162109375 285.842773438 551.740234375 290.208984375 570.650390625 c 0
EndSplineSet
EndChar

StartChar: plusminus
Encoding: 177 177 114
Width: 420
GlyphClass: 2
Flags: MW
HStem: 23.6748 81.9004<-18.9873 312.13 -37.8955 331.038> 276.2 81.8994<39.3125 154.954 20.4043 173.862 254.787 370.43 39.3125 235.879>
VStem: 174.763 80.9248
LayerCount: 2
Fore
SplineSet
389.337890625 358.099609375 m 1
 370.4296875 276.200195312 l 1
 235.87890625 276.200195312 l 1
 205.041015625 142.625 l 1
 124.116210938 142.625 l 1
 154.954101562 276.200195312 l 1
 20.404296875 276.200195312 l 1
 39.3125 358.099609375 l 1
 173.862304688 358.099609375 l 1
 204.700195312 491.674804688 l 1
 285.625 491.674804688 l 1
 254.787109375 358.099609375 l 1
 389.337890625 358.099609375 l 1
-18.9873046875 105.575195312 m 1
 331.038085938 105.575195312 l 1
 312.129882812 23.6748046875 l 1
 -37.8955078125 23.6748046875 l 1
 -18.9873046875 105.575195312 l 1
EndSplineSet
EndChar

StartChar: uni00B2
Encoding: 178 178 115
Width: 275
GlyphClass: 2
Flags: MW
HStem: 419.525 78<166.528 264.094> 774.425 77.0254<233.097 241.394>
VStem: 34.3633 82.875 165.988 84.8242
LayerCount: 2
Fore
SplineSet
256.560546875 851.450195312 m 0
 322.637695312 851.450195312 353.696289062 807.638671875 339.275390625 745.174804688 c 2
 333.873046875 721.775390625 l 2
 327.129882812 692.56640625 315.0703125 667.224609375 278.064453125 625.396484375 c 0
 278.018554688 625.344726562 197.350585938 532.861328125 166.528320312 497.525390625 c 1
 282.100585938 497.525390625 l 1
 264.09375 419.525390625 l 1
 45.6943359375 419.525390625 l 1
 61.8232421875 489.387695312 l 1
 215.846679688 665.026367188 l 2
 238.573242188 691.377929688 245.2265625 705.21875 249.499023438 723.724609375 c 2
 254.000976562 743.224609375 l 2
 256.55859375 754.3046875 255.842773438 761.973632812 253.056640625 767.116210938 c 0
 250.5390625 771.762695312 245.958007812 774.424804688 236.829101562 774.424804688 c 0
 229.364257812 774.424804688 212.392578125 774.16015625 204.125 738.349609375 c 2
 197.147460938 708.125 l 1
 114.272460938 708.125 l 1
 123.051757812 746.150390625 l 2
 137.543945312 808.92578125 189.485351562 851.450195312 256.560546875 851.450195312 c 0
EndSplineSet
EndChar

StartChar: uni00B3
Encoding: 179 179 116
Width: 272
GlyphClass: 2
Flags: MW
HStem: 413.675 77.0264<164.396 172.194 164.396 182.684> 599.901 77.0244<180.195 188.738 162.413 206.521> 774.426 77.0254<229.788 237.137>
VStem: 30.4648 81.8994 164.04 84.8232
LayerCount: 2
Fore
SplineSet
286.229492188 523.849609375 m 2
 270.171875 454.296875 214.75 413.674804688 150.618164062 413.674804688 c 0
 117.217773438 413.674804688 92.189453125 422.802734375 77.361328125 442.083984375 c 0
 62.6240234375 461.244140625 59.4111328125 487.381835938 66.705078125 518.975585938 c 2
 74.3583984375 552.125976562 l 1
 156.2578125 552.125976562 l 1
 149.0546875 520.92578125 l 2
 142.120117188 490.88671875 161.364257812 490.701171875 167.427734375 490.701171875 c 0
 176.959960938 490.701171875 194.087890625 492.151367188 202.08203125 526.776367188 c 2
 210.184570312 561.875976562 l 2
 217.771484375 594.736328125 205.984375 599.901367188 188.73828125 599.901367188 c 2
 162.413085938 599.901367188 l 1
 180.1953125 676.92578125 l 1
 206.520507812 676.92578125 l 2
 219.606445312 676.92578125 235.624023438 680.512695312 242.674804688 711.05078125 c 2
 249.427734375 740.30078125 l 2
 257.090820312 773.493164062 241.342773438 774.42578125 232.930664062 774.42578125 c 0
 226.64453125 774.42578125 208.555664062 774.42578125 201.578125 744.201171875 c 2
 194.375 713.000976562 l 1
 111.5 713.000976562 l 1
 119.377929688 747.125976562 l 2
 133.84375 809.782226562 184.541992188 851.451171875 251.6875 851.451171875 c 0
 284.52734375 851.451171875 309.323242188 842.084960938 324.344726562 822.5546875 c 0
 339.366210938 803.024414062 342.508789062 776.065429688 334.926757812 743.225585938 c 2
 329.524414062 719.826171875 l 2
 319.512695312 676.4609375 298.674804688 655.046875 277.950195312 642.272460938 c 1
 293.307617188 630.671875 306.352539062 611.013671875 294.107421875 557.974609375 c 2
 286.229492188 523.849609375 l 2
EndSplineSet
EndChar

StartChar: acute
Encoding: 180 180 117
Width: 499
GlyphClass: 2
Flags: MW
HStem: 561.875 143.325<210.805 440.598 210.805 440.598>
VStem: 164.66 196.703
LayerCount: 2
Fore
SplineSet
345 705.200195312 m 1
 440.59765625 705.200195312 l 1
 286.404296875 561.875 l 1
 210.8046875 561.875 l 1
 345 705.200195312 l 1
EndSplineSet
EndChar

StartChar: uni00B5
Encoding: 181 181 118
Width: 413
GlyphClass: 2
Flags: MW
HStem: -7.52539 76.0508<132.375 136.261> 0.275391 21G<199.478 280.402 199.478 199.478> 501.9 20G<95.6543 178.529 178.529 178.529 316.979 400.829 400.829 400.829>
VStem: 58.7383 82.875 280.062 83.8506
LayerCount: 2
Fore
SplineSet
205.815429688 27.7265625 m 1x78
 191.021484375 14.919921875 158.696289062 -7.525390625 113.826171875 -7.525390625 c 0
 92.1298828125 -7.525390625 74.24609375 -2.4140625 60.849609375 7.9541015625 c 1
 24.412109375 -149.875 l 1
 -59.4375 -149.875 l 1
 95.654296875 521.900390625 l 1
 178.529296875 521.900390625 l 1
 92.5419921875 149.450195312 l 2
 86.103515625 121.560546875 88.3388671875 101.770507812 97.587890625 88.6572265625 c 0
 107.02734375 75.2724609375 121.666992188 68.525390625 143.083984375 68.525390625 c 0xb8
 163.670898438 68.525390625 181.314453125 75.451171875 197.541015625 89.5693359375 c 0
 213.540039062 103.490234375 224.88671875 123.008789062 230.991210938 149.450195312 c 2
 316.978515625 521.900390625 l 1
 400.829101562 521.900390625 l 1
 280.40234375 0.275390625 l 1
 199.477539062 0.275390625 l 1
 205.815429688 27.7265625 l 1x78
EndSplineSet
EndChar

StartChar: paragraph
Encoding: 182 182 119
Width: 518
GlyphClass: 2
Flags: MW
HStem: 609.65 80.9248<360.638 413.288 360.638 360.638>
VStem: 59.7129 243.75 221.562 81.9004 356.113 81.8994
LayerCount: 2
Fore
SplineSet
86.2744140625 477.049804688 m 0xd0
 112.962890625 592.649414062 210.1171875 690.575195312 337.395507812 690.575195312 c 2
 513.870117188 690.575195312 l 1
 320.287109375 -147.924804688 l 1
 238.387695312 -147.924804688 l 1
 413.288085938 609.650390625 l 1
 360.637695312 609.650390625 l 1
 185.737304688 -147.924804688 l 1
 103.836914062 -147.924804688 l 1
 198.818359375 263.486328125 l 1xb0
 152.91796875 269.786132812 119.159179688 292.245117188 98.583984375 330.323242188 c 0
 76.9423828125 370.379882812 73.0048828125 419.575195312 86.2744140625 477.049804688 c 0xd0
EndSplineSet
EndChar

StartChar: periodcentered
Encoding: 183 183 120
Width: 165
GlyphClass: 2
Flags: MW
HStem: 220.625 104.325<32.6338 102.149 8.54883 126.234>
VStem: 41.1875 93.6006
LayerCount: 2
Fore
SplineSet
32.6337890625 324.950195312 m 1
 126.234375 324.950195312 l 1
 102.149414062 220.625 l 1
 8.548828125 220.625 l 1
 32.6337890625 324.950195312 l 1
EndSplineSet
EndChar

StartChar: cedilla
Encoding: 184 184 121
Width: 499
GlyphClass: 2
Flags: MW
HStem: -147.925 177.45<58.4492 255.692 58.4492 255.692>
VStem: 176.175 156.275
LayerCount: 2
Fore
SplineSet
255.692382812 29.525390625 m 1
 151.967773438 -147.924804688 l 1
 58.44921875 -147.924804688 l 1
 174.075195312 29.525390625 l 1
 255.692382812 29.525390625 l 1
EndSplineSet
EndChar

StartChar: uni00B9
Encoding: 185 185 122
Width: 205
GlyphClass: 2
Flags: MW
HStem: 692.702 21G<98.0361 98.0361>
VStem: 82.1377 86.7754
LayerCount: 2
Fore
SplineSet
98.0361328125 692.702148438 m 1
 121.03515625 792.323242188 l 1
 199.2890625 844.625 l 1
 280.3359375 844.625 l 1
 182.194335938 419.525390625 l 1
 95.4189453125 419.525390625 l 1
 169.741210938 741.452148438 l 1
 98.0361328125 692.702148438 l 1
EndSplineSet
EndChar

StartChar: ordmasculine
Encoding: 186 186 123
Width: 298
GlyphClass: 2
Flags: MW
HStem: 414.65 75.0742<179.041 188.071 179.041 220.516> 673.025 74.0996<225.534 230.392>
VStem: 41.1875 80.9258 185.488 80.9248
LayerCount: 2
Fore
SplineSet
166.443359375 414.650390625 m 0
 109.731445312 414.650390625 59.1767578125 439.919921875 82.3798828125 540.424804688 c 2
 101.288085938 622.325195312 l 2
 110.998046875 664.381835938 127.465820312 696.54296875 152.51953125 717.197265625 c 0
 177.172851562 737.521484375 207.8671875 747.125 243.201171875 747.125 c 0
 350.678710938 747.125 335.262695312 660.21875 326.513671875 622.325195312 c 2
 307.60546875 540.424804688 l 2
 299.267578125 504.310546875 274.588867188 414.650390625 166.443359375 414.650390625 c 0
183.775390625 489.724609375 m 0
 192.366210938 489.724609375 215.004882812 489.8515625 226.456054688 539.450195312 c 2
 245.814453125 623.299804688 l 2
 257.263671875 672.893554688 234.689453125 673.025390625 226.09375 673.025390625 c 0
 216.627929688 673.025390625 193.772460938 672.391601562 182.439453125 623.299804688 c 2
 163.081054688 539.450195312 l 2
 151.748046875 490.361328125 174.306640625 489.724609375 183.775390625 489.724609375 c 0
256.634765625 834.875 m 1024
EndSplineSet
EndChar

StartChar: guillemotright
Encoding: 187 187 124
Width: 422
GlyphClass: 2
Flags: W
LayerCount: 2
Fore
SplineSet
59.9423828125 367.215820312 m 1
 82.8388671875 466.392578125 l 1
 232.250976562 266.450195312 l 1
 -9.4814453125 66.5068359375 l 1
 13.4150390625 165.684570312 l 1
 134.618164062 266.450195312 l 1
 59.9423828125 367.215820312 l 1
220.817382812 367.215820312 m 1
 243.734375 466.479492188 l 1
 392.1171875 266.450195312 l 1
 151.373046875 66.4208984375 l 1
 174.290039062 165.684570312 l 1
 295.493164062 266.450195312 l 1
 220.817382812 367.215820312 l 1
EndSplineSet
EndChar

StartChar: onequarter
Encoding: 188 188 125
Width: 631
GlyphClass: 3
Flags: MW
HStem: 0.275391 21G<45.6221 45.6221 45.6221 125.699 413.978 413.978 413.978 499.777> 72.4248 78<407.112 430.635 534.442 546.659 407.112 516.435> 670.575 20G<163.724 244.771 244.771 244.771 453.098 533.176 533.176 533.176>
VStem: 82.1377 86.7754 497.488 85.7998
LayerCount: 2
Fore
SplineSet
62.470703125 538.65234375 m 1
 85.4697265625 638.272460938 l 1
 163.723632812 690.575195312 l 1
 244.770507812 690.575195312 l 1
 146.62890625 265.474609375 l 1
 59.853515625 265.474609375 l 1
 134.17578125 587.40234375 l 1
 62.470703125 538.65234375 l 1
45.6220703125 0.275390625 m 1
 453.09765625 690.575195312 l 1
 533.17578125 690.575195312 l 1
 125.69921875 0.275390625 l 1
 45.6220703125 0.275390625 l 1
534.442382812 150.424804688 m 1
 564.666992188 150.424804688 l 1
 546.659179688 72.4248046875 l 1
 516.434570312 72.4248046875 l 1
 499.77734375 0.275390625 l 1
 413.977539062 0.275390625 l 1
 430.634765625 72.4248046875 l 1
 299.984375 72.4248046875 l 1
 316.2890625 143.05078125 l 1
 473.57421875 425.375 l 1
 560.288085938 425.375 l 1
 407.112304688 150.424804688 l 1
 448.642578125 150.424804688 l 1
 470.251953125 244.025390625 l 1
 556.051757812 244.025390625 l 1
 534.442382812 150.424804688 l 1
EndSplineSet
Ligature2: "'frac' Diagonal Fractions lookup 2 subtable" one slash four
EndChar

StartChar: onehalf
Encoding: 189 189 126
Width: 639
GlyphClass: 3
Flags: MW
HStem: 0.275391 78<433.412 530.978> 355.175 77.0254<499.979 508.276> 670.575 20G<163.724 244.771 244.771 244.771 453.098 533.176 533.176 533.176>
VStem: 82.1377 86.7754 398.038 82.875 529.663 84.8252
LayerCount: 2
Fore
SplineSet
62.470703125 538.65234375 m 1
 85.4697265625 638.272460938 l 1
 163.723632812 690.575195312 l 1
 244.770507812 690.575195312 l 1
 146.62890625 265.474609375 l 1
 59.853515625 265.474609375 l 1
 134.17578125 587.40234375 l 1
 62.470703125 538.65234375 l 1
533.17578125 690.575195312 m 1
 125.69921875 0.275390625 l 1
 45.6220703125 0.275390625 l 1
 453.09765625 690.575195312 l 1
 533.17578125 690.575195312 l 1
523.4453125 432.200195312 m 0
 589.522460938 432.200195312 620.581054688 388.388671875 606.159179688 325.924804688 c 2
 600.7578125 302.525390625 l 2
 593.995117188 273.235351562 581.892578125 247.916015625 544.948242188 206.146484375 c 0
 544.903320312 206.095703125 464.234375 113.611328125 433.412109375 78.275390625 c 1
 548.985351562 78.275390625 l 1
 530.977539062 0.275390625 l 1
 312.577148438 0.275390625 l 1
 328.706054688 70.1376953125 l 1
 482.731445312 245.776367188 l 2
 505.456054688 272.127929688 512.110351562 285.96875 516.381835938 304.474609375 c 2
 520.883789062 323.974609375 l 2
 523.442382812 335.0546875 522.7265625 342.723632812 519.940429688 347.866210938 c 0
 517.421875 352.512695312 512.840820312 355.174804688 503.711914062 355.174804688 c 0
 496.247070312 355.174804688 479.276367188 354.91015625 471.008789062 319.099609375 c 2
 464.03125 288.875 l 1
 381.15625 288.875 l 1
 389.934570312 326.900390625 l 2
 404.427734375 389.67578125 456.369140625 432.200195312 523.4453125 432.200195312 c 0
EndSplineSet
Ligature2: "'frac' Diagonal Fractions lookup 2 subtable" one slash two
EndChar

StartChar: threequarters
Encoding: 190 190 127
Width: 657
GlyphClass: 3
Flags: MW
HStem: 0.274414 21G<95.3486 95.3486 95.3486 175.427 440.304 440.304 440.304 526.104> 72.4238 78<433.438 456.961 560.768 572.986 433.438 542.761> 259.624 77.0264<128.83 136.627 128.83 147.112> 445.851 77.0254<144.63 153.172 126.847 170.955> 620.376 77.0254<194.221 201.57>
VStem: 30.4639 81.8994 164.039 84.8242 523.814 85.7998
LayerCount: 2
Fore
SplineSet
250.6640625 369.799804688 m 2
 234.604492188 300.236328125 179.170898438 259.624023438 115.053710938 259.624023438 c 0
 81.6533203125 259.624023438 56.625 268.751953125 41.796875 288.033203125 c 0
 27.0595703125 307.192382812 23.8447265625 333.330078125 31.138671875 364.924804688 c 2
 38.79296875 398.075195312 l 1
 120.692382812 398.075195312 l 1
 113.48828125 366.875 l 2
 106.553710938 336.8359375 125.797851562 336.650390625 131.861328125 336.650390625 c 0
 141.393554688 336.650390625 158.521484375 338.100585938 166.514648438 372.724609375 c 2
 174.618164062 407.825195312 l 2
 182.205078125 440.685546875 170.41796875 445.850585938 153.171875 445.850585938 c 2
 126.846679688 445.850585938 l 1
 144.629882812 522.875976562 l 1
 170.955078125 522.875976562 l 2
 184.041015625 522.875976562 200.05859375 526.462890625 207.108398438 557.000976562 c 2
 213.861328125 586.250976562 l 2
 221.524414062 619.443359375 205.776367188 620.375976562 197.364257812 620.375976562 c 0
 191.078125 620.375976562 172.989257812 620.375976562 166.01171875 590.151367188 c 2
 158.80859375 558.951171875 l 1
 75.93359375 558.951171875 l 1
 83.8115234375 593.076171875 l 2
 98.27734375 655.732421875 148.975585938 697.401367188 216.12109375 697.401367188 c 0
 248.9609375 697.401367188 273.7578125 688.03515625 288.779296875 668.504882812 c 0
 303.799804688 648.974609375 306.942382812 622.015625 299.360351562 589.17578125 c 2
 293.958984375 565.776367188 l 2
 283.946289062 522.41015625 263.108398438 500.997070312 242.383789062 488.22265625 c 1
 257.7109375 476.645507812 270.797851562 457.010742188 258.541992188 403.924804688 c 2
 250.6640625 369.799804688 l 2
95.3486328125 0.2744140625 m 1
 502.825195312 690.57421875 l 1
 582.90234375 690.57421875 l 1
 175.426757812 0.2744140625 l 1
 95.3486328125 0.2744140625 l 1
560.767578125 150.423828125 m 1
 590.993164062 150.423828125 l 1
 572.986328125 72.423828125 l 1
 542.760742188 72.423828125 l 1
 526.103515625 0.2744140625 l 1
 440.303710938 0.2744140625 l 1
 456.9609375 72.423828125 l 1
 326.311523438 72.423828125 l 1
 342.616210938 143.049804688 l 1
 499.901367188 425.374023438 l 1
 586.615234375 425.374023438 l 1
 433.4375 150.423828125 l 1
 474.967773438 150.423828125 l 1
 496.578125 244.024414062 l 1
 582.377929688 244.024414062 l 1
 560.767578125 150.423828125 l 1
EndSplineSet
Ligature2: "'frac' Diagonal Fractions lookup 2 subtable" three slash four
EndChar

StartChar: questiondown
Encoding: 191 191 128
Width: 364
GlyphClass: 2
Flags: MW
HStem: -159.625 80.9258<75.1084 100.639 75.1084 145.452> 409.775 112.125<179.504 247.218 153.618 273.104>
VStem: 37.2881 88.7236 142.588 93.5996 254.712 88.8184
LayerCount: 2
Fore
SplineSet
179.50390625 521.900390625 m 1
 273.103515625 521.900390625 l 1
 247.217773438 409.775390625 l 1
 153.618164062 409.775390625 l 1
 179.50390625 521.900390625 l 1
44.3017578125 8.076171875 m 0
 26.0458984375 -71.0009765625 62.5732421875 -78.69921875 87.6435546875 -78.69921875 c 0
 113.633789062 -78.69921875 131.1171875 -70.380859375 143.524414062 -54.869140625 c 0
 156.734375 -38.3544921875 169.028320312 -9.13671875 178.62890625 32.4501953125 c 2
 180.655273438 41.224609375 l 1
 269.473632812 41.224609375 l 1
 256.969726562 -10.552734375 220.967773438 -159.625 69.9365234375 -159.625 c 0
 21.365234375 -159.625 -13.8076171875 -144.750976562 -33.4375 -114.206054688 c 0
 -52.904296875 -83.91796875 -56.158203125 -42.7587890625 -44.421875 8.0751953125 c 0
 -33.103515625 57.099609375 -14.8896484375 89.546875 39.6865234375 155.885742188 c 2
 85.619140625 211.403320312 l 2
 114.2578125 246.454101562 122.567382812 262.618164062 130.880859375 298.625 c 2
 140.78515625 341.525390625 l 1
 229.510742188 341.525390625 l 1
 218.705078125 294.724609375 l 2
 207.196289062 244.873046875 194.073242188 222.069335938 153.530273438 174.161132812 c 0
 153.487304688 174.110351562 99.642578125 109.7734375 99.642578125 109.7734375 c 2
 64.3876953125 67.9912109375 52.6689453125 44.3173828125 44.3017578125 8.076171875 c 0
EndSplineSet
EndChar

StartChar: Agrave
Encoding: 192 192 129
Width: 460
GlyphClass: 2
Flags: MW
HStem: 0.275391 21G<-76.2354 -76.2354 -76.2354 16.2051 285.249 285.249 285.249 378.665> 171.875 78.9746<136.935 280.219 136.935 281.966 98.7227 280.219> 670.575 20G<271.215 349.951 349.951 349.951>
LayerCount: 2
Fore
SplineSet
-76.2353515625 0.275390625 m 1
 271.21484375 690.575195312 l 1
 349.951171875 690.575195312 l 1
 378.665039062 0.275390625 l 1
 285.249023438 0.275390625 l 1
 281.965820312 171.875 l 1
 98.72265625 171.875 l 1
 16.205078125 0.275390625 l 1
 -76.2353515625 0.275390625 l 1
136.934570312 250.849609375 m 1
 280.21875 250.849609375 l 1
 274.931640625 538.262695312 l 1
 136.934570312 250.849609375 l 1
226.262695312 873.875 m 1
 321.861328125 873.875 l 1
 389.877929688 730.549804688 l 1
 314.278320312 730.549804688 l 1
 226.262695312 873.875 l 1
EndSplineSet
EndChar

StartChar: Aacute
Encoding: 193 193 130
Width: 460
GlyphClass: 2
Flags: MW
HStem: 0.275391 21G<-76.2354 -76.2354 -76.2354 16.2051 285.249 285.249 285.249 378.665> 171.875 78.9746<136.935 280.219 136.935 281.966 98.7227 280.219> 670.575 20G<271.215 349.951 349.951 349.951>
LayerCount: 2
Fore
SplineSet
-76.2353515625 0.275390625 m 1
 271.21484375 690.575195312 l 1
 349.951171875 690.575195312 l 1
 378.665039062 0.275390625 l 1
 285.249023438 0.275390625 l 1
 281.965820312 171.875 l 1
 98.72265625 171.875 l 1
 16.205078125 0.275390625 l 1
 -76.2353515625 0.275390625 l 1
136.934570312 250.849609375 m 1
 280.21875 250.849609375 l 1
 274.931640625 538.262695312 l 1
 136.934570312 250.849609375 l 1
375.166015625 873.875 m 1
 470.764648438 873.875 l 1
 316.571289062 730.549804688 l 1
 240.971679688 730.549804688 l 1
 375.166015625 873.875 l 1
EndSplineSet
EndChar

StartChar: Acircumflex
Encoding: 194 194 131
Width: 460
GlyphClass: 2
Flags: MW
HStem: 0.275391 21G<-76.2354 -76.2354 -76.2354 16.2051 285.249 285.249 285.249 378.665> 171.875 78.9746<136.935 280.219 136.935 281.966 98.7227 280.219> 670.575 20G<271.215 349.951 349.951 349.951>
LayerCount: 2
Fore
SplineSet
-76.2353515625 0.275390625 m 1
 271.21484375 690.575195312 l 1
 349.951171875 690.575195312 l 1
 378.665039062 0.275390625 l 1
 285.249023438 0.275390625 l 1
 281.965820312 171.875 l 1
 98.72265625 171.875 l 1
 16.205078125 0.275390625 l 1
 -76.2353515625 0.275390625 l 1
136.934570312 250.849609375 m 1
 280.21875 250.849609375 l 1
 274.931640625 538.262695312 l 1
 136.934570312 250.849609375 l 1
317.9140625 879.724609375 m 1
 389.534179688 879.724609375 l 1
 463.067382812 722.75 l 1
 376.331054688 722.75 l 1
 338.1875 804.055664062 l 1
 261.600585938 722.75 l 1
 175.194335938 722.75 l 1
 317.9140625 879.724609375 l 1
EndSplineSet
EndChar

StartChar: Atilde
Encoding: 195 195 132
Width: 460
GlyphClass: 2
Flags: MW
HStem: 0.275391 21G<-76.2354 -76.2354 -76.2354 16.2051 285.249 285.249 285.249 378.665> 171.875 78.9746<136.935 280.219 136.935 281.966 98.7227 280.219> 670.575 20G<271.215 349.951 349.951 349.951> 726.65 82.875<355.152 398.462> 760.775 83.8496<267.974 310.4>
LayerCount: 2
Fore
SplineSet
-76.2353515625 0.275390625 m 1xe0
 271.21484375 690.575195312 l 1
 349.951171875 690.575195312 l 1
 378.665039062 0.275390625 l 1
 285.249023438 0.275390625 l 1
 281.965820312 171.875 l 1
 98.72265625 171.875 l 1
 16.205078125 0.275390625 l 1
 -76.2353515625 0.275390625 l 1xe0
136.934570312 250.849609375 m 1
 280.21875 250.849609375 l 1
 274.931640625 538.262695312 l 1
 136.934570312 250.849609375 l 1
301.787109375 844.625 m 0xe8
 319.012695312 844.625 329.938476562 841.512695312 350.901367188 825.686523438 c 0
 370.48828125 810.899414062 378.979492188 809.525390625 389.234375 809.525390625 c 0
 407.689453125 809.525390625 414.90625 816.119140625 463.380859375 860.408203125 c 1
 441.440429688 765.374023438 l 1
 414.854492188 740.598632812 395.918945312 726.650390625 364.250976562 726.650390625 c 0xf0
 346.053710938 726.650390625 336.4296875 729.772460938 310.822265625 746.325195312 c 0
 289.920898438 760.08203125 287.563476562 760.775390625 279.501953125 760.775390625 c 0
 256.446289062 760.775390625 244.65625 749.53515625 200.999023438 707.918945312 c 1
 223.688476562 806.194335938 l 1
 253.801757812 831.752929688 272.57421875 844.625 301.787109375 844.625 c 0xe8
EndSplineSet
EndChar

StartChar: Adieresis
Encoding: 196 196 133
Width: 460
GlyphClass: 2
Flags: MW
HStem: 0.275391 21G<-76.2354 -76.2354 -76.2354 16.2051 285.249 285.249 285.249 378.665> 171.875 78.9746<136.935 280.219 136.935 281.966 98.7227 280.219> 670.575 20G<271.215 349.951 349.951 349.951> 733.475 101.4<224.46 291.725 201.05 315.135 224.46 349.25 372.66 439.925>
VStem: 115.288 90.6748 263.488 90.6748
LayerCount: 2
Fore
SplineSet
-76.2353515625 0.275390625 m 1
 271.21484375 690.575195312 l 1
 349.951171875 690.575195312 l 1
 378.665039062 0.275390625 l 1
 285.249023438 0.275390625 l 1
 281.965820312 171.875 l 1
 98.72265625 171.875 l 1
 16.205078125 0.275390625 l 1
 -76.2353515625 0.275390625 l 1
136.934570312 250.849609375 m 1
 280.21875 250.849609375 l 1
 274.931640625 538.262695312 l 1
 136.934570312 250.849609375 l 1
224.459960938 834.875 m 1
 315.134765625 834.875 l 1
 291.724609375 733.474609375 l 1
 201.049804688 733.474609375 l 1
 224.459960938 834.875 l 1
372.66015625 834.875 m 1
 463.334960938 834.875 l 1
 439.924804688 733.474609375 l 1
 349.25 733.474609375 l 1
 372.66015625 834.875 l 1
EndSplineSet
EndChar

StartChar: Aring
Encoding: 197 197 134
Width: 460
GlyphClass: 2
Flags: MW
HStem: 0.275391 21G<285.249 378.665 285.249 285.249> 171.876 78.9746<98.7227 280.219> 803.677 54.5996<335.434 349.224>
VStem: 139.663 56.5498 273.238 57.5244
LayerCount: 2
Fore
SplineSet
423.27734375 762.725585938 m 0
 413.583007812 720.733398438 383.631835938 690.953125 350.526367188 676.750976562 c 1
 378.665039062 0.275390625 l 1
 285.249023438 0.275390625 l 1
 281.965820312 171.875 l 1
 220.884765625 171.875 159.803710938 171.875976562 98.72265625 171.875976562 c 1
 16.205078125 0.2763671875 l 1
 -76.2353515625 0.2763671875 l 1
 264.311523438 676.860351562 l 1
 240.892578125 689.955078125 221.965820312 718.494140625 232.177734375 762.725585938 c 0
 238.344726562 789.4375 252.681640625 812.541015625 274.774414062 830.780273438 c 0
 296.916015625 849.059570312 322.0546875 858.276367188 348.8125 858.276367188 c 0
 376.157226562 858.276367188 397.515625 849.115234375 411.569335938 830.841796875 c 0
 425.586914062 812.6171875 429.455078125 789.484375 423.27734375 762.725585938 c 0
288.727539062 762.725585938 m 0
 283.192382812 738.750976562 294.755859375 722.750976562 317.524414062 722.750976562 c 0
 342.716796875 722.750976562 360.500976562 739.977539062 365.752929688 762.725585938 c 0
 370.780273438 784.500976562 362.241210938 803.676757812 336.20703125 803.676757812 c 0
 312.618164062 803.676757812 294.05859375 785.814453125 288.727539062 762.725585938 c 0
136.934570312 250.850585938 m 1
 280.21875 250.850585938 l 1
 274.931640625 538.263671875 l 1
 136.934570312 250.850585938 l 1
EndSplineSet
EndChar

StartChar: AE
Encoding: 198 198 135
Width: 682
GlyphClass: 2
Flags: MW
HStem: 0.275391 80.9248<369.285 570.952> 167.975 79.9502<178.324 301.569 125.998 320.027> 310.325 81.8994<441.091 610.358 422.184 629.266> 609.65 80.9248<491.288 711.638 491.288 491.288>
VStem: 346.363 87.75
LayerCount: 2
Fore
SplineSet
15.130859375 0.275390625 m 1
 -78.150390625 0.275390625 l 1
 382.348632812 690.575195312 l 1
 730.3203125 690.575195312 l 1
 711.637695312 609.650390625 l 1
 491.288085938 609.650390625 l 1
 441.090820312 392.224609375 l 1
 629.265625 392.224609375 l 1
 610.358398438 310.325195312 l 1
 422.18359375 310.325195312 l 1
 369.28515625 81.2001953125 l 1
 589.634765625 81.2001953125 l 1
 570.952148438 0.275390625 l 1
 262.852539062 0.275390625 l 1
 301.569335938 167.974609375 l 1
 125.998046875 167.974609375 l 1
 15.130859375 0.275390625 l 1
320.02734375 247.924804688 m 1
 396.166015625 577.720703125 l 1
 178.32421875 247.924804688 l 1
 320.02734375 247.924804688 l 1
EndSplineSet
EndChar

StartChar: Ccedilla
Encoding: 199 199 136
Width: 477
GlyphClass: 2
Flags: MW
HStem: 617.45 81.8994<293.317 319.532>
VStem: 51.9121 88.7236 345.386 86.7754
LayerCount: 2
Fore
SplineSet
104.169921875 204.049804688 m 2
 78.5390625 93.03125 130.110351562 74.375 178.557617188 74.375 c 0
 210.451171875 74.375 236.6484375 84.26171875 258.77734375 103.673828125 c 0
 280.588867188 122.806640625 297.185546875 153.223632812 307.119140625 196.25 c 2
 311.170898438 213.799804688 l 1
 397.946289062 213.799804688 l 1
 393.669921875 195.275390625 l 2
 380.780273438 139.444335938 358.260742188 94.353515625 325.280273438 60.818359375 c 0
 293.87109375 28.8798828125 256.604492188 8.02734375 214.510742188 -1.38671875 c 1
 128.555664062 -147.924804688 l 1
 35.048828125 -147.924804688 l 1
 127.985351562 -5.2861328125 l 1
 82.8955078125 0.7158203125 49.0830078125 20.1298828125 27.6162109375 52.96484375 c 0
 4.111328125 88.9189453125 0.6640625 140.020507812 15.671875 205.025390625 c 2
 80.4990234375 485.825195312 l 2
 96.56640625 555.420898438 126.049804688 609.184570312 170.09375 645.530273438 c 0
 213.702148438 681.516601562 264.764648438 699.349609375 321.870117188 699.349609375 c 0
 377.004882812 699.349609375 419.098632812 682.360351562 446.780273438 648.149414062 c 0
 474.857421875 613.44921875 480.2109375 561.671875 464.7265625 494.599609375 c 2
 460.674804688 477.049804688 l 1
 371.952148438 477.049804688 l 1
 375.553710938 492.650390625 l 2
 385.951171875 537.686523438 383.388671875 569.04296875 370.176757812 588.096679688 c 0
 356.655273438 607.599609375 335.126953125 617.450195312 303.936523438 617.450195312 c 0
 237.0859375 617.450195312 190.883789062 579.646484375 167.647460938 479 c 2
 104.169921875 204.049804688 l 2
EndSplineSet
EndChar

StartChar: Egrave
Encoding: 200 200 137
Width: 403
GlyphClass: 2
Flags: MW
HStem: 0.275391 80.9248<82.6348 293.077> 310.325 81.8994<154.44 332.483 135.533 351.391> 609.65 80.9248<204.638 433.763 204.638 204.638>
VStem: 59.7129 87.75
LayerCount: 2
Fore
SplineSet
82.634765625 81.2001953125 m 1
 311.759765625 81.2001953125 l 1
 293.077148438 0.275390625 l 1
 -23.7978515625 0.275390625 l 1
 135.5703125 690.575195312 l 1
 452.4453125 690.575195312 l 1
 433.762695312 609.650390625 l 1
 204.637695312 609.650390625 l 1
 154.440429688 392.224609375 l 1
 351.390625 392.224609375 l 1
 332.483398438 310.325195312 l 1
 135.533203125 310.325195312 l 1
 82.634765625 81.2001953125 l 1
208.712890625 873.875 m 1
 304.311523438 873.875 l 1
 372.327148438 730.549804688 l 1
 296.728515625 730.549804688 l 1
 208.712890625 873.875 l 1
EndSplineSet
EndChar

StartChar: Eacute
Encoding: 201 201 138
Width: 403
GlyphClass: 2
Flags: MW
HStem: 0.275391 80.9248<82.6348 293.077> 310.325 81.8994<154.44 332.483 135.533 351.391> 609.65 80.9248<204.638 433.763 204.638 204.638>
VStem: 59.7129 87.75
LayerCount: 2
Fore
SplineSet
82.634765625 81.2001953125 m 1
 311.759765625 81.2001953125 l 1
 293.077148438 0.275390625 l 1
 -23.7978515625 0.275390625 l 1
 135.5703125 690.575195312 l 1
 452.4453125 690.575195312 l 1
 433.762695312 609.650390625 l 1
 204.637695312 609.650390625 l 1
 154.440429688 392.224609375 l 1
 351.390625 392.224609375 l 1
 332.483398438 310.325195312 l 1
 135.533203125 310.325195312 l 1
 82.634765625 81.2001953125 l 1
357.616210938 873.875 m 1
 453.213867188 873.875 l 1
 299.021484375 730.549804688 l 1
 223.421875 730.549804688 l 1
 357.616210938 873.875 l 1
EndSplineSet
EndChar

StartChar: Ecircumflex
Encoding: 202 202 139
Width: 403
GlyphClass: 2
Flags: MW
HStem: 0.275391 80.9248<82.6348 293.077> 310.325 81.8994<154.44 332.483 135.533 351.391> 609.65 80.9248<204.638 433.763 204.638 204.638>
VStem: 59.7129 87.75
LayerCount: 2
Fore
SplineSet
82.634765625 81.2001953125 m 1
 311.759765625 81.2001953125 l 1
 293.077148438 0.275390625 l 1
 -23.7978515625 0.275390625 l 1
 135.5703125 690.575195312 l 1
 452.4453125 690.575195312 l 1
 433.762695312 609.650390625 l 1
 204.637695312 609.650390625 l 1
 154.440429688 392.224609375 l 1
 351.390625 392.224609375 l 1
 332.483398438 310.325195312 l 1
 135.533203125 310.325195312 l 1
 82.634765625 81.2001953125 l 1
300.364257812 879.724609375 m 1
 371.984375 879.724609375 l 1
 445.516601562 722.75 l 1
 358.78125 722.75 l 1
 320.637695312 804.055664062 l 1
 244.05078125 722.75 l 1
 157.64453125 722.75 l 1
 300.364257812 879.724609375 l 1
EndSplineSet
EndChar

StartChar: Edieresis
Encoding: 203 203 140
Width: 403
GlyphClass: 2
Flags: MW
HStem: 0.275391 80.9248<82.6348 293.077> 310.325 81.8994<154.44 332.483 135.533 351.391> 609.65 80.9248<204.638 433.763 204.638 204.638> 733.475 101.4<206.91 274.175 183.5 297.585 206.91 331.699 355.109 422.375>
VStem: 59.7129 87.75 97.7383 90.6748 245.938 90.6758
LayerCount: 2
Fore
SplineSet
82.634765625 81.2001953125 m 1xfa
 311.759765625 81.2001953125 l 1
 293.077148438 0.275390625 l 1
 -23.7978515625 0.275390625 l 1
 135.5703125 690.575195312 l 1
 452.4453125 690.575195312 l 1
 433.762695312 609.650390625 l 1
 204.637695312 609.650390625 l 1
 154.440429688 392.224609375 l 1
 351.390625 392.224609375 l 1
 332.483398438 310.325195312 l 1
 135.533203125 310.325195312 l 1
 82.634765625 81.2001953125 l 1xfa
206.91015625 834.875 m 1xf6
 297.584960938 834.875 l 1
 274.174804688 733.474609375 l 1
 183.5 733.474609375 l 1
 206.91015625 834.875 l 1xf6
355.109375 834.875 m 1
 445.78515625 834.875 l 1
 422.375 733.474609375 l 1
 331.69921875 733.474609375 l 1
 355.109375 834.875 l 1
EndSplineSet
EndChar

StartChar: Igrave
Encoding: 204 204 141
Width: 209
GlyphClass: 2
Flags: MW
HStem: 0.275391 21G<-17.9482 69.8018 -17.9482 -17.9482> 670.575 20G<141.42 229.17 229.17 229.17>
VStem: 65.5625 87.75
LayerCount: 2
Fore
SplineSet
141.419921875 690.575195312 m 1
 229.169921875 690.575195312 l 1
 69.8017578125 0.275390625 l 1
 -17.9482421875 0.275390625 l 1
 141.419921875 690.575195312 l 1
100.48828125 873.875 m 1
 196.0859375 873.875 l 1
 264.102539062 730.549804688 l 1
 188.502929688 730.549804688 l 1
 100.48828125 873.875 l 1
EndSplineSet
EndChar

StartChar: Iacute
Encoding: 205 205 142
Width: 209
GlyphClass: 2
Flags: MW
HStem: 0.275391 21G<-17.9482 69.8018 -17.9482 -17.9482> 670.575 20G<141.42 229.17 229.17 229.17>
VStem: 65.5625 87.75
LayerCount: 2
Fore
SplineSet
141.419921875 690.575195312 m 1
 229.169921875 690.575195312 l 1
 69.8017578125 0.275390625 l 1
 -17.9482421875 0.275390625 l 1
 141.419921875 690.575195312 l 1
344.989257812 873.875 m 1
 190.795898438 730.549804688 l 1
 115.197265625 730.549804688 l 1
 249.390625 873.875 l 1
 344.989257812 873.875 l 1
EndSplineSet
EndChar

StartChar: Icircumflex
Encoding: 206 206 143
Width: 209
GlyphClass: 2
Flags: MW
HStem: 0.275391 21G<-17.9482 69.8018 -17.9482 -17.9482> 670.575 20G<141.42 229.17 229.17 229.17>
VStem: 65.5625 87.75
LayerCount: 2
Fore
SplineSet
141.419921875 690.575195312 m 1
 229.169921875 690.575195312 l 1
 69.8017578125 0.275390625 l 1
 -17.9482421875 0.275390625 l 1
 141.419921875 690.575195312 l 1
192.138671875 879.724609375 m 1
 263.759765625 879.724609375 l 1
 337.291992188 722.75 l 1
 250.555664062 722.75 l 1
 212.413085938 804.055664062 l 1
 135.825195312 722.75 l 1
 49.4189453125 722.75 l 1
 192.138671875 879.724609375 l 1
EndSplineSet
EndChar

StartChar: Idieresis
Encoding: 207 207 144
Width: 209
GlyphClass: 2
Flags: MW
HStem: 0.275391 21G<-17.9482 69.8018 -17.9482 -17.9482> 670.575 20G<141.42 229.17 229.17 229.17> 733.475 101.4<98.6846 165.949 75.2744 189.359 98.6846 223.475 246.885 314.149>
VStem: -10.4873 90.6748 65.5625 87.75 137.713 90.6748
LayerCount: 2
Fore
SplineSet
141.419921875 690.575195312 m 1xe8
 229.169921875 690.575195312 l 1
 69.8017578125 0.275390625 l 1
 -17.9482421875 0.275390625 l 1
 141.419921875 690.575195312 l 1xe8
98.6845703125 834.875 m 1xf0
 189.359375 834.875 l 1
 165.94921875 733.474609375 l 1
 75.2744140625 733.474609375 l 1
 98.6845703125 834.875 l 1xf0
246.884765625 834.875 m 1xe4
 337.559570312 834.875 l 1
 314.149414062 733.474609375 l 1
 223.474609375 733.474609375 l 1
 246.884765625 834.875 l 1xe4
EndSplineSet
EndChar

StartChar: Eth
Encoding: 208 208 145
Width: 504
GlyphClass: 2
Flags: MW
HStem: 0.275391 80.9248<110.91 186.802> 310.325 80.9248<37.2158 75.083 18.5332 93.7656 37.2158 163.809 182.491 268.133> 609.65 80.9248<232.913 327.487 232.913 232.913>
VStem: 87.0127 88.7256 371.713 88.7246
LayerCount: 2
Fore
SplineSet
487.223632812 478.025390625 m 2
 425.998046875 212.825195312 l 2
 410.079101562 143.875 380.8359375 90.4580078125 337.153320312 54.125 c 0
 293.879882812 18.1328125 243.283203125 0.275390625 186.801757812 0.275390625 c 2
 3.501953125 0.275390625 l 1
 75.0830078125 310.325195312 l 1
 18.533203125 310.325195312 l 1
 37.2158203125 391.25 l 1
 93.765625 391.25 l 1
 162.870117188 690.575195312 l 1
 346.169921875 690.575195312 l 2
 402.629882812 690.575195312 445.006835938 672.899414062 471.747070312 637.2421875 c 0
 498.7734375 601.202148438 503.287109375 547.600585938 487.223632812 478.025390625 c 2
205.484375 81.2001953125 m 2
 254.934570312 81.2001953125 312.682617188 106.313476562 337.047851562 211.849609375 c 2
 396.923828125 471.200195312 l 2
 422.708984375 582.888671875 379.298828125 609.650390625 327.487304688 609.650390625 c 2
 232.913085938 609.650390625 l 1
 182.491210938 391.25 l 1
 286.815429688 391.25 l 1
 268.1328125 310.325195312 l 1
 163.80859375 310.325195312 l 1
 110.91015625 81.2001953125 l 1
 205.484375 81.2001953125 l 2
EndSplineSet
EndChar

StartChar: Ntilde
Encoding: 209 209 146
Width: 500
GlyphClass: 2
Flags: MW
HStem: 0.275391 21G<-23.7979 64.9268 -23.7979 -23.7979 280.553 366.202 280.553 280.553> 670.575 20G<135.57 221.225 221.225 221.225 436.846 525.57 525.57 525.57> 726.65 82.875<375.626 418.936> 760.775 83.8496<288.45 330.874>
VStem: 59.7129 88.7246 360.988 88.7246
LayerCount: 2
Fore
SplineSet
525.5703125 690.575195312 m 1xcc
 366.202148438 0.275390625 l 1
 280.552734375 0.275390625 l 1
 176.72265625 484.518554688 l 1
 64.9267578125 0.275390625 l 1
 -23.7978515625 0.275390625 l 1
 135.5703125 690.575195312 l 1
 221.224609375 690.575195312 l 1
 324.840820312 205.427734375 l 1
 436.845703125 690.575195312 l 1
 525.5703125 690.575195312 l 1xcc
322.26171875 844.625 m 0xdc
 339.486328125 844.625 350.412109375 841.512695312 371.375976562 825.686523438 c 0
 390.962890625 810.899414062 399.453125 809.525390625 409.708007812 809.525390625 c 0
 428.163085938 809.525390625 435.380859375 816.119140625 483.85546875 860.408203125 c 1
 461.915039062 765.375 l 1
 435.327148438 740.594726562 416.390625 726.650390625 384.725585938 726.650390625 c 0xec
 366.52734375 726.650390625 356.903320312 729.772460938 331.296875 746.325195312 c 0
 310.3984375 760.079101562 308.041992188 760.775390625 299.977539062 760.775390625 c 0
 276.921875 760.775390625 265.131835938 749.53515625 221.474609375 707.918945312 c 1
 244.1640625 806.194335938 l 1
 274.276367188 831.751953125 293.046875 844.625 322.26171875 844.625 c 0xdc
EndSplineSet
EndChar

StartChar: Ograve
Encoding: 210 210 147
Width: 477
GlyphClass: 2
Flags: MW
HStem: -7.52539 81.9014<153.841 185.943> 617.451 81.8994<292.355 328.869>
VStem: 51.9131 88.7246 345.388 88.7256
LayerCount: 2
Fore
SplineSet
15.6728515625 205.026367188 m 2
 80.5009765625 485.826171875 l 2
 96.708984375 556.03125 126.029296875 609.959960938 169.719726562 646.018554688 c 0
 212.951171875 681.698242188 263.814453125 699.350585938 320.896484375 699.350585938 c 0
 377.978515625 699.350585938 420.692382812 681.698242188 447.448242188 646.018554688 c 0
 474.48828125 609.959960938 478.909179688 556.030273438 462.700195312 485.825195312 c 2
 397.873046875 205.025390625 l 2
 381.951171875 136.059570312 352.524414062 82.6220703125 308.501953125 46.2939453125 c 0
 264.921875 10.3310546875 214.184570312 -7.525390625 157.701171875 -7.525390625 c 0
 100.598632812 -7.525390625 57.9111328125 10.3095703125 31.240234375 46.3251953125 c 0
 4.3330078125 82.658203125 -0.2451171875 136.076171875 15.6728515625 205.026367188 c 2
177.584960938 74.3759765625 m 0
 229.805664062 74.3759765625 285.264648438 101.578125 308.921875 204.05078125 c 2
 372.399414062 479.000976562 l 2
 398.184570312 590.689453125 354.774414062 617.451171875 302.963867188 617.451171875 c 0
 245.643554688 617.451171875 193.221679688 589.764648438 167.649414062 479.000976562 c 2
 104.171875 204.05078125 l 2
 78.4326171875 92.5595703125 130.096679688 74.3759765625 177.584960938 74.3759765625 c 0
234.0625 873.875976562 m 1
 329.661132812 873.875976562 l 1
 397.677734375 730.55078125 l 1
 322.078125 730.55078125 l 1
 234.0625 873.875976562 l 1
EndSplineSet
EndChar

StartChar: Oacute
Encoding: 211 211 148
Width: 477
GlyphClass: 2
Flags: MW
HStem: -7.52539 81.9014<153.841 185.943> 617.451 81.8994<292.355 328.869>
VStem: 51.9131 88.7246 345.388 88.7256
LayerCount: 2
Fore
SplineSet
15.6728515625 205.026367188 m 2
 80.5009765625 485.826171875 l 2
 96.708984375 556.03125 126.029296875 609.959960938 169.719726562 646.018554688 c 0
 212.951171875 681.698242188 263.814453125 699.350585938 320.896484375 699.350585938 c 0
 377.978515625 699.350585938 420.692382812 681.698242188 447.448242188 646.018554688 c 0
 474.48828125 609.959960938 478.909179688 556.030273438 462.700195312 485.825195312 c 2
 397.873046875 205.025390625 l 2
 381.951171875 136.059570312 352.524414062 82.6220703125 308.501953125 46.2939453125 c 0
 264.921875 10.3310546875 214.184570312 -7.525390625 157.701171875 -7.525390625 c 0
 100.598632812 -7.525390625 57.9111328125 10.3095703125 31.240234375 46.3251953125 c 0
 4.3330078125 82.658203125 -0.2451171875 136.076171875 15.6728515625 205.026367188 c 2
177.584960938 74.3759765625 m 0
 229.805664062 74.3759765625 285.264648438 101.578125 308.921875 204.05078125 c 2
 372.399414062 479.000976562 l 2
 398.184570312 590.689453125 354.774414062 617.451171875 302.963867188 617.451171875 c 0
 245.643554688 617.451171875 193.221679688 589.764648438 167.649414062 479.000976562 c 2
 104.171875 204.05078125 l 2
 78.4326171875 92.5595703125 130.096679688 74.3759765625 177.584960938 74.3759765625 c 0
382.965820312 873.875976562 m 1
 478.564453125 873.875976562 l 1
 324.37109375 730.55078125 l 1
 248.771484375 730.55078125 l 1
 382.965820312 873.875976562 l 1
EndSplineSet
EndChar

StartChar: Ocircumflex
Encoding: 212 212 149
Width: 477
GlyphClass: 2
Flags: MW
HStem: -7.52539 81.9014<153.841 185.943> 617.451 81.8994<292.355 328.869>
VStem: 51.9131 88.7246 345.388 88.7256
LayerCount: 2
Fore
SplineSet
15.6728515625 205.026367188 m 2
 80.5009765625 485.826171875 l 2
 96.708984375 556.03125 126.029296875 609.959960938 169.719726562 646.018554688 c 0
 212.951171875 681.698242188 263.814453125 699.350585938 320.896484375 699.350585938 c 0
 377.978515625 699.350585938 420.692382812 681.698242188 447.448242188 646.018554688 c 0
 474.48828125 609.959960938 478.909179688 556.030273438 462.700195312 485.825195312 c 2
 397.873046875 205.025390625 l 2
 381.951171875 136.059570312 352.524414062 82.6220703125 308.501953125 46.2939453125 c 0
 264.921875 10.3310546875 214.184570312 -7.525390625 157.701171875 -7.525390625 c 0
 100.598632812 -7.525390625 57.9111328125 10.3095703125 31.240234375 46.3251953125 c 0
 4.3330078125 82.658203125 -0.2451171875 136.076171875 15.6728515625 205.026367188 c 2
177.584960938 74.3759765625 m 0
 229.805664062 74.3759765625 285.264648438 101.578125 308.921875 204.05078125 c 2
 372.399414062 479.000976562 l 2
 398.184570312 590.689453125 354.774414062 617.451171875 302.963867188 617.451171875 c 0
 245.643554688 617.451171875 193.221679688 589.764648438 167.649414062 479.000976562 c 2
 104.171875 204.05078125 l 2
 78.4326171875 92.5595703125 130.096679688 74.3759765625 177.584960938 74.3759765625 c 0
397.334960938 879.725585938 m 1
 470.8671875 722.750976562 l 1
 384.130859375 722.750976562 l 1
 345.98828125 804.056640625 l 1
 269.400390625 722.750976562 l 1
 182.994140625 722.750976562 l 1
 325.713867188 879.725585938 l 1
 397.334960938 879.725585938 l 1
EndSplineSet
EndChar

StartChar: Otilde
Encoding: 213 213 150
Width: 477
GlyphClass: 2
Flags: MW
HStem: -7.52539 81.9014<153.841 185.943> 617.451 81.8994<292.355 328.869> 726.651 82.875<362.952 406.262> 760.776 83.8496<275.775 318.2>
VStem: 51.9131 88.7246 345.388 88.7256
LayerCount: 2
Fore
SplineSet
15.6728515625 205.026367188 m 2xcc
 80.5009765625 485.826171875 l 2
 96.708984375 556.03125 126.029296875 609.959960938 169.719726562 646.018554688 c 0
 212.951171875 681.698242188 263.814453125 699.350585938 320.896484375 699.350585938 c 0
 377.978515625 699.350585938 420.692382812 681.698242188 447.448242188 646.018554688 c 0
 474.48828125 609.959960938 478.909179688 556.030273438 462.700195312 485.825195312 c 2
 397.873046875 205.025390625 l 2
 381.951171875 136.059570312 352.524414062 82.6220703125 308.501953125 46.2939453125 c 0
 264.921875 10.3310546875 214.184570312 -7.525390625 157.701171875 -7.525390625 c 0
 100.598632812 -7.525390625 57.9111328125 10.3095703125 31.240234375 46.3251953125 c 0
 4.3330078125 82.658203125 -0.2451171875 136.076171875 15.6728515625 205.026367188 c 2xcc
177.584960938 74.3759765625 m 0
 229.805664062 74.3759765625 285.264648438 101.578125 308.921875 204.05078125 c 2
 372.399414062 479.000976562 l 2
 398.184570312 590.689453125 354.774414062 617.451171875 302.963867188 617.451171875 c 0
 245.643554688 617.451171875 193.221679688 589.764648438 167.649414062 479.000976562 c 2
 104.171875 204.05078125 l 2
 78.4326171875 92.5595703125 130.096679688 74.3759765625 177.584960938 74.3759765625 c 0
309.587890625 844.625976562 m 0xdc
 326.8125 844.625976562 337.73828125 841.513671875 358.701171875 825.6875 c 0
 378.2890625 810.900390625 386.779296875 809.526367188 397.034179688 809.526367188 c 0
 415.489257812 809.526367188 422.706054688 816.120117188 471.180664062 860.409179688 c 1
 449.240234375 765.375 l 1
 422.654296875 740.598632812 403.719726562 726.651367188 372.05078125 726.651367188 c 0xec
 353.853515625 726.651367188 344.229492188 729.7734375 318.622070312 746.326171875 c 0
 297.720703125 760.083007812 295.36328125 760.776367188 287.302734375 760.776367188 c 0
 264.247070312 760.776367188 252.456054688 749.536132812 208.799804688 707.919921875 c 1
 231.48828125 806.1953125 l 1
 261.6015625 831.75390625 280.375 844.625976562 309.587890625 844.625976562 c 0xdc
EndSplineSet
EndChar

StartChar: Odieresis
Encoding: 214 214 151
Width: 477
GlyphClass: 2
Flags: MW
HStem: -7.52539 81.9014<153.841 185.943> 617.451 81.8994<292.355 328.869> 733.476 101.4<232.26 299.524 208.85 322.935 232.26 357.05 380.46 447.725>
VStem: 51.9131 88.7246 123.088 90.6748 271.288 90.6748 345.388 88.7256
LayerCount: 2
Fore
SplineSet
15.6728515625 205.026367188 m 2xf2
 80.5009765625 485.826171875 l 2
 96.708984375 556.03125 126.029296875 609.959960938 169.719726562 646.018554688 c 0
 212.951171875 681.698242188 263.814453125 699.350585938 320.896484375 699.350585938 c 0
 377.978515625 699.350585938 420.692382812 681.698242188 447.448242188 646.018554688 c 0
 474.48828125 609.959960938 478.909179688 556.030273438 462.700195312 485.825195312 c 2
 397.873046875 205.025390625 l 2
 381.951171875 136.059570312 352.524414062 82.6220703125 308.501953125 46.2939453125 c 0
 264.921875 10.3310546875 214.184570312 -7.525390625 157.701171875 -7.525390625 c 0
 100.598632812 -7.525390625 57.9111328125 10.3095703125 31.240234375 46.3251953125 c 0
 4.3330078125 82.658203125 -0.2451171875 136.076171875 15.6728515625 205.026367188 c 2xf2
177.584960938 74.3759765625 m 0
 229.805664062 74.3759765625 285.264648438 101.578125 308.921875 204.05078125 c 2
 372.399414062 479.000976562 l 2
 398.184570312 590.689453125 354.774414062 617.451171875 302.963867188 617.451171875 c 0
 245.643554688 617.451171875 193.221679688 589.764648438 167.649414062 479.000976562 c 2
 104.171875 204.05078125 l 2
 78.4326171875 92.5595703125 130.096679688 74.3759765625 177.584960938 74.3759765625 c 0
232.259765625 834.875976562 m 1xe8
 322.934570312 834.875976562 l 1
 299.524414062 733.475585938 l 1
 208.849609375 733.475585938 l 1
 232.259765625 834.875976562 l 1xe8
380.459960938 834.875976562 m 1xe4
 471.134765625 834.875976562 l 1
 447.724609375 733.475585938 l 1
 357.049804688 733.475585938 l 1
 380.459960938 834.875976562 l 1xe4
EndSplineSet
EndChar

StartChar: multiply
Encoding: 215 215 152
Width: 420
GlyphClass: 2
Flags: MW
HStem: 122.488 311.294<59.0879 130.926>
VStem: 58.9336 311.507
LayerCount: 2
Fore
SplineSet
183.7734375 223.788085938 m 1
 59.087890625 122.48828125 l 1
 16.1484375 176.678710938 l 1
 141.046875 278.150390625 l 1
 63.001953125 379.622070312 l 1
 130.92578125 433.782226562 l 1
 209.0859375 333.427734375 l 1
 332.733398438 433.881835938 l 1
 374.499023438 379.580078125 l 1
 250.626953125 278.150390625 l 1
 327.665039062 176.719726562 l 1
 260.788085938 122.387695312 l 1
 183.7734375 223.788085938 l 1
EndSplineSet
EndChar

StartChar: Oslash
Encoding: 216 216 153
Width: 477
GlyphClass: 2
Flags: MW
HStem: -7.52441 81.9014<161.155 185.942> 617.452 81.8975<292.354 319.091>
VStem: 51.9121 88.7246 345.387 88.7256
LayerCount: 2
Fore
SplineSet
450.268554688 710.075195312 m 1
 521.102539062 710.075195312 l 1
 460.772460938 620.2109375 l 1
 474.877929688 585.100585938 475.237304688 540.129882812 462.700195312 485.826171875 c 2
 397.872070312 205.026367188 l 2
 381.950195312 136.060546875 352.5234375 82.623046875 308.500976562 46.294921875 c 0
 264.921875 10.33203125 214.18359375 -7.5244140625 157.700195312 -7.5244140625 c 0
 117.310546875 -7.5244140625 83.8173828125 1.7197265625 57.7939453125 20.4111328125 c 1
 31.0283203125 -19.2236328125 l 1
 -39.7880859375 -19.2236328125 l 1
 19.041015625 68.5947265625 l 1
 3.814453125 104.33984375 2.9716796875 150.017578125 15.671875 205.025390625 c 2
 80.4990234375 485.825195312 l 2
 96.7080078125 556.030273438 126.028320312 609.958984375 169.717773438 646.017578125 c 0
 212.94921875 681.697265625 263.813476562 699.349609375 320.89453125 699.349609375 c 0
 363.5078125 699.349609375 397.986328125 689.909179688 423.63671875 670.639648438 c 1
 450.268554688 710.075195312 l 1
302.962890625 617.452148438 m 0
 245.642578125 617.452148438 193.220703125 589.765625 167.6484375 479.001953125 c 2
 104.171875 204.051757812 l 2
 103.091796875 199.374023438 102.14453125 194.913085938 101.329101562 190.671875 c 1
 367.8984375 587.9140625 l 1
 356.174804688 607.485351562 335.219726562 617.452148438 302.962890625 617.452148438 c 0
177.583984375 74.376953125 m 0
 229.8046875 74.376953125 285.263671875 101.579101562 308.921875 204.051757812 c 2
 372.3984375 479.001953125 l 2
 373.569335938 484.0703125 374.586914062 488.877929688 375.45703125 493.419921875 c 1
 110.999023438 100.33984375 l 1
 123.19921875 83.3203125 144.7265625 74.376953125 177.583984375 74.376953125 c 0
EndSplineSet
EndChar

StartChar: Ugrave
Encoding: 217 217 154
Width: 478
GlyphClass: 2
Flags: MW
HStem: -7.52539 81.9004<162.277 185.631> 670.575 20G<135.569 224.294 224.294 224.294 415.395 504.119 504.119 504.119>
VStem: 59.7119 88.7246 339.537 88.7246
LayerCount: 2
Fore
SplineSet
158.676757812 -7.525390625 m 0
 50.6923828125 -7.525390625 -7.9521484375 68.9150390625 17.84375 180.650390625 c 2
 135.569335938 690.575195312 l 1
 224.293945312 690.575195312 l 1
 107.46875 184.549804688 l 2
 98.9267578125 147.551757812 101.6171875 120.537109375 113.9765625 102.196289062 c 0
 126.380859375 83.7890625 146.970703125 74.375 177.583984375 74.375 c 0
 237.8125 74.375 282.182617188 113.571289062 298.569335938 184.549804688 c 2
 415.39453125 690.575195312 l 1
 504.119140625 690.575195312 l 1
 386.393554688 180.650390625 l 2
 373.522460938 124.899414062 345.950195312 78.978515625 303.627929688 44.3154296875 c 0
 261.36328125 9.6982421875 212.584960938 -7.525390625 158.676757812 -7.525390625 c 0
235.036132812 873.875 m 1
 330.633789062 873.875 l 1
 398.650390625 730.549804688 l 1
 323.05078125 730.549804688 l 1
 235.036132812 873.875 l 1
EndSplineSet
EndChar

StartChar: Uacute
Encoding: 218 218 155
Width: 478
GlyphClass: 2
Flags: MW
HStem: -7.52539 81.9004<162.277 185.631> 670.575 20G<135.569 224.294 224.294 224.294 415.395 504.119 504.119 504.119>
VStem: 59.7119 88.7246 339.537 88.7246
LayerCount: 2
Fore
SplineSet
158.676757812 -7.525390625 m 0
 50.6923828125 -7.525390625 -7.9521484375 68.9150390625 17.84375 180.650390625 c 2
 135.569335938 690.575195312 l 1
 224.293945312 690.575195312 l 1
 107.46875 184.549804688 l 2
 98.9267578125 147.551757812 101.6171875 120.537109375 113.9765625 102.196289062 c 0
 126.380859375 83.7890625 146.970703125 74.375 177.583984375 74.375 c 0
 237.8125 74.375 282.182617188 113.571289062 298.569335938 184.549804688 c 2
 415.39453125 690.575195312 l 1
 504.119140625 690.575195312 l 1
 386.393554688 180.650390625 l 2
 373.522460938 124.899414062 345.950195312 78.978515625 303.627929688 44.3154296875 c 0
 261.36328125 9.6982421875 212.584960938 -7.525390625 158.676757812 -7.525390625 c 0
383.939453125 873.875 m 1
 479.537109375 873.875 l 1
 325.344726562 730.549804688 l 1
 249.745117188 730.549804688 l 1
 383.939453125 873.875 l 1
EndSplineSet
EndChar

StartChar: Ucircumflex
Encoding: 219 219 156
Width: 478
GlyphClass: 2
Flags: MW
HStem: -7.52539 81.9004<162.277 185.631> 670.575 20G<135.569 224.294 224.294 224.294 415.395 504.119 504.119 504.119>
VStem: 59.7119 88.7246 339.537 88.7246
LayerCount: 2
Fore
SplineSet
158.676757812 -7.525390625 m 0
 50.6923828125 -7.525390625 -7.9521484375 68.9150390625 17.84375 180.650390625 c 2
 135.569335938 690.575195312 l 1
 224.293945312 690.575195312 l 1
 107.46875 184.549804688 l 2
 98.9267578125 147.551757812 101.6171875 120.537109375 113.9765625 102.196289062 c 0
 126.380859375 83.7890625 146.970703125 74.375 177.583984375 74.375 c 0
 237.8125 74.375 282.182617188 113.571289062 298.569335938 184.549804688 c 2
 415.39453125 690.575195312 l 1
 504.119140625 690.575195312 l 1
 386.393554688 180.650390625 l 2
 373.522460938 124.899414062 345.950195312 78.978515625 303.627929688 44.3154296875 c 0
 261.36328125 9.6982421875 212.584960938 -7.525390625 158.676757812 -7.525390625 c 0
326.686523438 879.724609375 m 1
 398.307617188 879.724609375 l 1
 471.83984375 722.75 l 1
 385.104492188 722.75 l 1
 346.9609375 804.055664062 l 1
 270.373046875 722.75 l 1
 183.966796875 722.75 l 1
 326.686523438 879.724609375 l 1
EndSplineSet
EndChar

StartChar: Udieresis
Encoding: 220 220 157
Width: 478
GlyphClass: 2
Flags: MW
HStem: -7.52539 81.9004<162.277 185.631> 670.575 20G<135.569 224.294 224.294 224.294 415.395 504.119 504.119 504.119> 733.475 101.4<233.232 300.498 209.822 323.908 233.232 358.022 381.433 448.697>
VStem: 59.7119 88.7246 124.061 90.6758 272.261 90.6748 339.537 88.7246
LayerCount: 2
Fore
SplineSet
158.676757812 -7.525390625 m 0xf2
 50.6923828125 -7.525390625 -7.9521484375 68.9150390625 17.84375 180.650390625 c 2
 135.569335938 690.575195312 l 1
 224.293945312 690.575195312 l 1
 107.46875 184.549804688 l 2
 98.9267578125 147.551757812 101.6171875 120.537109375 113.9765625 102.196289062 c 0
 126.380859375 83.7890625 146.970703125 74.375 177.583984375 74.375 c 0
 237.8125 74.375 282.182617188 113.571289062 298.569335938 184.549804688 c 2
 415.39453125 690.575195312 l 1
 504.119140625 690.575195312 l 1
 386.393554688 180.650390625 l 2
 373.522460938 124.899414062 345.950195312 78.978515625 303.627929688 44.3154296875 c 0
 261.36328125 9.6982421875 212.584960938 -7.525390625 158.676757812 -7.525390625 c 0xf2
233.232421875 834.875 m 1xe8
 323.908203125 834.875 l 1
 300.498046875 733.474609375 l 1
 209.822265625 733.474609375 l 1
 233.232421875 834.875 l 1xe8
381.432617188 834.875 m 1xe4
 472.107421875 834.875 l 1
 448.697265625 733.474609375 l 1
 358.022460938 733.474609375 l 1
 381.432617188 834.875 l 1xe4
EndSplineSet
EndChar

StartChar: Yacute
Encoding: 221 221 158
Width: 393
GlyphClass: 2
Flags: MW
HStem: 0.275391 21G<73.7021 161.452 73.7021 73.7021> 670.575 20G<81.96 178.915 178.915 178.915 374.976 471.931 471.931 471.931>
VStem: 157.213 87.75
LayerCount: 2
Fore
SplineSet
471.930664062 690.575195312 m 1
 227.712890625 287.280273438 l 1
 161.452148438 0.275390625 l 1
 73.7021484375 0.275390625 l 1
 139.962890625 287.280273438 l 1
 81.9599609375 690.575195312 l 1
 178.915039062 690.575195312 l 1
 210.106445312 401.065429688 l 1
 374.975585938 690.575195312 l 1
 471.930664062 690.575195312 l 1
440.5390625 873.875 m 1
 286.346679688 730.549804688 l 1
 210.747070312 730.549804688 l 1
 344.94140625 873.875 l 1
 440.5390625 873.875 l 1
EndSplineSet
EndChar

StartChar: Thorn
Encoding: 222 222 159
Width: 439
GlyphClass: 2
Flags: MW
HStem: 0.275391 21G<-23.7979 63.9521 -23.7979 -23.7979> 162.125 79.9512<119.776 192.969 101.318 207.526> 486.801 80.9238<194.958 264.025 176.275 286.608> 670.575 20G<135.57 223.32 223.32 223.32>
VStem: 59.7129 87.75 332.713 88.7246
LayerCount: 2
Fore
SplineSet
286.608398438 567.724609375 m 2
 371.991210938 567.724609375 461.657226562 536.209960938 421.662109375 362.974609375 c 0
 404.2421875 287.517578125 356.5390625 162.125 192.96875 162.125 c 2
 101.318359375 162.125 l 1
 63.9521484375 0.275390625 l 1
 -23.7978515625 0.275390625 l 1
 135.5703125 690.575195312 l 1
 223.3203125 690.575195312 l 1
 194.958007812 567.724609375 l 1
 286.608398438 567.724609375 l 2
207.526367188 242.076171875 m 2
 272.247070312 242.076171875 312.352539062 273.80859375 332.938476562 362.975585938 c 0
 354.599609375 456.799804688 326.01171875 486.80078125 264.025390625 486.80078125 c 2
 176.275390625 486.80078125 l 1
 119.776367188 242.076171875 l 1
 207.526367188 242.076171875 l 2
EndSplineSet
EndChar

StartChar: germandbls
Encoding: 223 223 160
Width: 413
GlyphClass: 2
Flags: MW
HStem: -3.625 78<139.56 156.651 121.552 166.857> 366.875 77.0254<221.945 233.412 204.162 251.195> 621.35 78<266.515 298.729>
VStem: 58.7373 84.8242 287.861 84.8262
LayerCount: 2
Fore
SplineSet
329.083007812 411.978515625 m 1
 368.413085938 381.711914062 367.247070312 338.43359375 340.723632812 223.548828125 c 0
 327.6015625 166.711914062 315.006835938 123.30859375 302.61328125 92.833984375 c 0
 267.416992188 6.291015625 203.655273438 -3.625 156.651367188 -3.625 c 2
 121.551757812 -3.625 l 1
 139.559570312 74.375 l 1
 166.857421875 74.375 l 2
 185.76171875 74.375 198.41015625 79.0029296875 206.426757812 86.091796875 c 0
 222.224609375 100.061523438 232.325195312 121.446289062 255.897460938 223.549804688 c 0
 281.548828125 334.659179688 283.053710938 366.875 233.412109375 366.875 c 2
 204.162109375 366.875 l 1
 221.9453125 443.900390625 l 1
 251.1953125 443.900390625 l 2
 272.568359375 443.900390625 285.892578125 450.770507812 295.134765625 463.416015625 c 0
 305.462890625 477.548828125 315.25 501.743164062 323.0546875 535.549804688 c 0
 336.444335938 593.545898438 322.845703125 621.349609375 274.61328125 621.349609375 c 0
 238.258789062 621.349609375 200.23828125 607.4921875 184.75390625 540.424804688 c 2
 60.05078125 0.275390625 l 1
 -24.7734375 0.275390625 l 1
 94.7529296875 518 l 2
 108.063476562 575.657226562 130.123046875 620.66015625 162.212890625 652.12890625 c 0
 194.915039062 684.196289062 239.435546875 699.349609375 293.594726562 699.349609375 c 0
 338.975585938 699.349609375 373.1015625 685.270507812 394.361328125 656.7265625 c 0
 415.677734375 628.103515625 420.18359375 588.84375 409.004882812 540.424804688 c 0
 392.584960938 469.301757812 371.551757812 437.349609375 329.083007812 411.978515625 c 1
EndSplineSet
EndChar

StartChar: agrave
Encoding: 224 224 161
Width: 401
GlyphClass: 2
Flags: MW
HStem: -7.52539 75.0742<109.41 111.581> 0.275391 21G<187.777 268.702 187.777 187.777> 238.174 67.2764<153.549 255.307 186.081 239.775> 453.65 76.0498<216.225 238.923>
VStem: 40.2119 83.8506 52.8867 79.9502 268.363 83.8496
LayerCount: 2
Fore
SplineSet
220.295898438 453.650390625 m 0xba
 192.795898438 453.650390625 151.725585938 443.817382812 138.915039062 388.325195312 c 2
 135.087890625 371.75 l 1
 55.1376953125 371.75 l 1
 59.189453125 389.299804688 l 2
 69.0634765625 432.068359375 90.3818359375 466.9375 123.276367188 492.234375 c 0
 156.004882812 517.405273438 194.595703125 529.700195312 237.854492188 529.700195312 c 0
 286.22265625 529.700195312 321.56640625 516.325195312 341.9140625 488.494140625 c 0
 362.16796875 460.793945312 366.149414062 422.366210938 355.138671875 374.674804688 c 2
 268.702148438 0.275390625 l 1
 187.77734375 0.275390625 l 1x76
 194.657226562 30.0751953125 l 1
 165.32421875 5.12109375 130.786132812 -7.525390625 92.3759765625 -7.525390625 c 0
 48.8955078125 -7.525390625 17.361328125 6.482421875 -0.056640625 35.1005859375 c 0
 -17.345703125 63.5068359375 -19.6669921875 102.637695312 -8.4091796875 151.400390625 c 0
 2.4755859375 198.546875 24.7236328125 236.717773438 58.7548828125 264.366210938 c 0
 92.9501953125 292.1484375 135.83984375 305.450195312 186.081054688 305.450195312 c 2
 255.306640625 305.450195312 l 1
 271.963867188 377.599609375 l 2
 286.150390625 439.046875 257.55078125 453.650390625 220.295898438 453.650390625 c 0xba
125.30859375 67.548828125 m 0xba
 153.595703125 67.548828125 202.984375 78.814453125 220.192382812 153.348632812 c 2
 239.775390625 238.173828125 l 1
 177.375 238.173828125 l 2
 129.72265625 238.173828125 90.8798828125 218.271484375 75.6669921875 152.374023438 c 0
 58.685546875 78.822265625 93.51171875 67.548828125 125.30859375 67.548828125 c 0xba
158.0703125 705.19921875 m 1
 253.668945312 705.19921875 l 1
 321.685546875 561.874023438 l 1
 246.0859375 561.874023438 l 1
 158.0703125 705.19921875 l 1
EndSplineSet
EndChar

StartChar: aacute
Encoding: 225 225 162
Width: 401
GlyphClass: 2
Flags: MW
HStem: -7.52539 75.0742<109.41 111.581> 0.275391 21G<187.777 268.702 187.777 187.777> 238.174 67.2764<153.549 255.307 186.081 239.775> 453.65 76.0498<216.225 238.923>
VStem: 40.2119 83.8506 52.8867 79.9502 268.363 83.8496
LayerCount: 2
Fore
SplineSet
220.295898438 453.650390625 m 0xba
 192.795898438 453.650390625 151.725585938 443.817382812 138.915039062 388.325195312 c 2
 135.087890625 371.75 l 1
 55.1376953125 371.75 l 1
 59.189453125 389.299804688 l 2
 69.0634765625 432.068359375 90.3818359375 466.9375 123.276367188 492.234375 c 0
 156.004882812 517.405273438 194.595703125 529.700195312 237.854492188 529.700195312 c 0
 286.22265625 529.700195312 321.56640625 516.325195312 341.9140625 488.494140625 c 0
 362.16796875 460.793945312 366.149414062 422.366210938 355.138671875 374.674804688 c 2
 268.702148438 0.275390625 l 1
 187.77734375 0.275390625 l 1x76
 194.657226562 30.0751953125 l 1
 165.32421875 5.12109375 130.786132812 -7.525390625 92.3759765625 -7.525390625 c 0
 48.8955078125 -7.525390625 17.361328125 6.482421875 -0.056640625 35.1005859375 c 0
 -17.345703125 63.5068359375 -19.6669921875 102.637695312 -8.4091796875 151.400390625 c 0
 2.4755859375 198.546875 24.7236328125 236.717773438 58.7548828125 264.366210938 c 0
 92.9501953125 292.1484375 135.83984375 305.450195312 186.081054688 305.450195312 c 2
 255.306640625 305.450195312 l 1
 271.963867188 377.599609375 l 2
 286.150390625 439.046875 257.55078125 453.650390625 220.295898438 453.650390625 c 0xba
125.30859375 67.548828125 m 0xba
 153.595703125 67.548828125 202.984375 78.814453125 220.192382812 153.348632812 c 2
 239.775390625 238.173828125 l 1
 177.375 238.173828125 l 2
 129.72265625 238.173828125 90.8798828125 218.271484375 75.6669921875 152.374023438 c 0
 58.685546875 78.822265625 93.51171875 67.548828125 125.30859375 67.548828125 c 0xba
306.973632812 705.19921875 m 1
 402.572265625 705.19921875 l 1
 248.37890625 561.874023438 l 1
 172.779296875 561.874023438 l 1
 306.973632812 705.19921875 l 1
EndSplineSet
EndChar

StartChar: acircumflex
Encoding: 226 226 163
Width: 401
GlyphClass: 2
Flags: MW
HStem: -7.52539 75.0742<109.41 111.581> 0.275391 21G<187.777 268.702 187.777 187.777> 238.174 67.2764<153.549 255.307 186.081 239.775> 453.65 76.0498<216.225 238.923>
VStem: 40.2119 83.8506 52.8867 79.9502 268.363 83.8496
LayerCount: 2
Fore
SplineSet
220.295898438 453.650390625 m 0xba
 192.795898438 453.650390625 151.725585938 443.817382812 138.915039062 388.325195312 c 2
 135.087890625 371.75 l 1
 55.1376953125 371.75 l 1
 59.189453125 389.299804688 l 2
 69.0634765625 432.068359375 90.3818359375 466.9375 123.276367188 492.234375 c 0
 156.004882812 517.405273438 194.595703125 529.700195312 237.854492188 529.700195312 c 0
 286.22265625 529.700195312 321.56640625 516.325195312 341.9140625 488.494140625 c 0
 362.16796875 460.793945312 366.149414062 422.366210938 355.138671875 374.674804688 c 2
 268.702148438 0.275390625 l 1
 187.77734375 0.275390625 l 1x76
 194.657226562 30.0751953125 l 1
 165.32421875 5.12109375 130.786132812 -7.525390625 92.3759765625 -7.525390625 c 0
 48.8955078125 -7.525390625 17.361328125 6.482421875 -0.056640625 35.1005859375 c 0
 -17.345703125 63.5068359375 -19.6669921875 102.637695312 -8.4091796875 151.400390625 c 0
 2.4755859375 198.546875 24.7236328125 236.717773438 58.7548828125 264.366210938 c 0
 92.9501953125 292.1484375 135.83984375 305.450195312 186.081054688 305.450195312 c 2
 255.306640625 305.450195312 l 1
 271.963867188 377.599609375 l 2
 286.150390625 439.046875 257.55078125 453.650390625 220.295898438 453.650390625 c 0xba
125.30859375 67.548828125 m 0xba
 153.595703125 67.548828125 202.984375 78.814453125 220.192382812 153.348632812 c 2
 239.775390625 238.173828125 l 1
 177.375 238.173828125 l 2
 129.72265625 238.173828125 90.8798828125 218.271484375 75.6669921875 152.374023438 c 0
 58.685546875 78.822265625 93.51171875 67.548828125 125.30859375 67.548828125 c 0xba
249.721679688 711.048828125 m 1
 321.341796875 711.048828125 l 1
 394.875 554.07421875 l 1
 308.138671875 554.07421875 l 1
 269.995117188 635.37890625 l 1
 193.408203125 554.07421875 l 1
 107.001953125 554.07421875 l 1
 249.721679688 711.048828125 l 1
EndSplineSet
EndChar

StartChar: atilde
Encoding: 227 227 164
Width: 401
GlyphClass: 2
Flags: MW
HStem: -7.52539 75.0742<109.41 111.581> 0.275391 21G<187.777 268.702 187.777 187.777> 238.174 67.2764<153.549 255.307 186.081 239.775> 453.65 76.0498<216.225 238.923> 557.974 82.875<286.96 330.271> 592.099 83.8506<199.782 242.208> 671.732 20G<395.19 395.19>
VStem: 40.2119 83.8506 52.8867 79.9502 268.363 83.8496
LayerCount: 2
Fore
SplineSet
220.295898438 453.650390625 m 0xb140
 192.795898438 453.650390625 151.725585938 443.817382812 138.915039062 388.325195312 c 2
 135.087890625 371.75 l 1
 55.1376953125 371.75 l 1
 59.189453125 389.299804688 l 2
 69.0634765625 432.068359375 90.3818359375 466.9375 123.276367188 492.234375 c 0
 156.004882812 517.405273438 194.595703125 529.700195312 237.854492188 529.700195312 c 0
 286.22265625 529.700195312 321.56640625 516.325195312 341.9140625 488.494140625 c 0
 362.16796875 460.793945312 366.149414062 422.366210938 355.138671875 374.674804688 c 2
 268.702148438 0.275390625 l 1
 187.77734375 0.275390625 l 1x70c0
 194.657226562 30.0751953125 l 1
 165.32421875 5.12109375 130.786132812 -7.525390625 92.3759765625 -7.525390625 c 0
 48.8955078125 -7.525390625 17.361328125 6.482421875 -0.056640625 35.1005859375 c 0
 -17.345703125 63.5068359375 -19.6669921875 102.637695312 -8.4091796875 151.400390625 c 0
 2.4755859375 198.546875 24.7236328125 236.717773438 58.7548828125 264.366210938 c 0
 92.9501953125 292.1484375 135.83984375 305.450195312 186.081054688 305.450195312 c 2
 255.306640625 305.450195312 l 1
 271.963867188 377.599609375 l 2
 286.150390625 439.046875 257.55078125 453.650390625 220.295898438 453.650390625 c 0xb140
125.30859375 67.548828125 m 0xb140
 153.595703125 67.548828125 202.984375 78.814453125 220.192382812 153.348632812 c 2
 239.775390625 238.173828125 l 1
 177.375 238.173828125 l 2
 129.72265625 238.173828125 90.8798828125 218.271484375 75.6669921875 152.374023438 c 0
 58.685546875 78.822265625 93.51171875 67.548828125 125.30859375 67.548828125 c 0xb140
233.595703125 675.94921875 m 0x3440
 250.821289062 675.94921875 261.747070312 672.8359375 282.709960938 657.010742188 c 0
 302.296875 642.223632812 310.788085938 640.848632812 321.04296875 640.848632812 c 0
 339.498046875 640.848632812 346.71484375 647.443359375 395.190429688 691.732421875 c 1
 373.25 596.698242188 l 1
 346.662109375 571.920898438 327.7265625 557.973632812 296.05859375 557.973632812 c 0x3a40
 277.861328125 557.973632812 268.236328125 561.096679688 242.629882812 577.649414062 c 0
 221.729492188 591.40625 219.37109375 592.098632812 211.309570312 592.098632812 c 0
 188.25390625 592.098632812 176.463867188 580.859375 132.807617188 539.243164062 c 1
 155.49609375 637.518554688 l 1
 185.611328125 663.078125 204.384765625 675.94921875 233.595703125 675.94921875 c 0x3440
EndSplineSet
EndChar

StartChar: adieresis
Encoding: 228 228 165
Width: 401
GlyphClass: 2
Flags: MW
HStem: -7.52539 75.0742<109.41 111.581> 0.275391 21G<187.777 268.702 187.777 187.777> 238.174 67.2764<153.549 255.307 186.081 239.775> 453.65 76.0498<216.225 238.923> 564.799 101.4<156.268 223.532 132.857 246.942 156.268 281.058 304.468 371.732>
VStem: 40.2119 83.8506 52.8867 79.9502 86.0381 90.6748 234.238 90.6748 268.363 83.8496
LayerCount: 2
Fore
SplineSet
220.295898438 453.650390625 m 0xbc40
 192.795898438 453.650390625 151.725585938 443.817382812 138.915039062 388.325195312 c 2
 135.087890625 371.75 l 1
 55.1376953125 371.75 l 1
 59.189453125 389.299804688 l 2
 69.0634765625 432.068359375 90.3818359375 466.9375 123.276367188 492.234375 c 0
 156.004882812 517.405273438 194.595703125 529.700195312 237.854492188 529.700195312 c 0
 286.22265625 529.700195312 321.56640625 516.325195312 341.9140625 488.494140625 c 0
 362.16796875 460.793945312 366.149414062 422.366210938 355.138671875 374.674804688 c 2
 268.702148438 0.275390625 l 1
 187.77734375 0.275390625 l 1x7a40
 194.657226562 30.0751953125 l 1
 165.32421875 5.12109375 130.786132812 -7.525390625 92.3759765625 -7.525390625 c 0
 48.8955078125 -7.525390625 17.361328125 6.482421875 -0.056640625 35.1005859375 c 0
 -17.345703125 63.5068359375 -19.6669921875 102.637695312 -8.4091796875 151.400390625 c 0
 2.4755859375 198.546875 24.7236328125 236.717773438 58.7548828125 264.366210938 c 0
 92.9501953125 292.1484375 135.83984375 305.450195312 186.081054688 305.450195312 c 2
 255.306640625 305.450195312 l 1
 271.963867188 377.599609375 l 2
 286.150390625 439.046875 257.55078125 453.650390625 220.295898438 453.650390625 c 0xbc40
125.30859375 67.548828125 m 0xbc40
 153.595703125 67.548828125 202.984375 78.814453125 220.192382812 153.348632812 c 2
 239.775390625 238.173828125 l 1
 177.375 238.173828125 l 2
 129.72265625 238.173828125 90.8798828125 218.271484375 75.6669921875 152.374023438 c 0
 58.685546875 78.822265625 93.51171875 67.548828125 125.30859375 67.548828125 c 0xbc40
156.267578125 666.19921875 m 1x39
 246.942382812 666.19921875 l 1
 223.532226562 564.798828125 l 1
 132.857421875 564.798828125 l 1
 156.267578125 666.19921875 l 1x39
304.467773438 666.19921875 m 1x3880
 395.142578125 666.19921875 l 1
 371.732421875 564.798828125 l 1
 281.057617188 564.798828125 l 1
 304.467773438 666.19921875 l 1x3880
EndSplineSet
EndChar

StartChar: aring
Encoding: 229 229 166
Width: 401
GlyphClass: 2
Flags: MW
HStem: -7.52539 75.0742<109.41 111.581> 0.275391 21G<187.777 268.702 187.777 187.777> 238.174 67.2764<153.549 255.307 186.081 239.775> 453.65 76.0498<216.225 238.923> 542.374 55.5752<248.078 260.303> 678.875 54.5986<277.371 291.162>
VStem: 40.2119 83.8506 52.8867 79.9502 110.413 56.5498 243.988 57.5244 268.363 83.8496
LayerCount: 2
Fore
SplineSet
220.295898438 453.650390625 m 0xbe20
 192.795898438 453.650390625 151.725585938 443.817382812 138.915039062 388.325195312 c 2
 135.087890625 371.75 l 1
 55.1376953125 371.75 l 1
 59.189453125 389.299804688 l 2
 69.0634765625 432.068359375 90.3818359375 466.9375 123.276367188 492.234375 c 0
 156.004882812 517.405273438 194.595703125 529.700195312 237.854492188 529.700195312 c 0
 286.22265625 529.700195312 321.56640625 516.325195312 341.9140625 488.494140625 c 0
 362.16796875 460.793945312 366.149414062 422.366210938 355.138671875 374.674804688 c 2
 268.702148438 0.275390625 l 1
 187.77734375 0.275390625 l 1x7d20
 194.657226562 30.0751953125 l 1
 165.32421875 5.12109375 130.786132812 -7.525390625 92.3759765625 -7.525390625 c 0
 48.8955078125 -7.525390625 17.361328125 6.482421875 -0.056640625 35.1005859375 c 0
 -17.345703125 63.5068359375 -19.6669921875 102.637695312 -8.4091796875 151.400390625 c 0
 2.4755859375 198.546875 24.7236328125 236.717773438 58.7548828125 264.366210938 c 0
 92.9501953125 292.1484375 135.83984375 305.450195312 186.081054688 305.450195312 c 2
 255.306640625 305.450195312 l 1
 271.963867188 377.599609375 l 2
 286.150390625 439.046875 257.55078125 453.650390625 220.295898438 453.650390625 c 0xbe20
125.30859375 67.548828125 m 0xbe20
 153.595703125 67.548828125 202.984375 78.814453125 220.192382812 153.348632812 c 2
 239.775390625 238.173828125 l 1
 177.375 238.173828125 l 2
 129.72265625 238.173828125 90.8798828125 218.271484375 75.6669921875 152.374023438 c 0
 58.685546875 78.822265625 93.51171875 67.548828125 125.30859375 67.548828125 c 0xbe20
174.115234375 637.923828125 m 0x3cc0
 180.282226562 664.635742188 194.619140625 687.739257812 216.711914062 705.978515625 c 0
 238.853515625 724.2578125 263.9921875 733.473632812 290.75 733.473632812 c 0
 318.094726562 733.473632812 339.453125 724.3125 353.506835938 706.040039062 c 0
 367.524414062 687.815429688 371.392578125 664.682617188 365.21484375 637.923828125 c 0
 359.037109375 611.165039062 344.487304688 588.033203125 322.055664062 569.807617188 c 0
 299.564453125 551.53515625 273.975585938 542.374023438 246.630859375 542.374023438 c 0
 219.873046875 542.374023438 198.990234375 551.58984375 185.288085938 569.870117188 c 0
 171.6171875 588.109375 167.948242188 611.211914062 174.115234375 637.923828125 c 0x3cc0
259.461914062 597.94921875 m 0
 284.654296875 597.94921875 302.438476562 615.176757812 307.690429688 637.924804688 c 0
 312.717773438 659.698242188 304.178710938 678.875 278.14453125 678.875 c 0
 254.555664062 678.875 235.995117188 661.012695312 230.665039062 637.923828125 c 0
 225.129882812 613.94921875 236.693359375 597.94921875 259.461914062 597.94921875 c 0
EndSplineSet
EndChar

StartChar: ae
Encoding: 230 230 167
Width: 629
GlyphClass: 2
Flags: MW
HStem: -7.52539 75.0742<108.908 132.65> 233.3 68.249<338.253 489.378 338.253 557.475 322.499 489.378> 453.65 76.0498<216.225 238.923>
VStem: 40.2119 83.8467 52.8867 79.9502 268.359 83.8496 503.334 83.8535
LayerCount: 2
Fore
SplineSet
220.295898438 453.650390625 m 0xf6
 192.795898438 453.650390625 151.725585938 443.817382812 138.915039062 388.325195312 c 2
 135.087890625 371.75 l 1
 55.1376953125 371.75 l 1
 59.189453125 389.299804688 l 2xee
 69.0634765625 432.068359375 90.3818359375 466.9375 123.276367188 492.234375 c 0
 156.004882812 517.405273438 194.595703125 529.700195312 237.854492188 529.700195312 c 0
 287.733398438 529.700195312 323.588867188 515.673828125 343.178710938 486.642578125 c 1
 377.375 515.490234375 418.829101562 529.700195312 466.005859375 529.700195312 c 0
 514.727539062 529.700195312 550.713867188 513.896484375 572.159179688 481.94921875 c 0
 593.721679688 449.830078125 596.708007812 403.236328125 582.91015625 343.474609375 c 2
 557.474609375 233.299804688 l 1
 322.499023438 233.299804688 l 1
 318.522460938 216.07421875 314.54296875 198.849609375 310.565429688 181.624023438 c 0
 296.293945312 119.803710938 298.629882812 67.5498046875 363.205078125 67.5498046875 c 0
 416.700195312 67.5498046875 444.000976562 104.99609375 456.514648438 159.200195312 c 2
 459.44140625 171.875 l 1
 542.31640625 171.875 l 1
 539.615234375 160.174804688 l 2
 527.149414062 106.182617188 504.243164062 63.99609375 469.779296875 35.138671875 c 0
 435.506835938 6.4404296875 393.712890625 -7.525390625 345.874023438 -7.525390625 c 0
 292.573242188 -7.525390625 254.49609375 9.322265625 233.784179688 43.4765625 c 1
 206.864257812 18.5146484375 163.17578125 -7.525390625 102.125 -7.525390625 c 0
 56.2041015625 -7.525390625 22.4970703125 6.15234375 2.962890625 34.294921875 c 0
 -16.505859375 62.34375 -20.0029296875 101.181640625 -8.859375 149.450195312 c 0
 1.8828125 195.9765625 24.048828125 233.681640625 58.0166015625 260.993164062 c 0
 92.1416015625 288.432617188 134.962890625 301.549804688 185.180664062 301.549804688 c 2
 254.40625 301.549804688 l 1
 271.963867188 377.599609375 l 2
 286.150390625 439.046875 257.55078125 453.650390625 220.295898438 453.650390625 c 0xf6
449.192382812 452.673828125 m 0
 390.237304688 452.673828125 363.057617188 408.9921875 347.481445312 341.524414062 c 2
 338.252929688 301.548828125 l 1
 489.377929688 301.548828125 l 1
 499.056640625 343.473632812 l 2
 515.604492188 415.147460938 503.819335938 452.673828125 449.192382812 452.673828125 c 0
125.3046875 67.548828125 m 0
 181.702148438 67.548828125 209.955078125 109.022460938 220.4140625 154.32421875 c 2
 238.872070312 234.274414062 l 1
 176.471679688 234.274414062 l 2
 126.872070312 234.274414062 89.677734375 213.080078125 75.2119140625 150.423828125 c 0xf6
 58.8173828125 79.41015625 92.5107421875 67.548828125 125.3046875 67.548828125 c 0
EndSplineSet
EndChar

StartChar: ccedilla
Encoding: 231 231 168
Width: 409
GlyphClass: 2
Flags: MW
HStem: 452.673 77.0264<224.666 248.886>
VStem: 49.9629 83.8496 284.938 83.8506
LayerCount: 2
Fore
SplineSet
249.553710938 529.69921875 m 0
 314.458984375 529.69921875 401.688476562 504.5078125 368.337890625 360.049804688 c 2
 363.161132812 337.625 l 1
 279.310546875 337.625 l 1
 284.486328125 360.047851562 l 2
 303.26953125 441.40625 265.026367188 452.672851562 232.74609375 452.672851562 c 0
 206.03125 452.672851562 185.53125 444.438476562 169.20703125 428.657226562 c 0
 153.103515625 413.08984375 138.955078125 384.276367188 129.084960938 341.5234375 c 2
 91.9443359375 180.6484375 l 2
 75.3515625 108.776367188 85.787109375 69.4970703125 143.30859375 69.4970703125 c 0
 176.61328125 69.4970703125 220.1328125 81.2998046875 238.791992188 162.122070312 c 2
 243.96875 184.546875 l 1
 327.819335938 184.546875 l 1
 322.8671875 163.096679688 l 2
 316.009765625 133.390625 291.2734375 32.2939453125 186.955078125 0.984375 c 1
 100.30859375 -147.926757812 l 1
 6.73828125 -147.926757812 l 1
 99.4072265625 -6.3349609375 l 1
 27.4150390625 2.837890625 -22.4189453125 48.48046875 6.2939453125 172.848632812 c 2
 47.0361328125 349.32421875 l 2
 60.96484375 409.654296875 85.072265625 455.586914062 120.927734375 485.577148438 c 0
 156.412109375 515.256835938 199.77734375 529.69921875 249.553710938 529.69921875 c 0
EndSplineSet
EndChar

StartChar: egrave
Encoding: 232 232 169
Width: 408
GlyphClass: 2
Flags: MW
HStem: -7.52539 75.0752<112.517 149.754> 232.325 68.249<119.631 270.756 119.631 337.875 103.875 270.756> 452.674 77.0264<222.271 259.217>
VStem: 49.9629 83.8496 284.938 82.875
LayerCount: 2
Fore
SplineSet
125.526367188 -7.525390625 m 0
 39.673828125 -7.525390625 -25.6845703125 34.3359375 8.0947265625 180.650390625 c 2
 45.685546875 343.474609375 l 2
 59.4755859375 403.202148438 83.6083984375 449.7421875 119.311523438 481.869140625 c 0
 154.8984375 513.891601562 197.912109375 529.700195312 246.629882812 529.700195312 c 0
 295.3515625 529.700195312 331.337890625 513.896484375 352.784179688 481.94921875 c 0
 374.346679688 449.830078125 377.333007812 403.236328125 363.53515625 343.474609375 c 2
 337.875 232.325195312 l 1
 103.875 232.325195312 l 1
 92.1689453125 181.624023438 l 2
 77.9013671875 119.8203125 80.224609375 67.5498046875 144.80859375 67.5498046875 c 0
 175.543945312 67.5498046875 218.409179688 78.0537109375 237.142578125 159.200195312 c 2
 240.069335938 171.875 l 1
 322.944335938 171.875 l 1
 320.243164062 160.174804688 l 2
 307.77734375 106.182617188 284.87109375 63.99609375 250.407226562 35.138671875 c 0
 216.100585938 6.4130859375 173.982421875 -7.525390625 125.526367188 -7.525390625 c 0
229.821289062 452.673828125 m 0
 175.711914062 452.673828125 146.077148438 415.124023438 129.084960938 341.524414062 c 2
 119.630859375 300.57421875 l 1
 270.755859375 300.57421875 l 1
 280.66015625 343.473632812 l 2
 295.762695312 408.887695312 288.61328125 452.673828125 229.821289062 452.673828125 c 0
157.095703125 705.19921875 m 1
 252.693359375 705.19921875 l 1
 320.709960938 561.874023438 l 1
 245.110351562 561.874023438 l 1
 157.095703125 705.19921875 l 1
EndSplineSet
EndChar

